<svg viewBox="0 0 36 36" fill="none" xmlns="http://www.w3.org/2000/svg">
<path d="M18.375 33C26.6593 33 33.375 26.2843 33.375 18C33.375 9.71573 26.6593 3 18.375 3C10.0907 3 3.375 9.71573 3.375 18C3.375 26.2843 10.0907 33 18.375 33Z" stroke-width="1.5" stroke-linecap="round" stroke-linejoin="round"/>
<circle cx="14.0625" cy="15.1875" r="1.6875" fill="white"/>
<circle cx="23.0625" cy="15.1875" r="1.6875" fill="white"/>
<path d="M18.3695 26.5222C16.554 26.5222 14.7385 26.5169 12.923 26.5264C12.4992 26.5285 12.2535 26.2881 12.0827 25.9612C11.9214 25.6522 12.011 25.3528 12.2219 25.0807C14.5498 22.068 18.7005 21.1306 22.0806 22.8684C23.1318 23.4083 24.0237 24.1496 24.7427 25.0934C25.1349 25.6079 24.9778 26.189 24.3727 26.4009C24.1639 26.4737 23.933 26.518 23.7116 26.519C21.9309 26.5285 20.1502 26.5243 18.3706 26.5243L18.3695 26.5222Z" fill="white"/>
</svg>
