<svg viewBox="0 0 36 36" fill="none" xmlns="http://www.w3.org/2000/svg">
<path d="M18.375 33C26.6593 33 33.375 26.2843 33.375 18C33.375 9.71573 26.6593 3 18.375 3C10.0907 3 3.375 9.71573 3.375 18C3.375 26.2843 10.0907 33 18.375 33Z" stroke-width="1.5" stroke-linecap="round" stroke-linejoin="round"/>
<circle cx="14.0625" cy="15.1875" r="1.6875" fill="white"/>
<circle cx="23.0625" cy="15.1875" r="1.6875" fill="white"/>
<path d="M18.5885 22.0042C20.404 22.0042 22.2195 22.0095 24.035 22C24.4588 21.9979 24.7045 22.2383 24.8753 22.5652C25.0366 22.8741 24.947 23.1736 24.7361 23.4457C22.4082 26.4583 18.2575 27.3958 14.8774 25.658C13.8263 25.1181 12.9343 24.3768 12.2153 23.433C11.8231 22.9184 11.9802 22.3374 12.5853 22.1255C12.7941 22.0527 13.025 22.0084 13.2464 22.0074C15.0271 21.9979 16.8078 22.0021 18.5875 22.0021L18.5885 22.0042Z" fill="white"/>
</svg>
