<svg width="163" height="184" viewBox="0 0 163 184" fill="none" xmlns="http://www.w3.org/2000/svg">
<path d="M84.0377 155.11C83.2927 153.872 82.2994 153.327 80.9316 153.469C82.0308 154.015 83.0851 154.617 84.1191 155.244C84.0906 155.199 84.0662 155.159 84.0377 155.11Z" fill="#5CA2F8"/>
<path d="M154.906 150.559C153.681 148.919 152.533 147.217 151.153 145.699C149.182 143.529 147.175 141.425 144.835 139.601C143.056 138.213 141.163 137 139.364 135.656C138.619 135.099 137.723 134.748 136.933 134.244C134.67 132.79 132.374 131.41 130.005 130.136C126.728 128.37 123.426 126.631 120.272 124.657C117.479 122.911 114.422 121.636 111.731 119.719C110.726 119.003 110.546 120.065 110.135 120.578C109.659 121.168 110.164 121.457 110.546 121.673C111.967 122.475 113.441 123.167 114.8 124.095C116.115 124.991 117.609 125.622 119.014 126.383C122.067 128.044 125.12 129.705 128.165 131.386C129.87 132.326 131.519 133.364 133.249 134.268C134.662 135.005 135.956 135.97 137.308 136.829C138.517 137.598 139.811 138.262 140.927 139.149C144.131 141.697 147.289 144.299 150.009 147.384C151.051 148.569 151.995 149.831 152.866 151.146C153.208 151.663 153.147 152.029 152.565 152.355C151.894 152.729 151.25 153.161 150.595 153.568C146.207 156.283 141.83 159.019 137.479 161.791C129.545 166.839 121.578 171.833 113.502 176.649C112.891 177.016 112.5 176.991 112.02 176.462C110.135 174.386 108.206 172.359 106.146 170.445C101.872 166.472 97.471 162.699 92.179 160.118C91.8289 159.947 91.5846 159.751 91.4259 159.499C90.6606 159.137 89.9237 158.746 89.1991 158.335C89.0444 158.4 88.8694 158.351 88.7025 158.249C88.4013 158.066 88.0227 157.968 87.8517 157.586C87.8598 157.578 87.868 157.569 87.8802 157.561C87.3714 157.252 86.8625 156.938 86.3577 156.625C85.34 156.747 84.8271 156.381 84.1228 155.241C83.0889 154.614 82.0345 154.011 80.9354 153.466C80.7929 153.482 80.6545 153.494 80.5039 153.527C79.8078 153.665 79.2257 153.45 78.668 153.157C77.2432 152.404 75.8713 151.549 74.4303 150.828C69.1749 148.198 63.8828 145.642 58.835 142.601C55.6761 140.7 52.6556 138.608 49.8915 136.19C48.2754 134.777 46.8506 133.12 45.4584 131.476C42.5356 128.019 40.2478 124.156 38.477 119.988C38.1513 119.227 38.1757 118.384 37.8949 117.623C37.0563 115.351 36.6533 112.966 36.2299 110.613C35.7984 108.211 35.2692 105.809 35.1267 103.359C35.0494 102.023 34.4835 100.725 34.6097 99.3895C34.7725 97.6594 34.6301 95.9538 34.5894 94.2318C34.4428 88.5042 34.6097 82.7806 34.9802 77.0693C35.0779 75.5794 34.8784 74.1098 34.9802 72.6321C35.1389 70.381 35.4972 68.1461 35.5094 65.8868C35.5379 60.953 35.6274 56.0273 35.2203 51.0895C35.029 48.7732 34.972 46.4243 34.626 44.1284C34.3329 42.1703 34.1945 40.196 33.9787 38.238C33.6368 35.1157 32.7494 32.1358 32.1265 29.0909C31.7683 27.3364 31.0844 25.6999 30.5552 24.0064C30.1522 22.7241 29.5619 21.5314 29.0042 20.3264C28.4262 19.0767 27.8033 17.8432 27.1887 16.6098C26.9444 16.1172 26.8467 15.6857 27.5428 15.531C29.2688 15.1524 30.9053 14.4848 32.5825 13.9475C34.6219 13.2962 36.6003 12.4332 38.6724 11.9121C41.986 11.0776 45.2019 9.91333 48.5034 9.03404C51.015 8.36642 53.4738 7.51156 55.9733 6.7951C59.0834 5.90359 62.2138 5.08129 65.3239 4.19386C67.8193 3.48147 70.3513 2.88306 72.7938 1.98748C73.1398 1.86129 73.4614 1.81651 73.6813 2.18695C74.5443 3.62801 75.4724 5.03244 76.2459 6.52235C77.2554 8.47634 78.1591 10.4873 79.071 12.4901C79.6205 13.6951 80.2719 14.9123 80.5935 16.1498C81.5135 19.6792 82.5556 23.1841 83.3006 26.7542C84.0089 30.1533 84.6602 33.581 85.0469 37.0289C85.7023 42.8909 85.6209 48.7854 85.454 54.684C85.2342 62.4714 84.7783 70.2548 84.9167 78.0504C84.9614 80.619 85.0266 83.1999 85.2301 85.7523C85.4418 88.4106 85.6616 91.1054 86.4554 93.7026C86.8829 95.0989 87.0579 96.5766 87.4772 97.9769C88.3361 100.843 89.6876 103.525 91.1694 106.086C93.1397 109.489 95.8345 112.347 99.0383 114.679C99.1929 114.793 99.3354 115.021 99.5553 114.875C100.036 114.561 100.243 114.048 100.398 113.531C100.528 113.096 100.316 112.803 99.9705 112.493C99.3843 111.972 98.6434 111.728 98.045 111.219C97.2593 110.548 96.7708 109.648 96.0625 108.936C93.8195 106.672 92.2767 103.908 91.0229 101.067C89.0444 96.5888 87.9657 91.826 87.6237 86.9206C87.3713 83.2406 87.0498 79.5647 87.0091 75.8725C86.9521 70.552 87.1597 65.2355 87.2574 59.919C87.3021 57.4155 87.4324 54.9119 87.4975 52.4084C87.6075 48.2481 87.7825 44.0755 87.2533 39.9355C86.7241 35.8036 85.8855 31.7125 85.2383 27.5969C84.6195 23.6686 83.2232 19.9886 82.2584 16.1742C81.8147 14.4238 80.9924 12.7995 80.3207 11.1224C78.8512 7.47492 77.0275 4.03916 74.9228 0.733675C74.5687 0.180046 74.129 -0.015352 73.4899 0.00093124C72.0122 0.0375684 70.6078 0.489427 69.1912 0.798808C67.111 1.25474 65.1 1.99155 63.032 2.54111C58.1308 3.84377 53.2825 5.34182 48.4138 6.76253C45.2711 7.67846 42.1081 8.53333 38.994 9.54289C35.5867 10.6461 32.212 11.8592 28.8495 13.1008C27.437 13.6218 25.9633 14.0126 24.6688 14.839C24.103 15.2013 24.0175 15.6491 24.2414 16.2312C25.141 18.5638 26.2361 20.8109 27.1561 23.1394C27.897 25.0119 28.5564 26.9171 29.2363 28.8059C30.2173 31.5333 30.5918 34.4236 31.1536 37.2528C31.5892 39.447 31.7072 41.7144 31.8945 43.9534C32.1225 46.693 32.2079 49.4449 32.4848 52.1764C32.7005 54.3054 32.7046 56.4344 32.7819 58.5635C33.018 65.032 32.7249 71.4964 32.5092 77.9649C32.2487 85.6994 32.4033 93.4421 32.6842 101.177C32.7046 101.787 32.8674 102.369 32.9325 102.968C33.1849 105.211 33.3071 107.478 33.8648 109.68C34.5609 112.424 35.086 115.196 36.0671 117.879C36.7428 119.735 37.5163 121.547 38.2287 123.383C38.7172 124.637 39.4784 125.728 40.2641 126.835C40.9764 127.836 41.4161 129.062 42.1529 130.096C45.2793 134.476 49.175 138.074 53.4331 141.319C55.7209 143.061 58.2733 144.384 60.6913 145.915C62.1609 146.843 63.834 147.466 65.2791 148.463C67.0906 149.713 69.1708 150.433 71.08 151.496C72.3664 152.212 73.779 152.697 75.1345 153.291C75.0735 153.234 75.0083 153.181 74.9473 153.12C75.8551 153.641 76.7221 154.199 77.5892 154.748C77.6136 154.724 77.6421 154.695 77.6625 154.667C77.6951 154.626 78.1469 154.793 78.2202 155.147C78.7209 155.461 79.2257 155.762 79.7386 156.051C79.7101 156.002 79.7549 155.831 79.8037 155.811C80.1375 155.668 80.3411 155.864 80.5609 156.116C80.4021 156.206 80.2597 156.259 80.1253 156.259C80.7563 156.592 81.4076 156.898 82.0915 157.154C82.5475 157.236 82.9912 157.378 83.4145 157.573C83.439 157.586 83.4675 157.594 83.4919 157.606C84.3305 158.017 85.3156 158.298 85.6698 159.491C85.8652 160.154 86.6264 160.708 87.5871 160.285C88.043 160.081 88.5275 160.305 88.9305 160.553C90.8804 161.738 92.8506 162.894 94.7558 164.148C99.0098 166.944 102.849 170.258 106.455 173.832C108.059 175.42 109.525 177.154 111.043 178.831C111.312 179.128 111.523 179.511 112.02 179.271C112.712 178.933 113.429 178.628 114.096 178.245C117.719 176.157 121.354 174.076 124.945 171.935C131.267 168.166 137.593 164.396 143.772 160.395C147.395 158.046 151.063 155.762 154.495 153.136C155.504 152.367 155.671 151.598 154.906 150.572V150.559Z" fill="#5CA2F8"/>
<path d="M75.1308 153.282C75.1308 153.282 75.1471 153.29 75.1552 153.295C75.375 153.392 75.6559 153.498 75.6844 153.759C76.2706 154.21 76.8568 154.536 77.4389 154.862C77.4878 154.825 77.5366 154.788 77.5814 154.74C76.7143 154.19 75.8472 153.628 74.9395 153.111C75.0005 153.172 75.0657 153.225 75.1267 153.282H75.1308Z" fill="#5CA2F8"/>
<path d="M94.3449 167.238C91.3529 169.102 88.255 170.783 85.2263 172.587C82.4378 174.243 79.6005 175.835 76.7794 177.443C75.9368 177.923 75.1226 178.44 74.284 178.925C73.2256 179.536 72.0776 180.024 71.1088 180.757C70.2458 181.412 69.6311 181.192 68.9106 180.651C68.1453 180.073 67.3962 179.446 66.5536 178.998C65.0311 178.184 63.6307 177.146 62.2752 176.149C60.5084 174.854 58.6155 173.735 56.8854 172.367C55.4362 171.219 53.7998 170.258 52.2569 169.196C49.041 166.973 45.7803 164.815 42.5399 162.629C42.0636 162.279 41.5874 161.929 41.1111 161.579C40.7936 161.465 40.5005 161.319 40.3987 160.952C39.9509 160.724 39.4705 160.557 39.1042 160.199C38.9495 160.142 38.75 160.126 38.6442 160.016C36.9304 158.294 34.7159 157.276 32.7619 155.892C30.6288 154.382 28.345 153.047 26.2567 151.475C23.224 149.196 19.9307 147.315 16.8613 145.097C15.0539 143.794 13.1691 142.556 11.264 141.38C9.22043 140.118 7.32751 138.644 5.27175 137.411C4.98273 137.24 4.42503 137.256 4.47388 136.825C4.52273 136.389 5.04786 136.3 5.40609 136.088C7.23388 135.029 9.2245 134.329 11.1418 133.474C14.5491 131.956 17.9767 130.486 21.3881 128.98C23.3054 128.134 25.1739 127.173 27.1197 126.403C29.7332 125.369 32.3019 124.242 34.8624 123.09C35.2654 122.911 35.4649 122.74 35.2573 122.267C35.0822 121.873 34.9031 121.665 34.4553 121.885C34.2803 121.97 34.0686 121.983 33.8895 122.064C30.3194 123.635 26.7452 125.198 23.1833 126.782C19.5603 128.394 15.9739 130.1 12.3142 131.618C9.69671 132.701 7.1606 133.951 4.60414 135.16C3.20786 135.819 2.71936 135.546 2.6583 134.02C2.6583 133.987 2.6583 133.951 2.6583 133.918C2.52803 127.698 2.36927 121.482 2.27565 115.262C2.09653 103.611 1.94998 91.9563 1.79936 80.3057C1.7098 73.2917 1.60396 66.2818 1.56733 59.2678C1.55511 57.1998 1.39228 57.4115 3.62715 56.52C5.29211 55.8565 7.15653 55.9379 8.73193 54.9894C8.99246 54.8306 9.39547 54.7777 9.76999 54.7451C10.4783 54.6882 11.2477 54.509 11.8461 54.2363C13.1447 53.642 14.5572 53.5198 15.8721 52.9866C17.5371 52.3108 19.3404 51.9811 21.0624 51.4315C21.9417 51.1466 22.9431 51.3216 23.7288 50.8046C24.3027 50.426 24.9256 50.2103 25.5525 50.1085C26.904 49.8887 28.113 49.2251 29.4442 48.9605C30.1647 48.8181 30.1728 48.1993 30.0344 47.6945C29.8512 47.0351 29.432 47.5968 29.1551 47.662C27.9095 47.9632 26.6679 48.2889 25.4426 48.6593C23.1141 49.3595 20.8059 50.1207 18.4774 50.8087C16.6619 51.346 14.8218 51.7897 13.0063 52.319C11.8827 52.6446 10.861 53.3733 9.60308 53.1494C9.47689 53.129 9.30999 53.1413 9.20822 53.2105C7.42928 54.4236 5.23512 54.5416 3.34627 55.425C2.25529 55.9338 0.700245 56.0397 0.529272 57.7331C0.659537 57.9529 0.647325 58.1565 0.476351 58.3478C0.443785 58.6124 0.51706 58.9096 0.293166 59.1294C0.56998 59.4876 0.688033 59.8377 0.21582 60.139C0.541484 60.3995 0.403077 60.7618 0.403077 61.0834C0.403077 62.7768 0.370511 64.4703 0.378652 66.1637C0.447856 84.6207 0.732812 103.07 1.16839 121.523C1.23352 124.266 1.31901 127.01 1.31087 129.754C1.31087 130.971 1.35157 132.208 1.27423 133.405C1.16025 135.184 1.64467 136.511 2.99618 137.639C4.73848 139.092 6.66397 140.289 8.45919 141.657C9.21636 142.231 10.059 142.658 10.7918 143.297C11.6059 144.006 12.5259 144.681 13.4541 145.215C14.8218 146 16.0349 146.998 17.3376 147.857C18.3919 148.549 19.4178 149.359 20.4436 150.124C22.2836 151.492 24.2498 152.689 26.1102 154.028C27.5309 155.05 29.0371 155.949 30.4537 156.983C31.8337 157.989 33.2015 159.076 34.7443 159.882C36.0022 160.541 36.9222 161.746 38.3022 162.247C38.9088 162.719 39.5112 163.187 40.1178 163.659C41.5548 164.82 43.1302 165.801 44.6852 166.761C46.3502 167.791 47.8116 169.114 49.5702 169.994C50.7426 170.58 51.6341 171.573 52.8309 172.151C53.6858 172.566 54.4837 173.165 55.1798 173.816C55.8311 174.431 56.5883 174.87 57.321 175.334C58.3672 175.994 59.4419 176.584 60.3741 177.431C61.1028 178.09 61.9902 178.599 62.8003 179.137C64.0337 179.959 65.3608 180.663 66.5291 181.603C68.4017 183.114 69.9405 183.631 71.9555 182.377C72.2812 182.173 72.5458 181.86 72.8877 181.701C75.2284 180.61 77.4104 179.238 79.6371 177.948C82.2587 176.425 84.8518 174.838 87.51 173.405C90.38 171.858 93.1196 170.063 96.0872 168.699C96.2948 168.605 96.5594 168.536 96.5391 168.223C96.5065 167.657 94.866 166.928 94.3571 167.246L94.3449 167.238Z" fill="white"/>
<path d="M98.1105 125.175C98.1187 125.008 98.1227 124.841 98.1309 124.674C98.2652 124.605 98.3426 124.527 98.1919 124.397C99.2666 120.734 100.199 116.997 101.974 113.61C103.036 111.586 104.608 109.828 105.955 107.955C107.425 105.912 108.894 103.864 110.372 101.825C111.735 99.9439 113.148 98.0917 114.471 96.1825C115.558 94.6112 116.946 93.2515 117.756 91.4848C117.886 91.1998 118.241 91.0289 118.448 90.7724C119.612 89.3476 120.862 87.9798 121.571 86.2375C121.689 85.9444 121.917 85.7368 122.181 85.5292C123.341 84.6174 124.058 83.3554 124.856 82.1382C125.588 81.0188 126.504 80.0174 127.323 78.9508C128.173 77.8436 129.301 76.8259 129.753 75.568C130.131 74.5259 130.893 73.9274 131.422 73.097C132.59 71.2733 134.19 69.7915 135.489 68.0655C135.688 67.8009 135.9 67.5322 136.018 67.2269C136.661 65.5538 138.444 64.6989 139.103 63.1276C139.531 62.114 140.646 61.6296 140.764 60.3595C140.821 59.7611 141.925 59.3296 142.657 59.1545C144.835 58.6294 147.306 59.6552 148.641 61.5359C149.5 62.745 149.981 64.0028 149.394 65.4073C149.077 66.1726 148.491 66.832 147.982 67.5078C145.694 70.5487 143.386 73.5774 141.094 76.6142C138.603 79.9156 136.095 83.2089 133.632 86.5347C131.43 89.5064 129.289 92.5229 127.095 95.4986C124.721 98.7145 122.299 101.902 119.922 105.118C118.273 107.349 116.706 109.641 115.021 111.843C113.132 114.314 111.337 116.866 109.208 119.15C108.418 119.997 107.351 120.404 106.435 121.047C104.213 122.602 101.803 123.848 99.4417 125.175C99.0916 125.374 98.7333 125.598 98.2978 125.423C98.31 125.285 98.2326 125.211 98.1064 125.183L98.1105 125.175ZM124.343 91.554C125.059 91.4482 125.165 91.8756 124.933 92.3356C124.62 92.9503 124.184 93.508 123.777 94.0738C122.381 95.9993 120.988 97.9289 119.572 99.8381C118.106 101.808 116.616 103.762 115.131 105.716C113.751 107.532 112.35 109.327 110.982 111.151C109.822 112.694 108.715 114.273 107.543 115.804C106.965 116.561 107.742 116.683 108.039 116.984C108.365 117.31 108.813 117.583 109.203 117.049C110.026 115.93 110.848 114.806 111.613 113.65C112.981 111.59 114.565 109.689 115.953 107.638C116.8 106.388 117.789 105.187 118.717 103.966C119.706 102.663 120.63 101.295 121.652 100.033C122.788 98.625 123.887 97.1676 124.929 95.7144C126.256 93.8581 127.693 92.0873 129.093 90.3002C131.288 87.4995 133.343 84.5929 135.537 81.7922C136.889 80.0662 138.171 78.2873 139.486 76.5287C140.854 74.7009 142.193 72.8527 143.598 71.0494C144.001 70.5283 143.96 70.4388 143.345 70.2027C141.855 69.6368 141.819 69.6124 140.854 70.9395C138.562 74.0943 136.282 77.2533 133.958 80.3837C131.776 83.3228 129.533 86.2213 127.343 89.1563C126.94 89.6977 126.415 90.5526 125.873 90.1577C125.104 89.5959 125.959 88.8388 126.366 88.3951C127.534 87.129 128.454 85.6717 129.517 84.3283C131.328 82.0365 132.969 79.6103 134.74 77.2859C136.661 74.7579 138.648 72.2788 140.618 69.7915C140.952 69.3681 141.102 68.9163 140.642 68.5662C140.003 68.0777 139.433 67.5485 139.038 66.8483C138.737 66.315 138.432 66.368 138.098 66.8158C137.955 67.003 137.776 67.1658 137.638 67.3531C135.139 70.7319 132.639 74.1106 130.156 77.5016C128.454 79.822 126.826 82.1952 125.088 84.4871C122.511 87.8821 119.93 91.2691 117.553 94.8147C116.311 96.671 114.752 98.2993 113.547 100.204C112.582 101.731 111.381 103.119 110.246 104.528C107.942 107.385 106.012 110.524 103.533 113.243C103.272 113.528 103.052 113.907 103.692 114.151C104.237 114.359 104.766 114.635 105.251 114.961C105.837 115.356 106.203 115.23 106.7 114.741C108.108 113.349 109.077 111.631 110.237 110.068C111.963 107.74 113.669 105.395 115.415 103.078C116.816 101.218 118.253 99.3781 119.629 97.4974C120.74 95.979 121.839 94.4483 122.865 92.8648C123.179 92.3763 123.586 91.6598 124.347 91.5499L124.343 91.554ZM144.44 69.4333C144.611 69.4821 144.925 69.2745 145.132 69.0466C145.857 68.2527 146.321 67.2554 147.103 66.486C147.298 66.2947 147.375 65.7696 146.72 65.7573C145.283 65.7248 144.416 64.7071 143.508 63.7912C143.239 63.5184 142.995 63.034 143.235 62.7653C143.52 62.4478 143.927 62.8345 144.18 63.0462C145.047 63.7708 145.991 64.2837 147.099 64.5524C147.571 64.6664 147.99 64.6053 148.246 64.3081C148.536 63.9743 148.442 63.4899 148.259 63.0788C147.575 61.54 146.256 60.7543 144.746 60.3147C143.903 60.0704 142.983 60.0949 142.352 60.9619C141.713 61.8453 140.996 62.6717 140.398 63.5795C139.173 65.448 139.205 65.0531 140.483 66.7669C140.939 67.3775 141.534 67.805 142.051 68.269C142.621 68.7779 143.362 69.2949 144.436 69.4292L144.44 69.4333ZM102.8 115.169C102.348 115.136 102.287 115.482 102.202 115.747C101.799 117.025 101.359 118.295 101.05 119.598C100.842 120.469 101.758 120.729 102.214 121.222C102.548 121.584 102.873 121.413 103.272 121.161C104.575 120.33 105.91 119.541 107.274 118.808C107.885 118.482 107.815 118.201 107.372 117.88C106.492 117.237 105.605 116.593 104.677 116.028C104.086 115.665 103.411 115.441 102.804 115.169H102.8Z" fill="white"/>
<path d="M42.9509 83.9811C42.9509 81.8154 42.9306 79.6457 42.9591 77.48C42.9754 76.0837 43.2318 75.7337 44.506 75.3754C48.9839 74.1216 53.4739 72.9044 57.9559 71.6506C59.0835 71.3372 60.1704 70.8243 61.3143 70.6207C63.195 70.2869 65.0147 69.7129 66.8506 69.2367C69.635 68.5161 72.4032 67.7223 75.1957 67.0221C75.4888 66.9489 75.7901 66.8959 76.0913 66.8552C76.8973 66.7535 77.2963 66.9326 77.5079 67.9096C78.4646 72.3345 78.6966 76.7758 78.2814 81.274C78.2041 82.1045 77.7522 82.4464 77.0439 82.6459C74.984 83.2321 72.9079 83.7776 70.8685 84.4289C66.9564 85.6745 62.9548 86.6027 59.0224 87.7873C55.2692 88.919 51.4263 89.7494 47.6323 90.7549C46.403 91.0806 45.1858 91.4184 43.9361 91.6749C43.0486 91.8581 42.8125 91.5365 42.8084 90.7793C42.8044 88.5119 42.8084 86.2404 42.8084 83.9729C42.8573 83.9729 42.9061 83.9729 42.955 83.9729L42.9509 83.9811ZM76.6897 71.1214C76.6205 70.3806 76.5472 69.6397 76.478 68.8988C76.4251 68.3411 76.1605 68.1253 75.5947 68.2922C72.5456 69.1878 69.46 69.9653 66.3906 70.7998C63.0973 71.6954 59.8 72.5788 56.5026 73.4662C53.7508 74.2071 51.007 74.9806 48.243 75.6929C47.3311 75.9291 46.4559 76.3402 45.5481 76.4827C44.567 76.6333 44.335 77.077 44.3676 77.9685C44.4327 79.8289 44.7421 81.6892 44.5548 83.5455C44.3635 85.4507 44.6159 87.3843 44.1152 89.2731C43.932 89.9692 44.2943 90.2664 45.0474 90.0547C48.1371 89.1795 51.2635 88.4142 54.3247 87.4413C57.0115 86.5864 59.743 85.9147 62.4501 85.1494C66.7651 83.9241 71.1005 82.768 75.4237 81.5752C76.4007 81.3066 76.9706 80.8629 76.9055 79.6213C76.763 76.7961 76.9258 73.9547 76.6897 71.1296V71.1214Z" fill="#5CA2F8"/>
<path d="M9.306 92.2662C9.46476 101.719 9.36299 111.171 9.60724 120.619C9.63166 121.503 9.59503 122.39 9.72936 123.269C9.90441 124.377 10.2545 124.568 11.2396 124.059C12.9534 123.172 14.7324 122.423 16.495 121.641C19.8494 120.147 23.1915 118.621 26.5458 117.127C28.3044 116.345 30.0793 115.584 31.8664 114.871C32.1432 114.761 32.6683 114.22 32.8719 114.961C33.0103 115.462 33.4866 116.064 32.5543 116.447C29.8798 117.546 27.2338 118.702 24.5796 119.854C21.2294 121.303 17.9157 122.85 14.5207 124.189C13.2303 124.698 11.9357 125.329 10.458 125.358C9.54618 125.374 9.11874 124.922 8.79308 124.234C8.58954 123.807 8.51219 123.339 8.50812 122.854C8.44299 104.523 7.81202 86.2007 7.7998 67.8698C7.7998 65.7693 7.88529 63.6688 7.86494 61.5683C7.86087 61.0065 8.10104 60.75 8.49998 60.4447C9.87998 59.3741 11.5897 59.1624 13.1692 58.6495C15.7338 57.819 18.335 57.1107 20.9322 56.3861C23.1752 55.7592 25.3775 54.998 27.6653 54.5258C28.2352 54.4077 28.7848 54.1594 29.3221 53.9151C29.7292 53.7279 30.2055 53.4877 30.4131 53.9843C30.6329 54.5013 30.2096 54.7741 29.7007 54.9736C28.0561 55.6127 26.3138 55.9505 24.6651 56.553C22.9025 57.1962 21.0584 57.5463 19.2795 58.1488C16.3241 59.1543 13.2669 59.8667 10.2545 60.693C9.12689 61.0024 8.83786 61.3566 8.85414 62.6104C8.90299 66.0665 8.96405 69.5226 9.01697 72.9787C9.1106 79.2803 9.20423 85.5819 9.29786 91.8794C9.17574 92.0097 9.17574 92.14 9.29786 92.2702L9.306 92.2662Z" fill="white"/>
<path d="M101.485 75.5926C101.803 75.3646 101.652 75.0308 101.652 74.75C101.591 61.0965 101.53 47.4471 101.457 33.7936C101.449 32.6212 101.237 31.4611 101.18 30.2846C101.111 28.8761 99.7552 28.2329 98.1757 28.6196C95.9287 29.1692 93.7304 29.8857 91.5037 30.5085C90.7506 30.7202 89.9894 30.9074 89.2363 31.1313C88.8902 31.2331 88.2633 31.5221 88.0232 30.9074C87.7382 30.1788 88.3977 29.9874 88.8617 29.8409C89.5538 29.6251 90.2499 29.4257 90.9379 29.2018C92.5173 28.6929 94.109 28.1841 95.7292 27.8381C97.2761 27.5083 98.7945 26.9628 100.427 27.0809C100.887 27.1135 101.168 27.1053 101.453 27.5897C102.006 28.5423 102.446 29.4542 102.487 30.6143C103.171 50.3781 103.183 70.15 103.244 89.9178C103.248 91.4321 103.773 92.4091 104.941 93.1459C106.411 94.07 107.909 94.9493 109.411 95.8204C110.095 96.2153 110.677 96.773 111.43 97.0539C111.85 97.2126 111.878 97.4854 111.585 97.8355C111.349 98.1163 111.174 98.5519 110.746 98.153C109.541 97.0294 108.003 96.4025 106.68 95.4418C105.699 94.7254 104.567 94.0863 103.403 93.5733C102.255 93.0686 101.436 93.7972 100.537 94.1921C98.7172 94.994 96.926 95.8611 95.1226 96.6875C94.3817 97.0254 93.6124 97.3103 92.8878 97.6767C92.4237 97.9128 92.2324 97.9047 92.0248 97.3551C91.8456 96.8788 91.7194 96.5817 92.2649 96.3171C94.3288 95.3156 96.5311 94.6236 98.5177 93.439C98.9003 93.211 99.4458 93.1296 99.9099 93.0116C101.705 92.5556 102.006 91.3873 101.945 89.7305C101.787 85.5661 101.782 81.3976 101.713 77.2331C101.709 76.9441 101.803 76.6103 101.493 76.3986C101.909 76.1259 101.929 75.8531 101.485 75.5885V75.5926Z" fill="white"/>
<path d="M162.998 129.077C163.002 129.9 162.616 130.457 162.009 130.816C160.043 131.984 158.048 133.112 156.07 134.264C153.383 135.831 150.696 137.398 148.026 138.998C147.639 139.23 147.436 138.998 147.232 138.843C145.82 137.732 145.84 137.736 147.375 136.877C151.507 134.565 155.638 132.244 159.75 129.892C160.279 129.59 161.118 129.289 161.11 128.719C161.105 128.235 160.218 128.056 159.717 127.754C157.283 126.273 154.857 124.779 152.402 123.329C149.312 121.506 146.194 119.731 143.104 117.907C140.552 116.401 138.02 114.858 135.48 113.331C131.93 111.198 128.38 109.069 124.835 106.936C124.183 106.545 123.52 106.175 122.893 105.752C122.579 105.54 121.839 105.487 122.229 104.872C122.535 104.392 122.714 103.635 123.772 104.323C127.086 106.472 130.509 108.459 133.917 110.47C137.674 112.684 141.403 114.948 145.148 117.182C147.883 118.815 150.623 120.435 153.342 122.096C156.302 123.907 159.233 125.76 162.172 127.6C162.738 127.954 162.925 128.524 162.998 129.081V129.077Z" fill="white"/>
<path d="M11.7201 69.5102C11.6916 68.2239 11.6672 66.9334 11.6387 65.647C11.7201 65.5005 11.716 65.3539 11.6387 65.2115C12.7622 64.0065 14.3783 63.864 15.799 63.343C17.4518 62.7364 19.1656 62.2886 20.859 61.7879C22.8659 61.1977 24.8647 60.5911 26.8879 60.0538C27.873 59.7932 28.3859 60.1759 28.447 61.2017C28.5203 62.4474 28.4999 63.7012 28.4918 64.955C28.4877 65.6104 28.0766 65.9239 27.4782 66.1559C26.0656 66.7095 24.596 67.08 23.1794 67.5969C20.1141 68.7123 16.9796 69.5957 13.845 70.4913C13.1286 70.6948 12.2208 71.0693 11.8219 69.9214C11.8951 69.7585 11.8748 69.6161 11.7242 69.5062L11.7201 69.5102Z" fill="white"/>
<path d="M68.7358 15.6859C68.8742 16.6344 68.3654 17.0984 67.3314 17.3956C62.8413 18.6901 58.4 20.1515 53.9018 21.4094C49.7455 22.5696 45.6381 23.9089 41.4329 24.894C40.2606 25.1668 39.1329 25.6105 37.9117 25.6919C37.2156 25.7408 36.9062 25.4029 36.7922 24.8085C36.4503 23.0662 35.7949 21.4542 34.9156 19.9195C34.2317 18.7227 34.5492 18.222 35.9211 17.9411C37.3255 17.6521 38.6648 17.0984 40.0285 16.6669C42.3041 15.9505 44.6163 15.3765 46.9041 14.7048C49.9206 13.8174 52.9777 13.0928 55.982 12.1484C58.913 11.2284 61.9538 10.6666 64.9418 9.92163C65.7804 9.70994 66.3625 9.97048 66.8836 10.6299C68.0885 12.1565 68.7073 13.736 68.7439 15.6859H68.7358ZM67.3354 15.4905C67.2133 14.1797 67.0708 13.2597 66.5946 12.4089C65.8089 11.0085 65.7763 10.9882 64.2091 11.4482C61.0949 12.3641 57.997 13.3207 54.8666 14.1756C51.5407 15.0834 48.1905 15.9016 44.8483 16.7524C42.1453 17.4363 39.4505 18.1324 36.837 19.1216C36.2834 19.3292 36.0921 19.3577 36.4177 20.0538C36.9591 21.2059 37.7733 22.2684 37.9483 23.5547C38.0623 24.3933 38.2984 24.5928 39.1126 24.3363C41.6691 23.5303 44.2296 22.7202 46.8186 22.0282C50.8365 20.9535 54.8096 19.716 58.8153 18.6006C61.0908 17.9696 63.3013 17.1147 65.6501 16.7117C66.4195 16.5815 67.5186 16.4471 67.3273 15.4905H67.3354Z" fill="#5CA2F8"/>
<path d="M97.8213 86.7701C97.9678 87.8489 97.4264 88.4066 96.4657 88.7974C94.8781 89.4487 93.3393 90.2059 91.7721 90.9101C91.5319 91.016 91.2714 91.1137 91.0149 91.134C90.7544 91.1585 90.3188 91.3783 90.2822 90.9142C90.2537 90.5478 90.0013 90.0634 90.6323 89.811C92.3176 89.1353 93.9744 88.3903 95.6556 87.7023C96.3232 87.4296 96.8728 87.2261 96.8484 86.2694C96.4332 71.5006 96.6163 56.7276 96.482 41.9547C96.4698 40.5462 96.4128 39.1377 96.1482 37.7414C95.7859 35.82 95.2404 35.7997 93.6609 36.1457C92.4723 36.4062 91.1737 36.4795 90.0786 37.2041C89.8425 37.3588 89.2563 37.5012 89.0528 36.9802C88.8411 36.4306 89.2075 36.3981 89.6593 36.1905C91.0638 35.5513 92.5781 35.3071 94.0192 34.8186C94.1861 34.9122 94.3326 34.9285 94.4181 34.7168C96.2785 34.554 97.2677 35.5269 97.3694 37.3832C97.9882 48.6308 97.7684 59.8947 97.9597 71.1464C97.8009 72.4857 97.8417 73.825 97.9923 75.1643C98.0086 78.5715 98.033 81.9829 98.0371 85.3901C98.0371 85.7809 98.147 86.2043 97.8498 86.5544C97.8417 86.6236 97.8294 86.6969 97.8213 86.7701Z" fill="white"/>
<path d="M30.9466 145.496C30.4541 145.492 29.9696 145.142 29.5056 144.837C26.5135 142.879 23.5378 140.892 20.562 138.909C19.6339 138.291 19.6624 137.619 20.7004 137.118C23.6884 135.665 26.6927 134.252 29.6928 132.824C32.3185 131.574 34.9401 130.328 37.5698 129.083C37.7489 128.997 37.9525 128.973 38.1357 128.899C38.6323 128.7 38.8155 128.969 39.0353 129.376C39.3528 129.966 38.7748 129.88 38.5957 129.97C37.3459 130.621 36.0555 131.203 34.8058 131.859C34.2399 132.156 34.1381 132.445 34.818 132.897C36.9958 134.342 39.1249 135.869 41.2539 137.387C42.2879 138.124 43.2934 138.873 44.5757 137.88C44.6774 137.802 44.824 137.717 44.9339 137.733C45.341 137.79 45.9435 137.444 46.1063 137.973C46.1999 138.279 45.5934 138.364 45.2921 138.523C41.372 140.562 37.4477 142.585 33.442 144.454C32.6604 144.82 31.9684 145.394 30.9466 145.488V145.496ZM41.4004 139.211C41.2458 139.068 41.0829 138.897 40.8997 138.759C38.4613 136.96 35.9863 135.213 33.6049 133.341C33.0146 132.877 32.6035 132.832 32.0132 133.117C30.9385 133.634 29.8679 134.151 28.781 134.639C26.6927 135.584 24.5921 136.504 22.4997 137.44C22.1741 137.586 21.7548 137.705 21.7181 138.108C21.6856 138.474 22.1211 138.519 22.3572 138.661C25.2434 140.416 28.0889 142.239 30.8978 144.116C31.2723 144.368 31.6305 144.356 32.0946 144.145C33.7392 143.396 35.2454 142.39 36.9144 141.682C38.3351 141.079 39.6663 140.265 41.0463 139.561C41.201 139.479 41.3516 139.431 41.4045 139.207L41.4004 139.211Z" fill="white"/>
<path d="M45.6583 118.644C45.2878 118.624 44.9703 118.673 44.8808 118.327C44.7668 117.883 45.0395 117.61 45.3937 117.447C46.7004 116.841 47.999 116.206 49.3383 115.669C52.196 114.521 55.0659 113.405 57.944 112.31C62.833 110.446 67.7017 108.532 72.6436 106.819C74.9436 106.021 77.1703 105.003 79.564 104.49C79.7594 104.449 79.9548 104.397 80.1542 104.376C80.4758 104.344 80.7893 104.384 80.8788 104.759C80.9643 105.113 80.8911 105.443 80.5125 105.601C79.1325 106.175 77.8502 106.945 76.4417 107.474C71.5933 109.298 66.7898 111.24 61.9293 113.035C57.7974 114.561 53.6045 115.917 49.4604 117.411C48.3939 117.798 47.3395 118.221 46.2445 118.53C46.0206 118.595 45.7845 118.62 45.6501 118.648L45.6583 118.644Z" fill="#5CA2F8"/>
<path d="M73.4001 156.451C73.1844 156.609 72.9849 156.805 72.7447 156.915C71.6822 157.391 70.8518 158.364 69.5776 158.372C69.0973 157.981 68.6169 157.595 68.1406 157.204C67.0904 156.394 65.9994 155.628 64.9044 154.896C63.907 154.224 62.9992 153.471 62.067 152.73C61.7169 152.706 61.3465 152.539 61.3343 152.225C61.3261 151.993 61.6884 151.781 61.9693 151.635C62.7061 151.256 63.4348 150.853 64.1635 150.467C63.4429 149.644 62.5352 149.742 61.721 150.153C59.4536 151.301 57.2309 152.539 54.992 153.74C54.5238 153.992 54.1086 154.379 53.5183 154.334C52.1709 155.201 50.8275 156.064 49.4801 156.931C49.2074 157.24 48.3973 157.24 48.8735 157.981C49.818 158.612 50.7665 159.243 51.7109 159.878C52.175 160.123 52.7367 160.232 52.9443 160.811C53.1682 160.872 53.4288 160.88 53.616 161.002C55.1996 162.015 56.7505 163.09 58.3585 164.067C59.0709 164.499 59.8281 165.126 60.7644 164.637C62.2502 163.864 63.6791 162.976 65.1975 162.276C66.5368 161.661 67.6888 160.635 69.2072 160.424C69.8911 159.618 70.8559 159.288 71.7881 158.905C72.2033 158.519 72.6348 158.16 73.2414 158.12C73.7217 157.737 74.2428 157.432 74.8412 157.277C75.2401 156.968 75.6431 156.654 76.0421 156.345V156.333C75.8467 156.158 75.6472 155.978 75.4518 155.803C74.6214 155.563 74.1329 156.406 73.396 156.459L73.4001 156.451ZM67.8435 159.691C65.5394 160.973 63.2679 162.313 60.976 163.615C60.6137 163.819 60.2555 163.876 59.8444 163.587C57.8212 162.158 55.6189 160.998 53.669 159.463C53.2456 159.345 52.9484 159.048 52.635 158.771C52.0651 158.388 50.852 158.258 51.0962 157.57C51.3405 156.886 52.3948 156.471 53.327 156.414C53.5794 155.848 54.1412 155.783 54.6297 155.596C55.8428 154.676 57.296 154.179 58.5743 153.377C58.8267 153.218 59.1401 153.174 59.4495 153.251C59.7751 153.21 60.0642 153.186 60.3776 153.422C62.3601 154.908 64.367 156.361 66.3617 157.823C66.8868 158.165 67.4201 158.49 67.929 158.852C68.3483 159.154 68.3971 159.39 67.8435 159.695V159.691Z" fill="white"/>
<path d="M90.1439 116.528C90.5103 116.552 90.7912 116.654 90.8482 117.02C90.9092 117.399 90.8604 117.7 90.4574 117.948C89.228 118.701 87.9213 119.292 86.6308 119.923C81.4202 122.471 76.1811 124.966 70.9908 127.551C66.5211 129.778 62.0066 131.903 57.4635 133.971C57.1297 134.121 56.7919 134.264 56.4458 134.39C56.0917 134.52 55.6805 134.667 55.4322 134.284C55.1554 133.861 55.5421 133.588 55.823 133.368C56.1894 133.079 56.5842 132.811 56.9995 132.603C61.5669 130.323 66.1384 128.056 70.7099 125.789C73.4699 124.417 76.1689 122.898 79.0144 121.73C81.1475 120.855 83.1381 119.719 85.206 118.742C86.3866 118.184 87.7014 117.814 88.7476 116.963C89.1588 116.625 89.7124 116.703 90.148 116.523L90.1439 116.528Z" fill="#5CA2F8"/>
<path d="M75.0413 97.2444C75.6031 97.2485 76.0509 97.1386 76.1893 97.7004C76.3155 98.2174 75.9898 98.4372 75.5828 98.596C74.7727 98.9094 73.9748 99.2636 73.1484 99.5282C69.7493 100.615 66.3136 101.6 62.9389 102.773C59.898 103.827 56.8042 104.723 53.7185 105.618C50.4497 106.567 47.2581 107.796 43.9119 108.48C43.3909 108.586 42.8983 108.582 42.7233 108.089C42.5116 107.495 43.1385 107.401 43.5089 107.242C45.0436 106.587 46.6394 106.111 48.2107 105.561C50.6491 104.702 53.1404 104.022 55.587 103.204C58.0091 102.394 60.4679 101.682 62.9063 100.92C65.7518 100.033 68.6013 99.1659 71.4305 98.2418C72.6721 97.8347 73.9015 97.4195 75.0373 97.2526L75.0413 97.2444Z" fill="#5CA2F8"/>
<path d="M93.1037 123.456C92.9205 123.986 92.5134 124.291 92.0697 124.535C89.7453 125.813 87.4249 127.104 85.0801 128.341C80.8139 130.593 76.564 132.88 72.2368 135.013C69.3465 136.438 66.5539 138.079 63.5171 139.198C63.1182 139.345 62.707 139.585 62.475 139.105C62.2389 138.616 62.7192 138.384 63.0612 138.189C65.1169 137.004 67.1849 135.836 69.2488 134.663C72.8555 132.62 76.5885 130.816 80.1504 128.696C81.8601 127.678 83.6961 126.868 85.4669 125.948C87.2173 125.036 88.9433 124.091 90.6979 123.188C91.1375 122.96 91.626 122.785 92.1104 122.695C92.6681 122.589 92.9816 122.927 93.1037 123.46V123.456Z" fill="#5CA2F8"/>
<path d="M42.3246 60.0048C41.9949 59.9275 41.543 59.8705 41.5105 59.4471C41.482 59.1092 41.8239 58.9098 42.1862 58.8121C45.7563 57.8595 49.2531 56.6423 52.8517 55.7834C55.2535 55.2135 57.6064 54.4482 59.9919 53.8172C63.737 52.828 67.4984 51.8836 71.2436 50.9025C73.1853 50.3937 75.1149 49.8319 77.0526 49.3068C77.6022 49.1561 78.282 48.8997 78.5059 49.6772C78.7379 50.4873 77.9563 50.7112 77.4271 50.8577C75.233 51.4765 73.0103 52.0057 70.808 52.596C68.2515 53.2799 65.7114 54.0167 63.1508 54.6843C59.3039 55.6816 55.4407 56.6383 51.5857 57.6112C48.6018 58.3643 45.622 59.1215 42.6381 59.8786C42.5404 59.9031 42.4508 59.9519 42.3205 60.0048H42.3246Z" fill="#5CA2F8"/>
<path d="M79.661 113.283C80.1006 113.25 80.4873 113.442 80.5647 113.808C80.6217 114.077 80.3937 114.394 80.0233 114.561C76.5875 116.088 73.164 117.655 69.7282 119.186C67.0333 120.386 64.3303 121.571 61.6151 122.723C57.8211 124.331 54.0719 126.061 50.1639 127.396C49.765 127.535 49.2602 127.848 49.0282 127.315C48.7677 126.717 49.3823 126.533 49.7854 126.322C53.3351 124.473 57.0354 122.955 60.6788 121.31C65.4457 119.161 70.2859 117.166 75.0813 115.078C76.3758 114.516 77.6459 113.91 78.9933 113.482C79.2132 113.413 79.4411 113.352 79.665 113.287L79.661 113.283Z" fill="#5CA2F8"/>
<path d="M77.2029 27.3045C77.7403 27.3045 78.1148 27.2556 78.245 27.679C78.3753 28.1064 77.9479 28.1349 77.7321 28.314C76.7144 29.1445 75.3751 28.9409 74.2272 29.3968C72.4116 30.1133 70.5594 30.7931 68.6624 31.2409C66.3787 31.7823 64.156 32.5232 61.8845 33.1013C59.2873 33.7648 56.7268 34.5912 54.1418 35.3076C51.3941 36.0689 48.6259 36.7446 45.9025 37.5873C44.4981 38.0229 43.053 38.3282 41.6282 38.6905C41.4979 38.723 41.3595 38.723 41.2252 38.723C40.9199 38.7149 40.5576 38.7271 40.4884 38.3485C40.411 37.9455 40.8059 37.8478 41.0664 37.7583C42.4871 37.2616 43.916 36.7813 45.3489 36.3213C47.421 35.6577 49.5418 35.157 51.6139 34.4813C53.7755 33.777 56.0185 33.3089 58.1801 32.6046C60.4149 31.876 62.7272 31.4485 64.9376 30.6303C66.0571 30.2151 67.2783 30.0807 68.4344 29.7632C71.1334 29.0223 73.8242 28.2407 76.519 27.4795C76.8081 27.3981 77.1012 27.3329 77.207 27.3085L77.2029 27.3045Z" fill="#5CA2F8"/>
<path d="M39.5806 151.569C38.3268 150.523 36.8206 149.863 35.5179 148.898C34.9439 148.475 33.9995 148.129 34.0199 147.469C34.0361 146.965 35.0538 146.777 35.64 146.48C39.605 144.465 43.5781 142.458 47.5471 140.451C47.7507 140.35 47.9623 140.207 48.1781 140.191C48.5689 140.158 48.9638 140.366 49.094 140.692C49.2691 141.127 48.7399 141.058 48.5282 141.168C44.7301 143.154 40.9158 145.121 37.1055 147.087C36.1692 147.571 36.1285 147.681 37.0322 148.227C38.2453 148.959 39.3322 149.92 40.7041 150.384C41.0501 150.628 41.3961 150.873 41.7462 151.113C42.9593 152.131 44.3353 152.916 45.6298 153.82C45.8903 154.003 46.0694 154.015 46.3503 153.881C48.1577 153.002 50.0018 152.2 51.6831 151.084C52.1756 150.689 52.9328 150.82 53.3358 150.25C54.9478 149.44 56.625 148.752 58.1231 147.718C58.4162 147.514 58.7133 147.693 59.0064 147.677C59.2466 147.665 59.4542 147.771 59.4827 147.958C59.5112 148.157 59.2751 148.231 59.0919 148.32C57.8829 148.915 56.6861 149.529 55.4852 150.136C54.8664 150.449 54.2436 150.75 53.7185 151.215C53.2503 151.341 52.7292 151.365 52.4687 151.886C51.6261 152.261 50.6002 152.31 50.0629 153.234C49.5947 153.112 49.2162 153.348 48.8254 153.535C48.3776 153.808 47.942 154.105 47.4779 154.349C46.4806 154.874 45.4669 155.355 44.376 154.553L42.9878 153.486C42.1737 153.441 41.6363 152.81 40.9484 152.509C40.7 151.894 40.1301 151.748 39.5806 151.581V151.569Z" fill="white"/>
<path d="M43.8304 99.7147C43.5291 99.5804 42.9959 99.959 42.8575 99.3321C42.7313 98.7622 43.2442 98.6319 43.5658 98.4935C44.4899 98.0946 45.4384 97.7445 46.4031 97.4473C50.824 96.0836 55.2978 94.8786 59.7309 93.5597C62.3566 92.7822 65.0515 92.2326 67.612 91.219C68.4017 90.9055 69.3177 90.8852 70.197 90.9299C70.5552 90.9462 70.8931 90.9584 70.9419 91.4184C70.9867 91.8092 70.8279 92.0413 70.4331 92.1634C68.5401 92.7537 66.6554 93.3806 64.7584 93.9586C62.9428 94.5123 61.1109 95.0211 59.2913 95.5584C56.9546 96.2464 54.6302 96.9751 52.2854 97.6223C49.786 98.3103 47.2661 98.9169 44.7585 99.5845C44.4573 99.6659 44.1683 99.6944 43.8345 99.7188L43.8304 99.7147Z" fill="#5CA2F8"/>
<path d="M137.435 121.293C136.161 120.605 134.931 119.926 133.69 119.27C132.265 118.513 130.82 117.797 129.403 117.023C128.744 116.665 128.133 116.701 127.506 117.035C124.995 118.387 122.446 119.681 119.987 121.126C119.002 121.704 118.469 121.102 117.712 120.699C119.458 119.779 121.164 118.875 122.87 117.976C124.494 117.117 126.122 116.266 127.734 115.391C128.345 115.057 128.939 115.032 129.538 115.374C131.996 116.779 134.451 118.195 136.914 119.596C137.577 119.97 138.274 120.292 138.941 120.658C139.56 121 139.682 121.301 139.006 121.823C137.553 122.946 135.904 123.724 134.304 124.57C132.847 125.34 131.418 126.166 129.961 126.931C129.676 127.078 129.403 127.257 129.029 127.172C128.727 127.102 128.487 126.935 128.41 126.712C128.304 126.402 128.65 126.317 128.866 126.195C131.606 124.672 134.345 123.154 137.081 121.627C137.191 121.566 137.272 121.452 137.439 121.293H137.435Z" fill="white"/>
<path d="M39.7432 32.3804C39.6251 32.3519 39.3564 32.4862 39.271 32.2461C39.1733 31.9611 39.4379 31.8431 39.6373 31.725C40.5573 31.1592 41.6279 30.919 42.6253 30.6137C45.7069 29.6692 48.7437 28.5661 51.8742 27.7723C54.2719 27.1657 56.6126 26.319 59.0143 25.7206C60.8665 25.2606 62.6414 24.536 64.5343 24.2266C65.32 24.1004 66.065 23.7218 66.8425 23.5101C67.3025 23.388 67.8195 23.331 68.023 23.9416C68.2347 24.5726 67.6811 24.7192 67.3106 24.8413C64.8112 25.688 62.2832 26.4452 59.7349 27.1372C56.2747 28.0776 52.8552 29.1848 49.395 30.1252C46.3541 30.9475 43.2766 31.6354 40.2154 32.3763C40.0892 32.4089 39.9467 32.3763 39.7472 32.3763L39.7432 32.3804Z" fill="#5CA2F8"/>
<path d="M41.5301 46.0257C41.1189 46.0379 40.7281 46.0257 40.663 45.6023C40.5938 45.1179 40.9479 44.9388 41.3713 44.7922C45.4543 43.3837 49.6432 42.3457 53.7832 41.1326C56.3518 40.3795 59.0101 39.9642 61.5299 39.0239C61.9288 38.8733 62.3807 38.8733 62.8041 38.7959C63.26 38.7104 63.8177 38.4743 64.005 39.1094C64.1922 39.7444 63.5612 39.9154 63.1582 40.0456C61.5665 40.5749 59.9504 41.0226 58.3506 41.5193C56.0465 42.2357 53.718 42.883 51.3936 43.514C48.9104 44.1857 46.4761 45.0894 43.8993 45.4069C43.0648 45.5087 42.3402 46.0582 41.526 46.0257H41.5301Z" fill="#5CA2F8"/>
<path d="M43.2038 66.9701C42.7234 66.9619 42.3123 67.084 42.1739 66.5671C42.0355 66.0419 42.4711 65.8913 42.7764 65.7773C43.8022 65.3906 44.8443 65.0202 45.9027 64.7433C49.6886 63.7582 53.4459 62.6713 57.2766 61.8531C57.8831 61.7228 58.453 61.3931 59.084 61.3116C59.5725 61.2506 59.9877 61.4012 60.1261 61.9019C60.2645 62.4067 59.9144 62.6265 59.4829 62.7527C57.3335 63.3755 55.2004 64.0472 53.0388 64.6131C49.998 65.4028 46.9367 66.1111 43.8796 66.852C43.619 66.9131 43.3503 66.9456 43.2038 66.9701Z" fill="#5CA2F8"/>
<path d="M123.532 113.247C121.929 112.233 120.272 111.419 118.611 110.621C118.273 110.459 118.175 110.186 118.436 109.885C118.725 109.543 118.924 109.119 119.563 109.445C121.261 110.3 122.95 111.171 124.583 112.148C126.02 113.007 126.028 113.19 124.505 114.021C121.583 115.616 118.643 117.188 115.708 118.767C115.44 118.914 115.163 119.015 114.845 119.024C114.516 119.032 114.223 119.019 114.121 118.653C114.019 118.287 114.345 118.258 114.569 118.144C117.337 116.707 120.097 115.258 122.869 113.829C123.15 113.683 123.382 113.516 123.537 113.255L123.532 113.247Z" fill="white"/>
<path d="M42.5482 52.2821C42.2144 52.2576 41.62 52.4815 41.5223 51.8913C41.4205 51.2847 42.0108 51.2277 42.4667 51.0934C44.1968 50.5886 45.9025 49.9902 47.6448 49.5506C49.5866 49.058 51.5609 48.6876 53.523 48.2805C53.9871 48.1828 54.3698 48.4392 54.4471 48.8707C54.5407 49.3918 54.0156 49.5872 53.6696 49.6523C51.5935 50.0309 49.6639 50.9509 47.5797 51.2847C45.9188 51.5493 44.3352 52.2088 42.5522 52.2821H42.5482Z" fill="#5CA2F8"/>
<path d="M101.053 99.6954C101.33 99.6384 101.595 99.7687 101.863 99.9112C103.65 100.843 105.429 101.784 107.237 102.679C107.693 102.903 107.64 103.213 107.469 103.485C107.302 103.754 107.123 104.096 106.602 103.778C105.226 102.94 103.781 102.211 102.384 101.409C101.456 100.876 100.626 101.002 99.71 101.495C98.4277 102.183 97.0802 102.744 95.7654 103.367C95.46 103.514 95.1507 103.583 94.8087 103.567C94.4342 103.55 94.4464 103.209 94.3284 103.001C94.2307 102.83 94.2917 102.651 94.5441 102.537C96.5714 101.601 98.5905 100.644 100.614 99.7036C100.724 99.6506 100.882 99.6954 101.057 99.6954H101.053Z" fill="white"/>
<path d="M96.3193 105.703C98.0291 106.554 99.4498 107.535 100.797 108.577C101.546 109.155 102.112 109.115 102.808 108.744C103.04 108.622 103.284 108.529 103.439 108.732C103.561 108.899 103.301 109.066 103.227 109.233C102.824 110.169 101.799 110.128 101.123 110.625C101.066 110.67 100.887 110.568 100.773 110.515C99.9342 110.145 96.8608 106.88 96.3193 105.695V105.703Z" fill="white"/>
<path d="M97.9959 75.1683C97.8453 73.829 97.8005 72.4897 97.9634 71.1504C98.1913 72.4897 98.171 73.829 97.9959 75.1683Z" fill="#5CA2F8"/>
<path d="M0.285053 59.1172C0.561868 59.4754 0.679921 59.8255 0.207708 60.1268C-0.0853895 59.7644 -0.0731771 59.4266 0.285053 59.1172Z" fill="#5CA2F8"/>
<path d="M101.485 75.5918C101.928 75.8564 101.908 76.1291 101.493 76.4019C101.407 76.1291 100.984 75.8645 101.485 75.5918Z" fill="#5CA2F8"/>
<path d="M0.52088 57.7207C0.651146 57.9405 0.638933 58.1441 0.46796 58.3354C0.362119 58.1196 0.321411 57.908 0.52088 57.7207Z" fill="#5CA2F8"/>
<path d="M11.6349 65.2144C11.7163 65.361 11.7204 65.5035 11.6349 65.65C11.3988 65.7558 11.3662 65.5889 11.3662 65.4343C11.3662 65.2796 11.3947 65.1086 11.6308 65.2144H11.6349Z" fill="#5CA2F8"/>
<path d="M11.72 69.5098C11.8747 69.6197 11.891 69.7622 11.8177 69.925C11.5776 69.8354 11.5613 69.693 11.72 69.5098Z" fill="#5CA2F8"/>
<path d="M94.4224 34.7172C94.3328 34.9288 94.1863 34.9125 94.0234 34.8189C94.1211 34.6317 94.2595 34.6317 94.4224 34.7172Z" fill="#5CA2F8"/>
<path d="M9.30558 92.2658C9.17939 92.1355 9.17939 92.0053 9.30558 91.875C9.46842 92.0053 9.46842 92.1355 9.30558 92.2658Z" fill="#5CA2F8"/>
<path d="M98.1101 125.174C98.2363 125.206 98.3137 125.276 98.3015 125.414C98.2363 125.422 98.1509 125.459 98.1183 125.43C98.0287 125.361 98.0165 125.263 98.1142 125.174H98.1101Z" fill="#5CA2F8"/>
<path d="M98.1876 124.393C98.3382 124.523 98.2609 124.604 98.1266 124.669C98.0248 124.551 97.9882 124.445 98.1876 124.393Z" fill="#5CA2F8"/>
<path d="M97.8213 86.7702C97.8294 86.697 97.8416 86.6278 97.8498 86.5545C97.9475 86.5056 98.0533 86.526 98.0615 86.6318C98.0777 86.8109 97.9719 86.8435 97.8213 86.7662V86.7702Z" fill="#5CA2F8"/>
<path d="M76.0469 156.336C76.1039 156.332 76.1649 156.328 76.2219 156.324C76.1649 156.324 76.1039 156.324 76.0469 156.324V156.336Z" fill="#5CA2F8"/>
<path d="M87.8761 157.564C87.8761 157.564 87.8558 157.581 87.8477 157.589C88.0186 157.972 88.3972 158.069 88.6985 158.252C88.8654 158.354 89.0404 158.403 89.1951 158.338C88.7514 158.086 88.3077 157.829 87.8721 157.564H87.8761Z" fill="white"/>
<path d="M79.8035 155.802C79.7547 155.823 79.7099 155.994 79.7384 156.043C79.8646 156.112 79.9949 156.185 80.1211 156.254C80.2554 156.254 80.3979 156.201 80.5566 156.112C80.3409 155.855 80.1373 155.664 79.7995 155.806L79.8035 155.802Z" fill="white"/>
<path d="M79.7393 156.047C79.8532 156.194 79.9835 156.251 80.1219 156.251C79.9916 156.182 79.8655 156.112 79.7393 156.039C79.7393 156.039 79.7393 156.043 79.7393 156.047Z" fill="white"/>
<path d="M41.4005 139.209C41.3475 139.433 41.1969 139.486 41.0422 139.564C39.6622 140.272 38.3311 141.082 36.9104 141.684C35.2413 142.393 33.7351 143.398 32.0905 144.147C31.6265 144.359 31.2682 144.367 30.8937 144.119C28.0849 142.242 25.2394 140.418 22.3532 138.664C22.1171 138.521 21.6774 138.477 21.7141 138.11C21.7507 137.707 22.17 137.585 22.4957 137.443C24.5881 136.506 26.6886 135.586 28.7769 134.642C29.8638 134.153 30.9385 133.636 32.0091 133.119C32.5994 132.834 33.0105 132.879 33.6008 133.343C35.9822 135.212 38.4573 136.962 40.8957 138.762C41.0829 138.9 41.2417 139.071 41.3964 139.213L41.4005 139.209Z" fill="white"/>
<path d="M66.3625 157.817C66.8876 158.159 67.4209 158.485 67.9298 158.847C68.3491 159.148 68.3979 159.385 67.8443 159.69C65.5402 160.972 63.2687 162.311 60.9768 163.614C60.6145 163.818 60.2563 163.875 59.8452 163.586C57.822 162.157 55.6197 160.997 53.6738 159.462C53.8529 159.035 54.0524 158.611 54.2071 158.176C54.5002 157.341 54.8706 156.515 54.6305 155.595C55.8436 154.675 57.2968 154.178 58.5751 153.376C58.8275 153.217 59.1409 153.173 59.4503 153.25C59.3322 154.581 59.7312 155.354 60.9117 155.81C61.7584 156.136 62.6499 156.348 63.5333 156.568C64.1968 156.734 64.5347 157.097 64.4492 157.793C64.3597 158.518 63.8793 158.701 63.228 158.729C62.2184 158.774 61.3025 158.648 60.4924 157.939C59.7637 157.3 59.5358 158.163 59.1735 158.509C58.7135 158.945 59.1938 159.157 59.4503 159.368C60.126 159.93 60.985 160.048 61.7991 160.207C64.205 160.683 65.6501 159.902 66.3584 157.821L66.3625 157.817Z" fill="white"/>
<path d="M66.3619 157.817C65.6495 159.897 64.2084 160.678 61.8026 160.202C60.9884 160.043 60.1295 159.925 59.4537 159.363C59.1972 159.148 58.7169 158.94 59.1769 158.505C59.5433 158.158 59.7712 157.295 60.4958 157.935C61.3059 158.647 62.2219 158.769 63.2314 158.724C63.8787 158.696 64.3631 158.509 64.4526 157.788C64.5381 157.092 64.2003 156.73 63.5367 156.563C62.6534 156.343 61.7618 156.131 60.9151 155.806C59.7305 155.35 59.3357 154.576 59.4537 153.245C59.7834 153.204 60.0684 153.18 60.3819 153.416C62.3643 154.902 64.3712 156.355 66.3659 157.817H66.3619Z" fill="white"/>
<path d="M54.6304 155.592C54.8665 156.516 54.5002 157.342 54.2071 158.173C54.0524 158.608 53.857 159.032 53.6738 159.459C53.2504 159.341 52.9492 159.044 52.6357 158.763C52.9126 157.99 53.4011 157.281 53.3278 156.406C53.5802 155.84 54.1419 155.775 54.6304 155.588V155.592Z" fill="white"/>
<path d="M53.3273 156.41C53.4006 157.285 52.9121 157.994 52.6353 158.767C52.0654 158.384 50.8523 158.254 51.0965 157.566C51.3408 156.882 52.3992 156.467 53.3273 156.41Z" fill="white"/>
</svg>
