<svg width="185" height="40" viewBox="0 0 185 40" fill="none" xmlns="http://www.w3.org/2000/svg">
<path d="M11.1991 31.5071C11.1991 32.6117 12.0945 33.5071 13.1991 33.5071C14.3036 33.5071 15.1991 32.6117 15.1991 31.5071C15.1991 30.4025 14.3036 29.5071 13.1991 29.5071C12.0945 29.5071 11.1991 30.4025 11.1991 31.5071ZM13.1991 9.87204H13.5741V9.49704H13.1991V9.87204ZM1 9.87204H0.625V10.247H1V9.87204ZM1 2V1.625H0.625V2H1ZM32.0711 2H32.4461V1.625H32.0711V2ZM32.0711 9.87204V10.247H32.4461V9.87204H32.0711ZM21.6967 9.87204V9.49704H21.3217V9.87204H21.6967ZM21.6967 16.7536H21.3217V17.1286H21.6967V16.7536ZM34.0332 16.7536C34.0332 17.8581 34.9286 18.7536 36.0332 18.7536C37.1377 18.7536 38.0332 17.8581 38.0332 16.7536C38.0332 15.649 37.1377 14.7536 36.0332 14.7536C34.9286 14.7536 34.0332 15.649 34.0332 16.7536ZM13.5741 31.5071V9.87204H12.8241V31.5071H13.5741ZM13.1991 9.49704H1V10.247H13.1991V9.49704ZM1.375 9.87204V2H0.625V9.87204H1.375ZM1 2.375H32.0711V1.625H1V2.375ZM31.6961 2V9.87204H32.4461V2H31.6961ZM32.0711 9.49704H21.6967V10.247H32.0711V9.49704ZM21.3217 9.87204V16.7536H22.0717V9.87204H21.3217ZM21.6967 17.1286H36.0332V16.3786H21.6967V17.1286Z" fill="#66A5FF"/>
<path d="M11.459 37.9715C11.459 39.0761 12.3544 39.9715 13.459 39.9715C14.5636 39.9715 15.459 39.0761 15.459 37.9715C15.459 36.867 14.5636 35.9715 13.459 35.9715C12.3544 35.9715 11.459 36.867 11.459 37.9715ZM21.7481 37.9715V38.3465H22.1231V37.9715H21.7481ZM21.7481 24.3128V23.9378H21.3731V24.3128H21.7481ZM35.5633 24.3128H35.9383V23.9378H35.5633V24.3128ZM35.5633 37.9715H35.1883V38.3465H35.5633V37.9715ZM44.9993 37.9715V38.3465H45.3743V37.9715H44.9993ZM42.9993 2.2085C42.9993 3.31307 43.8947 4.2085 44.9993 4.2085C46.1038 4.2085 46.9993 3.31307 46.9993 2.2085C46.9993 1.10393 46.1038 0.208496 44.9993 0.208496C43.8947 0.208496 42.9993 1.10393 42.9993 2.2085ZM13.459 38.3465H21.7481V37.5965H13.459V38.3465ZM22.1231 37.9715V24.3128H21.3731V37.9715H22.1231ZM21.7481 24.6878H35.5633V23.9378H21.7481V24.6878ZM35.1883 24.3128V37.9715H35.9383V24.3128H35.1883ZM35.5633 38.3465H44.9993V37.5965H35.5633V38.3465ZM45.3743 37.9715V2.2085H44.6243V37.9715H45.3743Z" fill="#66A5FF"/>
<path d="M59.832 12.8218H53.112V10.3858H69.324V12.8218H62.604V29.9858H59.832V12.8218ZM76.8063 30.1538C75.3317 30.1538 74.0063 29.8272 72.8303 29.1738C71.6543 28.5205 70.7303 27.6245 70.0583 26.4858C69.405 25.3285 69.0783 24.0218 69.0783 22.5658C69.0783 21.1098 69.405 19.8125 70.0583 18.6738C70.7303 17.5165 71.6543 16.6205 72.8303 15.9858C74.0063 15.3325 75.3317 15.0058 76.8063 15.0058C78.281 15.0058 79.597 15.3325 80.7543 15.9858C81.9303 16.6205 82.845 17.5165 83.4983 18.6738C84.1703 19.8125 84.5063 21.1098 84.5063 22.5658C84.5063 24.0218 84.1703 25.3285 83.4983 26.4858C82.845 27.6245 81.9303 28.5205 80.7543 29.1738C79.597 29.8272 78.281 30.1538 76.8063 30.1538ZM76.8063 27.8018C77.7583 27.8018 78.6077 27.5872 79.3543 27.1578C80.1197 26.7098 80.717 26.0938 81.1463 25.3098C81.5757 24.5072 81.7903 23.5925 81.7903 22.5658C81.7903 21.5392 81.5757 20.6338 81.1463 19.8498C80.717 19.0472 80.1197 18.4312 79.3543 18.0018C78.6077 17.5725 77.7583 17.3578 76.8063 17.3578C75.8543 17.3578 74.9957 17.5725 74.2303 18.0018C73.4837 18.4312 72.8863 19.0472 72.4383 19.8498C72.009 20.6338 71.7943 21.5392 71.7943 22.5658C71.7943 23.5925 72.009 24.5072 72.4383 25.3098C72.8863 26.0938 73.4837 26.7098 74.2303 27.1578C74.9957 27.5872 75.8543 27.8018 76.8063 27.8018ZM110.27 15.1458L104.726 29.9858H102.15L97.8656 18.7298L93.5256 29.9858H90.9496L85.4336 15.1458H87.9816L92.2936 26.9618L96.7736 15.1458H99.0416L103.438 27.0178L107.862 15.1458H110.27ZM120.921 15.0058C122.807 15.0058 124.3 15.5565 125.401 16.6578C126.521 17.7405 127.081 19.3365 127.081 21.4458V29.9858H124.393V21.7538C124.393 20.3165 124.048 19.2338 123.357 18.5058C122.667 17.7778 121.677 17.4138 120.389 17.4138C118.933 17.4138 117.785 17.8432 116.945 18.7018C116.105 19.5418 115.685 20.7552 115.685 22.3418V29.9858H112.997V15.1458H115.573V17.3858C116.115 16.6205 116.843 16.0325 117.757 15.6218C118.691 15.2112 119.745 15.0058 120.921 15.0058ZM149.304 10.3858V29.9858H146.504V21.2498H135.248V29.9858H132.448V10.3858H135.248V18.8138H146.504V10.3858H149.304ZM160.182 15.0058C162.236 15.0058 163.804 15.5098 164.886 16.5178C165.988 17.5258 166.538 19.0285 166.538 21.0258V29.9858H163.99V28.0258C163.542 28.7165 162.898 29.2485 162.058 29.6218C161.237 29.9765 160.257 30.1538 159.118 30.1538C157.457 30.1538 156.122 29.7525 155.114 28.9498C154.125 28.1472 153.63 27.0925 153.63 25.7858C153.63 24.4792 154.106 23.4338 155.058 22.6498C156.01 21.8472 157.522 21.4458 159.594 21.4458H163.85V20.9138C163.85 19.7565 163.514 18.8698 162.842 18.2538C162.17 17.6378 161.181 17.3298 159.874 17.3298C158.997 17.3298 158.138 17.4792 157.298 17.7778C156.458 18.0578 155.749 18.4405 155.17 18.9258L154.05 16.9098C154.816 16.2938 155.73 15.8272 156.794 15.5098C157.858 15.1738 158.988 15.0058 160.182 15.0058ZM159.566 28.0818C160.593 28.0818 161.48 27.8578 162.226 27.4098C162.973 26.9432 163.514 26.2898 163.85 25.4498V23.3778H159.706C157.429 23.3778 156.29 24.1432 156.29 25.6738C156.29 26.4205 156.58 27.0085 157.158 27.4378C157.737 27.8672 158.54 28.0818 159.566 28.0818ZM171.513 9.20984H174.201V29.9858H171.513V9.20984ZM179.333 9.20984H182.021V29.9858H179.333V9.20984Z" fill="white"/>
</svg>
