<svg width="47" height="40" viewBox="0 0 47 40" fill="none" xmlns="http://www.w3.org/2000/svg">
<path d="M11.1991 31.5071C11.1991 32.6117 12.0945 33.5071 13.1991 33.5071C14.3036 33.5071 15.1991 32.6117 15.1991 31.5071C15.1991 30.4025 14.3036 29.5071 13.1991 29.5071C12.0945 29.5071 11.1991 30.4025 11.1991 31.5071ZM13.1991 9.87204H13.5741V9.49704H13.1991V9.87204ZM1 9.87204H0.625V10.247H1V9.87204ZM1 2V1.625H0.625V2H1ZM32.0711 2H32.4461V1.625H32.0711V2ZM32.0711 9.87204V10.247H32.4461V9.87204H32.0711ZM21.6967 9.87204V9.49704H21.3217V9.87204H21.6967ZM21.6967 16.7536H21.3217V17.1286H21.6967V16.7536ZM34.0332 16.7536C34.0332 17.8581 34.9286 18.7536 36.0332 18.7536C37.1377 18.7536 38.0332 17.8581 38.0332 16.7536C38.0332 15.649 37.1377 14.7536 36.0332 14.7536C34.9286 14.7536 34.0332 15.649 34.0332 16.7536ZM13.5741 31.5071V9.87204H12.8241V31.5071H13.5741ZM13.1991 9.49704H1V10.247H13.1991V9.49704ZM1.375 9.87204V2H0.625V9.87204H1.375ZM1 2.375H32.0711V1.625H1V2.375ZM31.6961 2V9.87204H32.4461V2H31.6961ZM32.0711 9.49704H21.6967V10.247H32.0711V9.49704ZM21.3217 9.87204V16.7536H22.0717V9.87204H21.3217ZM21.6967 17.1286H36.0332V16.3786H21.6967V17.1286Z" fill="#66A5FF"/>
<path d="M11.459 37.9715C11.459 39.0761 12.3544 39.9715 13.459 39.9715C14.5636 39.9715 15.459 39.0761 15.459 37.9715C15.459 36.867 14.5636 35.9715 13.459 35.9715C12.3544 35.9715 11.459 36.867 11.459 37.9715ZM21.7481 37.9715V38.3465H22.1231V37.9715H21.7481ZM21.7481 24.3128V23.9378H21.3731V24.3128H21.7481ZM35.5633 24.3128H35.9383V23.9378H35.5633V24.3128ZM35.5633 37.9715H35.1883V38.3465H35.5633V37.9715ZM44.9993 37.9715V38.3465H45.3743V37.9715H44.9993ZM42.9993 2.2085C42.9993 3.31307 43.8947 4.2085 44.9993 4.2085C46.1038 4.2085 46.9993 3.31307 46.9993 2.2085C46.9993 1.10393 46.1038 0.208496 44.9993 0.208496C43.8947 0.208496 42.9993 1.10393 42.9993 2.2085ZM13.459 38.3465H21.7481V37.5965H13.459V38.3465ZM22.1231 37.9715V24.3128H21.3731V37.9715H22.1231ZM21.7481 24.6878H35.5633V23.9378H21.7481V24.6878ZM35.1883 24.3128V37.9715H35.9383V24.3128H35.1883ZM35.5633 38.3465H44.9993V37.5965H35.5633V38.3465ZM45.3743 37.9715V2.2085H44.6243V37.9715H45.3743Z" fill="#66A5FF"/>
</svg>
