<svg viewBox="0 0 22 4" fill="none" xmlns="http://www.w3.org/2000/svg">
<path d="M1.70156 3.51787C1.25712 3.51787 0.87934 3.36232 0.568229 3.0512C0.257118 2.74009 0.101563 2.36232 0.101562 1.91787C0.101562 1.47343 0.257118 1.09565 0.568229 0.784537C0.87934 0.473426 1.25712 0.317871 1.70156 0.317871C2.14601 0.317871 2.52379 0.473426 2.8349 0.784537C3.14601 1.09565 3.30156 1.47343 3.30156 1.91787C3.30156 2.36232 3.14601 2.74009 2.8349 3.0512C2.52379 3.36232 2.14601 3.51787 1.70156 3.51787ZM10.7682 3.51787C10.3238 3.51787 9.94601 3.36232 9.6349 3.0512C9.32378 2.74009 9.16823 2.36232 9.16823 1.91787C9.16823 1.47343 9.32378 1.09565 9.6349 0.784537C9.94601 0.473426 10.3238 0.317871 10.7682 0.317871C11.2127 0.317871 11.5905 0.473426 11.9016 0.784537C12.2127 1.09565 12.3682 1.47343 12.3682 1.91787C12.3682 2.36232 12.2127 2.74009 11.9016 3.0512C11.5905 3.36232 11.2127 3.51787 10.7682 3.51787ZM19.8349 3.51787C19.3905 3.51787 19.0127 3.36232 18.7016 3.0512C18.3905 2.74009 18.2349 2.36232 18.2349 1.91787C18.2349 1.47343 18.3905 1.09565 18.7016 0.784537C19.0127 0.473426 19.3905 0.317871 19.8349 0.317871C20.2793 0.317871 20.6571 0.473426 20.9682 0.784537C21.2793 1.09565 21.4349 1.47343 21.4349 1.91787C21.4349 2.36232 21.2793 2.74009 20.9682 3.0512C20.6571 3.36232 20.2793 3.51787 19.8349 3.51787Z" fill="white"/>
</svg>
