<svg width="32" height="32" viewBox="0 0 32 32" fill="none" xmlns="http://www.w3.org/2000/svg">
<rect width="32" height="32" rx="16" fill="#2E3035"/>
<path d="M15.25 22.15H16.75V18.925H20V17.425H16.75V14.175H15.25V17.425H12V18.925H15.25V22.15ZM9.5 26C9.1 26 8.75 25.85 8.45 25.55C8.15 25.25 8 24.9 8 24.5V7.5C8 7.1 8.15 6.75 8.45 6.45C8.75 6.15 9.1 6 9.5 6H18.525L24 11.475V24.5C24 24.9 23.85 25.25 23.55 25.55C23.25 25.85 22.9 26 22.5 26H9.5ZM17.775 12.15V7.5H9.5V24.5H22.5V12.15H17.775Z" fill="#5E6F80"/>
</svg>
