<svg viewBox="0 0 25 25" fill="none" xmlns="http://www.w3.org/2000/svg">
<path d="M16.4492 14.417C16.4492 15.2454 17.1207 15.917 17.9492 15.917C18.7776 15.917 19.4492 15.2454 19.4492 14.417C19.4492 13.5886 18.7776 12.917 17.9492 12.917C17.1207 12.917 16.4492 13.5886 16.4492 14.417Z" stroke="white" stroke-width="1.5"/>
<path d="M2.44922 11.917C2.44922 8.14575 2.44922 6.26014 3.6208 5.08856C4.79237 3.91699 6.67799 3.91699 10.4493 3.91699H14.4493C15.3792 3.91699 15.8442 3.91699 16.2257 4.01921C17.261 4.29661 18.0696 5.10526 18.347 6.14053C18.4493 6.52203 18.4493 6.98702 18.4493 7.91699M10.4493 7.91699H16.4493C19.2777 7.91699 20.6919 7.91699 21.5706 8.79567C22.4493 9.67435 22.4493 11.0886 22.4493 13.917V15.917C22.4493 18.7454 22.4493 20.1596 21.5706 21.0383C20.6919 21.917 19.2777 21.917 16.4493 21.917H12.9478" stroke="white" stroke-width="1.5" stroke-linecap="round"/>
<path d="M10.4473 17.917H6.44727M6.44727 17.917H2.44727M6.44727 17.917V21.917M6.44727 17.917V13.917" stroke="white" stroke-width="1.5" stroke-linecap="round"/>
</svg>
