<svg viewBox="0 0 17 21" fill="none" xmlns="http://www.w3.org/2000/svg">
<path d="M8.26758 12.0557C8.81758 12.0557 9.28841 11.8598 9.68008 11.4682C10.0717 11.0765 10.2676 10.6057 10.2676 10.0557C10.2676 9.50566 10.0717 9.03483 9.68008 8.64316C9.28841 8.2515 8.81758 8.05566 8.26758 8.05566C7.71758 8.05566 7.24674 8.2515 6.85508 8.64316C6.46341 9.03483 6.26758 9.50566 6.26758 10.0557C6.26758 10.6057 6.46341 11.0765 6.85508 11.4682C7.24674 11.8598 7.71758 12.0557 8.26758 12.0557ZM4.26758 16.0557H12.2676V15.4807C12.2676 15.0807 12.1592 14.714 11.9426 14.3807C11.7259 14.0473 11.4259 13.7973 11.0426 13.6307C10.6092 13.4473 10.1634 13.3057 9.70508 13.2057C9.24675 13.1057 8.76758 13.0557 8.26758 13.0557C7.76758 13.0557 7.28841 13.1057 6.83008 13.2057C6.37174 13.3057 5.92591 13.4473 5.49258 13.6307C5.10925 13.7973 4.80924 14.0473 4.59258 14.3807C4.37591 14.714 4.26758 15.0807 4.26758 15.4807V16.0557ZM14.7676 20.0557H1.76758C1.36758 20.0557 1.01758 19.9057 0.717578 19.6057C0.417578 19.3057 0.267578 18.9557 0.267578 18.5557V1.55566C0.267578 1.15566 0.417578 0.805664 0.717578 0.505664C1.01758 0.205664 1.36758 0.0556641 1.76758 0.0556641H9.66758C9.86758 0.0556641 10.0592 0.093164 10.2426 0.168164C10.4259 0.243164 10.5926 0.355664 10.7426 0.505664L15.8176 5.58066C15.9676 5.73066 16.0801 5.89733 16.1551 6.08066C16.2301 6.264 16.2676 6.45566 16.2676 6.65566V18.5557C16.2676 18.9557 16.1176 19.3057 15.8176 19.6057C15.5176 19.9057 15.1676 20.0557 14.7676 20.0557ZM14.7676 18.5557V6.70566L9.61758 1.55566H1.76758V18.5557H14.7676Z" />
</svg>
