<svg viewBox="0 0 19 19" fill="none" xmlns="http://www.w3.org/2000/svg">
<path d="M1.41211 6.40156C1.19544 6.40156 1.01628 6.33073 0.874609 6.18906C0.732943 6.0474 0.662109 5.86823 0.662109 5.65156V2.10156C0.662109 1.70156 0.812109 1.35156 1.11211 1.05156C1.41211 0.751563 1.76211 0.601562 2.16211 0.601562H5.71211C5.92878 0.601562 6.10794 0.672396 6.24961 0.814063C6.39128 0.955729 6.46211 1.1349 6.46211 1.35156C6.46211 1.56823 6.39128 1.7474 6.24961 1.88906C6.10794 2.03073 5.92878 2.10156 5.71211 2.10156H2.16211V5.65156C2.16211 5.86823 2.09128 6.0474 1.94961 6.18906C1.80794 6.33073 1.62878 6.40156 1.41211 6.40156ZM2.16211 18.6016C1.76211 18.6016 1.41211 18.4516 1.11211 18.1516C0.812109 17.8516 0.662109 17.5016 0.662109 17.1016V13.5516C0.662109 13.3349 0.732943 13.1557 0.874609 13.0141C1.01628 12.8724 1.19544 12.8016 1.41211 12.8016C1.62878 12.8016 1.80794 12.8724 1.94961 13.0141C2.09128 13.1557 2.16211 13.3349 2.16211 13.5516V17.1016H5.71211C5.92878 17.1016 6.10794 17.1724 6.24961 17.3141C6.39128 17.4557 6.46211 17.6349 6.46211 17.8516C6.46211 18.0682 6.39128 18.2474 6.24961 18.3891C6.10794 18.5307 5.92878 18.6016 5.71211 18.6016H2.16211ZM13.6121 18.6016C13.3954 18.6016 13.2163 18.5307 13.0746 18.3891C12.9329 18.2474 12.8621 18.0682 12.8621 17.8516C12.8621 17.6349 12.9329 17.4557 13.0746 17.3141C13.2163 17.1724 13.3954 17.1016 13.6121 17.1016H17.1621V13.5516C17.1621 13.3349 17.2329 13.1557 17.3746 13.0141C17.5163 12.8724 17.6954 12.8016 17.9121 12.8016C18.1288 12.8016 18.3079 12.8724 18.4496 13.0141C18.5913 13.1557 18.6621 13.3349 18.6621 13.5516V17.1016C18.6621 17.5016 18.5121 17.8516 18.2121 18.1516C17.9121 18.4516 17.5621 18.6016 17.1621 18.6016H13.6121ZM17.9121 6.40156C17.6954 6.40156 17.5163 6.33073 17.3746 6.18906C17.2329 6.0474 17.1621 5.86823 17.1621 5.65156V2.10156H13.6121C13.3954 2.10156 13.2163 2.03073 13.0746 1.88906C12.9329 1.7474 12.8621 1.56823 12.8621 1.35156C12.8621 1.1349 12.9329 0.955729 13.0746 0.814063C13.2163 0.672396 13.3954 0.601562 13.6121 0.601562H17.1621C17.5621 0.601562 17.9121 0.751563 18.2121 1.05156C18.5121 1.35156 18.6621 1.70156 18.6621 2.10156V5.65156C18.6621 5.86823 18.5913 6.0474 18.4496 6.18906C18.3079 6.33073 18.1288 6.40156 17.9121 6.40156Z"/>
</svg>
