<svg viewBox="0 0 231 233" fill="none" xmlns="http://www.w3.org/2000/svg">
<path d="M82.0717 28.847C79.8667 42.9833 87.588 43.6833 87.908 53.2558C88.018 56.5233 88.088 57.5345 85.9105 62.3857C84.898 64.642 81.8355 62.6457 81.7342 60.2582C81.6817 59.0132 81.5292 57.7932 81.4492 56.5745C81.3492 55.0695 76.4067 50.1957 75.743 47.1582C73.318 36.0645 82.0467 23.4507 82.0717 28.8457V28.847Z" fill="#38A1FF"/>
<path d="M38.4693 102.359C38.0806 96.8598 37.6893 98.9085 37.9243 96.6785C38.2843 93.2798 48.2056 102.674 45.3431 112.89C43.9981 117.69 43.7506 115.331 42.4118 121.865C42.1293 123.24 41.3968 124.378 40.4143 125.315C39.7118 125.986 38.0318 125.909 37.4568 125.03C35.6031 122.194 35.3268 121.995 35.2518 116.938C35.1918 112.865 38.3381 109.907 38.4681 102.36L38.4693 102.359Z" fill="#38A1FF"/>
<path d="M153.87 35.0715C152.963 46.5878 159.615 48.2728 158.695 57.2228C158.327 60.8015 153.637 64.149 152.34 60.724C150.73 56.4703 151.849 56.7028 150.265 53.3828C146.613 45.729 148.918 42.0103 151.848 35.3028C152.732 33.279 153.872 32.8615 153.872 35.069L153.87 35.0715Z" fill="#38A1FF"/>
<path fill-rule="evenodd" clip-rule="evenodd" d="M174.301 106.624C173.733 109.777 173.438 111.42 174.882 115.716L174.883 115.717C175.955 118.903 177.275 121.303 178.497 123.523C180.73 127.576 182.635 131.036 182.095 137.609C181.34 146.8 178.36 150.073 174.423 154.395C173.533 155.373 172.595 156.403 171.622 157.566C170.828 153.124 169.521 148.601 167.646 144.04L167.645 144.041C162.975 132.681 155.142 123.16 144.663 116.598L144.648 116.588C143.985 116.172 143.47 115.849 142.91 115.731C141.987 115.537 140.947 115.901 138.932 117.331C138.931 117.31 138.931 117.29 138.928 117.269C138.837 115.869 137.035 114.582 134.055 111.929C129.948 108.273 127.797 105.718 126.353 106.07C124.437 106.536 123.768 112.118 121.436 127.03C119.93 126.175 118.421 126.111 116.597 127.855C116.593 127.859 116.338 128.053 115.895 128.389C115.89 126.925 115.886 125.616 115.883 124.434C115.854 115.296 115.849 113.685 115.69 106.327C116.195 106.314 116.653 106.31 117.07 106.307C119.047 106.293 120.073 106.285 120.592 105.237C121.163 104.084 120.376 102.97 118.813 100.756C118.472 100.274 118.095 99.7393 117.687 99.141C117.308 98.5854 116.93 98.0116 116.555 97.4405C113.946 93.4797 111.425 89.6517 109.18 92.916C107.997 94.6347 106.977 96.0942 106.105 97.342C102.199 102.932 101.262 104.272 101.968 105.626C102.597 106.83 104.086 106.722 105.923 106.589C106.189 106.57 106.462 106.55 106.741 106.533C106.741 106.538 106.743 108.419 106.747 111.538C106.626 111.468 106.504 111.398 106.383 111.328L106.379 111.326C106.125 111.181 105.872 111.036 105.624 110.891C103.152 109.447 101.057 108.141 99.2866 107.038C93.144 103.212 90.899 101.813 90.2945 105.418C90.0696 106.758 89.8637 107.966 89.6781 109.056L89.6776 109.058C89.0752 112.595 88.685 114.886 88.542 116.41C88.1961 115.989 87.8382 115.55 87.4684 115.092C84.9942 112.031 81.2166 114.804 76.6996 118.119C76.2416 118.455 75.776 118.796 75.3034 119.139C70.3061 122.753 66.0205 127.161 62.51 132.116C61.4801 132.355 60.323 132.638 59.018 132.955C55.6369 133.78 51.2625 134.848 45.5352 136.018C44.6725 134.536 44.178 133.394 44.5395 127.234C44.8995 121.113 49.6757 108.712 52.4507 109.622C52.9539 109.787 52.8834 111.595 52.7897 113.999C52.5452 120.273 52.1429 130.6 61.3732 126.326C63.3745 125.4 64.0657 120.775 64.2007 118.519C64.3621 115.828 63.3185 113.07 62.2599 110.271C61.359 107.89 60.4474 105.48 60.2582 103.059C59.784 96.9903 61.0119 92.9088 62.2912 88.6563C63.4765 84.7162 64.706 80.6293 64.6667 74.6786C68.1592 73.9007 71.608 73.0505 74.8977 72.1315C75.9852 76.3022 75.87 81.6882 75.7636 86.6563C75.6674 91.1471 75.5786 95.2965 76.392 97.8981C78.7732 105.517 87.6045 104.966 88.6607 99.7143C89.2126 96.9705 87.6606 93.6939 85.9297 90.0394C83.0455 83.9496 79.6642 76.8107 84.692 69.3393C86.4751 66.6893 88.3015 65.6125 90.0982 64.553C91.8017 63.5485 93.4786 62.5596 95.067 60.2606C97.1445 57.2531 98.447 52.8918 97.5307 48.4843L97.5174 48.4197C95.6156 39.2697 93.2084 27.6871 97.4782 19.3031C99.886 14.576 101.764 7.0461 102.592 3.7299C102.736 3.15178 102.848 2.70172 102.926 2.41688C103.774 -0.698117 106.537 -0.129367 107.672 2.15688C109.593 6.0271 108.961 11.1898 108.254 16.9637C107.683 21.6237 107.063 26.6817 107.698 31.7793C109.781 48.5081 118.082 49.4943 118.385 45.6043C118.407 45.3133 118.277 44.7453 118.097 43.9536C117.295 40.4375 115.484 32.5085 121.523 24.8268C121.715 24.5835 121.91 24.2908 122.122 23.9738C122.972 22.7013 124.086 21.0345 126.245 20.5731C128.166 20.1618 129.46 21.4543 129.202 23.5556C129.127 24.1685 128.883 24.8678 128.551 25.8171C127.957 27.5183 127.082 30.0222 126.401 34.2681C125.278 41.258 129.833 44.8736 134.996 48.9708C141.191 53.889 148.261 59.501 147.437 72.4756C147.306 74.5435 146.121 78.0597 144.718 82.2175C141.513 91.7246 137.178 104.585 141.731 111.151C144.088 114.551 152.24 117.949 150.498 94.8356C149.842 86.1206 150.472 84.0193 153.456 78.1831C157.45 70.3744 161.823 72.0643 160.59 79.1431C160.533 79.4649 160.455 79.8192 160.362 80.2287C159.951 82.0648 159.292 85.0086 159.371 91.0743C159.401 93.4188 160.167 95.8393 161.006 98.4861C162.513 103.248 164.255 108.743 162.353 115.846C157.66 133.38 164.633 134.443 166.322 130.138C167.172 127.973 167.09 126.269 166.951 123.421C166.857 121.491 166.738 119.038 166.867 115.561C167.075 109.925 169.153 106.738 172.045 102.304L172.046 102.303C172.335 101.859 172.632 101.403 172.937 100.931C173.253 100.441 173.716 100.226 174.286 100.359C175.42 100.624 174.953 102.996 174.743 104.06V104.063L174.742 104.066C174.713 104.219 174.688 104.344 174.675 104.432C174.547 105.252 174.418 105.971 174.301 106.624ZM92.1079 120.665C94.9792 124.06 96.3591 125.766 96.3916 127.498C96.423 129.165 95.2045 130.856 92.8647 134.103C92.6437 134.409 92.4126 134.73 92.1716 135.066C93.4666 133.84 95.9429 132.198 99.9184 129.878C103.353 127.874 103.616 131.93 103.888 136.121C103.912 136.49 103.936 136.86 103.962 137.228C104.838 136.605 105.805 135.905 106.802 135.176C106.784 129.591 106.771 124.163 106.762 119.56C104.817 121.296 102.596 123.221 101.708 123.86L101.637 123.899C101.419 124.014 101.25 124.104 101.07 124.151C100.446 124.319 99.6891 123.985 96.3071 122.498C95.2112 122.015 93.8396 121.413 92.1079 120.665ZM71.5407 106.949C71.862 110.452 74.0295 111.188 77.1957 111.488C79.192 111.678 79.3145 109.967 78.2595 109.024C76.1996 107.185 75.2639 105.514 74.6102 104.347C73.995 103.249 73.6296 102.597 72.812 102.669C71.5932 102.778 71.432 105.757 71.5407 106.949ZM90.8055 70.5993C90.6189 70.887 90.4324 71.1742 90.217 71.4381C87.0357 75.3368 87.4932 81.9706 92.007 81.8931C96.1057 82.2818 97.2757 72.0856 95.6645 69.2343C94.887 67.8581 93.5932 68.2293 92.292 68.9743C91.6054 69.3671 91.205 69.984 90.8055 70.5993ZM133.223 71.9056C132.29 77.8969 139.408 80.1806 139.605 74.1881C139.715 70.8418 138.708 63.1593 135.61 62.1781C134.828 61.9306 133.688 62.3593 133.457 63.1118C132.75 65.4106 132.891 66.5303 133.071 67.9513C133.196 68.9497 133.341 70.0967 133.223 71.9056ZM151.432 115.172C150.27 116.369 150.785 117.194 151.458 118.05C153.718 120.926 156.931 116.494 156.827 112.733L156.806 112.52C156.611 110.603 156.466 109.179 155.141 108.972C153.798 108.762 153.451 110.068 153.035 111.634C152.711 112.854 152.345 114.232 151.432 115.172Z" fill="#38A1FF"/>
<path fill-rule="evenodd" clip-rule="evenodd" d="M145.917 217.515C148.008 220.959 150.451 224.405 152.627 227.201C152.909 227.564 153.171 227.903 153.414 228.218C156.262 231.896 156.677 232.431 158.541 231.74L158.542 231.743C175.811 225.344 195.857 214.84 207.929 206.556C208.421 206.218 208.603 205.933 207.773 205.051C200.852 197.706 193.683 187.466 189.849 180.616C189.181 179.423 186.904 180.761 181.154 184.145C177.852 186.089 173.403 188.706 167.456 191.905C166.996 192.928 166.508 193.935 165.993 194.928C167.442 194.173 168.977 193.363 170.602 192.494C174.777 190.263 184.158 185.151 188.058 182.43C188.837 181.888 189.416 182.92 190.785 185.359C192.852 189.044 196.721 195.939 205.801 205.464C205.895 205.563 205.978 205.626 205.991 205.701C206.047 206.041 204.662 206.621 196.359 211.768C185.138 218.725 171.239 224.73 160.813 229.235C159.787 229.679 158.794 230.108 157.841 230.521C157.633 230.676 157.426 230.468 157.269 230.156C155.957 228.271 154.731 226.62 153.542 225.021C151.509 222.284 149.589 219.699 147.547 216.358C147.009 216.751 146.466 217.138 145.917 217.515Z" fill="white"/>
<path d="M148.839 205.983C148.969 205.956 149.047 206.009 149.099 206.139C150.604 209.044 152.37 211.791 153.949 214.646C159.798 225.223 161.603 226.269 161.083 226.708C159.479 228.061 147.517 206.968 148.839 205.983Z" fill="white"/>
<path d="M154.727 204.608C156.802 206.656 159.589 212.529 164.636 220.249C166.86 223.651 167.07 223.384 166.789 223.699C165.235 225.441 154.467 206.631 154.727 204.608Z" fill="white"/>
<path fill-rule="evenodd" clip-rule="evenodd" d="M59.6858 198.95C54.1451 199.889 47.7812 200.836 40.4924 201.728C38.7199 201.946 38.8309 202.756 39.5145 207.751C39.5612 208.093 39.6107 208.454 39.6624 208.835C40.4111 214.36 42.5711 221.336 44.5386 226.551C44.6839 226.938 44.8195 227.299 44.9467 227.639C46.6201 232.104 46.8679 232.764 48.8449 232.648C63.4405 231.79 80.4838 228.956 93.8939 225.65C92.893 225.334 91.8934 224.988 90.896 224.611C90.8686 224.619 90.8411 224.626 90.8136 224.633C78.0718 227.995 63.0387 229.661 51.7581 230.911C50.6354 231.035 49.5499 231.156 48.5074 231.273L48.5061 231.271C48.2736 231.35 48.1436 231.09 48.0136 230.779C47.2911 228.519 46.5761 226.525 45.8828 224.591C43.8628 218.959 42.0267 213.839 40.7249 204.14C40.5982 203.194 40.6091 203.193 43.2081 202.989C45.7694 202.788 50.8442 202.389 60.778 200.693C60.4025 200.116 60.0384 199.535 59.6858 198.95Z" fill="white"/>
<path d="M47.1069 205.154C47.2369 205.154 47.2881 205.258 47.3144 205.361C47.8856 208.578 48.7681 211.716 49.4419 214.906C51.9369 226.734 53.3294 228.258 52.7106 228.524C50.7806 229.356 45.5769 205.724 47.1081 205.153L47.1069 205.154Z" fill="white"/>
<path d="M53.125 205.594C54.5 208.161 55.455 214.596 58.0275 223.44C59.1675 227.358 59.4513 227.145 59.065 227.383C57.08 228.605 52.295 207.435 53.125 205.594Z" fill="white"/>
<path fill-rule="evenodd" clip-rule="evenodd" d="M60.416 135.284C60.2967 135.313 60.1758 135.343 60.0535 135.371C52.226 137.266 38.4969 140.588 15.798 143.365C14.0255 143.583 14.1365 144.394 14.8202 149.388C14.8669 149.729 14.9164 150.09 14.968 150.473C15.7168 155.998 17.7955 162.741 19.8443 168.189C19.9854 168.564 20.1174 168.916 20.2417 169.248C21.9215 173.738 22.1695 174.401 24.1505 174.285C32.7688 173.779 42.234 172.585 51.3035 171.014C51.2777 170.47 51.2589 169.928 51.2472 169.385C42.704 170.814 34.1447 171.763 27.0638 172.548C25.941 172.671 24.8554 172.793 23.813 172.91L23.8118 172.909C23.553 172.988 23.4205 172.728 23.3193 172.416C22.6245 170.289 21.9429 168.395 21.2839 166.566C19.2085 160.804 17.3578 155.665 16.0305 145.778C15.9039 144.83 15.9148 144.829 18.5138 144.625C21.8909 144.36 29.638 143.751 47.1318 140.279C49.8634 139.736 54.6009 138.773 58.9642 137.775C59.4283 136.933 59.9123 136.103 60.416 135.284Z" fill="white"/>
<path d="M22.4129 146.816C22.5429 146.816 22.5942 146.92 22.6204 147.024C23.1917 150.24 24.0742 153.379 24.7479 156.569C27.2429 168.396 28.6354 169.92 28.0167 170.186C26.0867 171.019 20.8579 147.36 22.4142 146.815L22.4129 146.816Z" fill="white"/>
<path d="M28.4309 147.231C29.8059 149.799 30.7609 156.234 33.3334 165.078C34.4734 168.995 34.7346 168.786 34.3971 169.02C32.3734 170.265 27.6009 149.073 28.4309 147.231Z" fill="white"/>
<path d="M8.3551 75.5626C8.4851 75.5101 8.5376 75.5876 8.58885 75.6663C10.1988 78.1388 11.9638 80.5151 13.5951 82.9551C19.6763 92.0526 21.3726 92.8601 20.9363 93.3051C19.6001 94.6676 7.2401 76.5488 8.35635 75.5626H8.3551Z" fill="white"/>
<path d="M13.5424 73.8767C15.5661 75.563 18.5286 80.643 23.6586 87.2355C25.9174 90.1392 26.0936 89.878 25.8636 90.193C24.6236 91.8892 13.4649 75.7192 13.5424 73.878V73.8767Z" fill="white"/>
<path fill-rule="evenodd" clip-rule="evenodd" d="M15.4126 67.0238C11.4058 69.4389 6.83968 72.0744 1.63728 74.9139C0.20577 75.6953 0.56922 76.3328 2.84082 80.3174C2.99313 80.5846 3.15403 80.8668 3.32353 81.1652C5.81356 85.5489 9.95981 90.6877 13.3873 94.3939C13.6846 94.7153 13.9593 95.0143 14.2146 95.2918C17.0297 98.3541 17.4489 98.8102 19.0673 98.0514H19.0686C31.3492 92.2927 45.1784 84.0593 55.3624 76.5723C54.0737 76.8117 52.7929 77.0407 51.5262 77.2592C42.0238 84.3019 30.1099 90.6955 21.1147 95.523C20.1547 96.0382 19.2281 96.5356 18.3411 97.0139C18.1598 97.1689 17.9486 96.9902 17.7448 96.7527C16.6109 95.4306 15.5512 94.245 14.5308 93.1035C10.6397 88.7507 7.32081 85.038 2.64853 76.8314C2.21125 76.0635 2.2165 76.0609 4.43381 74.9529C6.31456 74.0132 9.78681 72.2782 15.9304 68.6066C15.7536 68.0802 15.5808 67.5526 15.4126 67.0238Z" fill="white"/>
<path d="M24.1505 77.8713C22.023 77.995 21.898 77.2213 19.8443 71.775C17.8768 66.56 15.7168 59.5838 14.968 54.0588C14.1605 48.0938 13.9043 47.1838 15.798 46.9513C56.6205 41.9575 68.4318 35.2 69.0768 38.1575C70.748 45.8325 74.5605 57.7238 79.063 66.7675C79.6055 67.8575 79.3468 68.0613 78.7518 68.2463C64.7205 72.6025 42.5118 76.805 24.1505 77.8713ZM23.813 76.4963C35.3293 75.1988 52.1093 73.5525 66.1193 69.8563C77.6593 66.8113 77.3306 67.2863 76.9881 66.5875C67.3556 46.9575 69.0505 38.6238 66.768 39.3513C62.228 40.8 51.7755 42.9563 47.1318 43.865C16.1593 49.9275 15.7405 47.1863 16.0305 49.3375C17.7893 62.3625 20.6293 67.0888 23.3193 75.9763C23.4293 76.3375 23.553 76.5988 23.8118 76.495L23.813 76.4963Z" fill="white"/>
<path d="M22.4139 50.4014C22.5439 50.4014 22.5952 50.5051 22.6214 50.6089C23.1927 53.8251 24.0752 56.9639 24.7489 60.1539C27.2439 71.9814 28.6364 73.5051 28.0177 73.7714C26.0877 74.6039 20.8589 50.9714 22.4152 50.4001L22.4139 50.4014Z" fill="white"/>
<path d="M28.4309 50.8164C29.8059 53.3839 30.7609 59.8189 33.3334 68.6627C34.4734 72.5802 34.7346 72.3714 34.3971 72.6052C32.3734 73.8502 27.6009 52.6839 28.4309 50.8164Z" fill="white"/>
<path d="M91.7998 207.461C92.0073 206.45 93.3536 203.318 94.2636 203.7C94.7036 203.885 94.6836 204.375 94.6011 204.841C94.0098 208.193 91.6186 209.691 91.7998 207.461Z" fill="white"/>
<path d="M136.337 205.463C136.39 206.5 135.533 206.604 135.17 206.085C131.591 200.975 135.17 200.586 136.337 205.463Z" fill="white"/>
<path d="M73.876 191.975C73.0972 192.001 72.9172 191.199 73.3572 190.808C74.086 190.161 76.641 188.093 77.2485 188.863C77.911 189.703 74.8622 191.845 73.876 191.975Z" fill="white"/>
<path d="M152.912 186.476C152.912 186.995 152.527 187.35 152.108 187.125C150.953 186.505 149.693 186.116 148.685 185.258C147.956 184.638 148.376 183.949 149.203 184.168C149.855 184.34 153.068 185.854 152.912 186.476Z" fill="white"/>
<path d="M153.301 151.511C154.08 151.459 154.342 152.006 153.976 152.471C153.667 152.863 153.951 152.681 150.76 154.054C150.033 154.366 149.645 153.535 150.111 153.12C151.071 152.265 152.316 151.953 153.301 151.511Z" fill="white"/>
<path d="M76.9619 138.489C77.1182 135.946 82.1769 141.491 79.9444 140.901C78.7519 140.586 77.9732 139.683 77.0657 138.93C76.9619 138.826 76.9619 138.645 76.9619 138.489Z" fill="white"/>
<path d="M69.5699 153.82C68.9212 151.381 75.4574 155.03 73.1499 155.169C71.9299 155.243 70.8937 154.648 69.8037 154.209C69.6737 154.156 69.6224 153.975 69.5699 153.82Z" fill="white"/>
<path d="M138.879 135.819C138.207 136.703 137.125 136.11 137.789 135.093C139.236 132.875 139.624 132.33 140.149 132.603C140.994 133.04 140.077 134.241 138.879 135.819Z" fill="white"/>
<path fill-rule="evenodd" clip-rule="evenodd" d="M106.82 140.248C105.483 141.2 104.192 142.116 103.032 142.924C101.64 144.184 101.585 144.163 94.8644 141.58C93.6955 141.131 92.3251 140.604 90.711 139.993C90.4763 139.904 90.2509 139.819 90.0346 139.738C85.8298 138.15 85.0643 137.861 86.1723 136.231C88.356 133.019 90.5348 130.041 92.086 128.139C92.341 127.824 92.3398 127.654 90.7885 125.908V125.905C90.5323 125.616 89.696 125.799 89.3623 126.19C89.2244 126.353 88.7638 126.618 88.0599 127.023C83.1445 129.851 66.3663 139.506 64.8235 168.366C65.0161 168.365 65.2023 168.363 65.3819 168.361C70.2575 168.313 70.4431 168.311 70.3998 170.286C70.381 171.116 70.036 171.479 69.2323 171.428C68.5758 171.386 67.9189 171.444 67.2621 171.5C66.6995 171.549 66.137 171.598 65.5748 171.584C63.4998 171.536 67.1348 202.104 97.3498 212.464C98.0003 212.688 98.669 212.85 99.3351 213.011C100.051 213.185 100.765 213.359 101.449 213.605C101.706 213.699 101.976 213.716 102.246 213.733C102.495 213.749 102.742 213.764 102.979 213.839C104.891 214.444 106.874 214.55 108.853 214.656C109.585 214.695 110.318 214.735 111.046 214.799C111.7 214.858 111.693 214.658 111.651 213.58C111.626 212.948 111.589 212.013 111.669 210.649C111.745 209.351 112.187 209.253 113.562 209.3C114.392 209.329 114.685 209.715 114.626 210.726C114.589 211.366 114.644 212.005 114.699 212.644C114.747 213.199 114.794 213.753 114.782 214.306C114.757 215.474 123.861 213.684 129.179 211.479C156.829 200.014 159.967 171.638 158.204 171.689L158.01 171.695C154.545 171.795 153.82 171.816 153.82 170.314C153.82 169.725 153.809 169.354 153.98 169.115C154.322 168.641 155.39 168.69 158.722 168.576C159.214 168.559 159.207 168.489 159.025 166.39C158.947 165.5 158.839 164.248 158.722 162.48C157.924 150.341 149.709 134.658 135.015 126.555C134.781 126.428 134.617 126.581 134.465 126.726C134.431 126.758 134.399 126.788 134.366 126.815C130.697 129.874 127.325 132.583 124.354 134.468C123.654 134.913 123.347 134.64 120.192 131.844C120.062 131.729 119.929 131.609 119.789 131.485C119.622 131.339 118.092 132.306 115.915 133.803C115.912 133.046 115.909 132.321 115.907 131.626C117.927 130.09 118.686 129.166 119.492 129.124C120.382 129.078 121.329 130.108 124.094 132.575C124.317 132.775 124.321 132.773 126.16 131.209C128.152 129.515 132.299 125.989 141.214 118.905C142.2 118.12 142.247 118.151 143.285 118.803C143.311 118.819 143.339 118.835 143.366 118.853L143.365 118.855C183.03 143.713 180.011 212.806 120.227 225.023C98.4373 229.475 67.766 216.276 57.2223 187.8C49.606 167.228 54.6548 137.27 76.8585 121.189C84.6106 115.575 84.97 116.022 85.4849 116.661L85.496 116.675C92.5461 125.434 94.0444 126.749 93.8479 127.723C93.7959 127.98 93.6251 128.214 93.4073 128.555C91.1473 132.095 89.6851 134.109 88.831 135.285C87.6346 136.933 87.6306 136.938 88.2973 137.193C92.7273 138.89 95.0048 139.773 100.877 142.146C101.259 142.301 103.871 140.51 106.813 138.366C106.815 138.993 106.817 139.62 106.82 140.248ZM75.926 124.403C44.806 150.268 48.9485 207.413 96.1323 221.518C135.972 233.428 174.251 198.381 167.282 158.46C163.865 138.888 153.236 129.446 147.959 124.759C147.18 124.066 146.517 123.479 146.012 122.976C145.571 122.538 145.052 122.23 144.531 121.921C144.161 121.701 143.79 121.481 143.445 121.213C142.977 120.85 142.726 120.604 142.445 120.563C141.777 120.465 140.94 121.528 136.622 124.948C136.107 125.356 136.139 125.375 137.032 125.898C137.62 126.24 138.577 126.799 139.995 127.826C155.149 138.818 162.282 156.463 160.305 172.7C158.314 189.043 152.392 196.384 142.251 205.824C141.554 206.474 137.582 209.065 137.401 209.17C109.02 225.578 75.2598 212.618 65.3435 182.194C58.6298 161.598 68.566 134.594 89.311 124.506C89.4168 124.455 89.5039 124.433 89.5366 124.376C89.6651 124.158 88.9519 123.444 85.2123 118.619C84.5673 117.786 79.7373 121.235 75.926 124.403Z" fill="white"/>
<path d="M122.511 128.476C125.961 106.558 126.015 106.452 127.569 107.856C138.09 117.356 138.359 116.959 137.14 118.23C135.375 120.071 134.555 120.424 124.377 128.916C123.304 129.813 122.717 130.161 122.51 128.475L122.511 128.476ZM126.791 109.127C125.987 118.828 123.554 127.783 124.535 127.024C125.135 126.56 135.17 117.971 135.196 117.971C135.949 117.349 135.911 117.883 128.322 110.476C127.876 110.041 127.387 109.672 126.791 109.127Z" fill="white"/>
<path d="M102.772 138.62C102.933 140.305 101.164 139.394 95.3019 137.894C91.3344 136.879 90.1606 136.985 100.567 130.968C102.377 129.921 102.071 131.303 102.772 138.62ZM94.2894 136.208C101.838 137.998 101.372 138.049 101.319 137.53C100.811 132.549 101.011 132.425 100.541 132.705C98.5544 133.891 96.5206 135.041 94.2894 136.208Z" fill="white"/>
<path fill-rule="evenodd" clip-rule="evenodd" d="M142.005 166.83C141.739 167.381 139.81 167.126 128.426 167.126V167.179C117.041 167.416 115.141 167.725 114.821 167.153C114.756 167.035 114.757 166.883 114.756 166.686C114.637 125.655 114.548 119.92 114.442 113.088C114.41 111.053 114.377 108.921 114.341 105.73C114.333 105.044 114.337 105.044 116.416 105.008C117.015 104.998 117.785 104.984 118.776 104.951C120.131 104.905 119.126 103.512 118.274 102.331C118.13 102.132 117.991 101.94 117.869 101.761C117.401 101.079 116.967 100.445 116.564 99.8546C111.826 92.9251 111.275 92.119 110.216 93.6684C104.726 101.703 102.595 104.329 103.13 105.095C103.476 105.592 104.941 105.309 107.337 105.211C107.512 105.204 107.642 105.198 107.739 105.252C108.119 105.466 107.975 106.611 107.96 112.257C108.403 112.532 108.821 112.813 109.189 113.1C109.185 112.913 109.181 112.728 109.178 112.544C109.107 108.891 109.05 105.93 109.05 104.51C109.05 104.368 109.051 104.266 109.006 104.193C108.843 103.931 108.083 104.042 104.538 104.042L111.177 94.3159C112.706 96.7425 114.334 99.0707 115.987 101.436C116.579 102.281 117.172 103.13 117.766 103.991C114.222 103.991 113.368 103.873 113.163 104.183C113.096 104.284 113.097 104.43 113.097 104.64C113.097 104.666 113.341 165.83 113.486 171.433C113.502 172.041 113.334 172.038 112.414 172.02C111.963 172.011 111.331 171.999 110.451 172.055C110.331 172.063 110.236 172.121 110.159 172.103C109.651 171.983 109.939 168.506 109.387 124.846C109.356 122.324 109.312 119.74 109.268 117.283C108.916 117.61 108.481 118.009 107.998 118.448C108.002 118.774 108.007 119.109 108.012 119.451C108.729 164.556 107.152 171.748 109.141 172.928C109.525 173.156 110.043 173.16 110.736 173.17C117.911 173.268 128.987 173.246 137.345 173.23C138.839 173.226 140.245 173.224 141.526 173.223C141.655 173.221 141.752 173.218 141.827 173.256C142.071 173.383 142.077 173.964 142.122 176.62C142.145 177.959 143.327 177.096 150.965 171.524C151.169 171.375 151.377 171.224 151.59 171.069C152.83 170.163 151.495 169.313 148.781 167.585C148.441 167.369 148.08 167.138 147.699 166.893C146.627 166.2 145.746 165.599 145.022 165.106C141.871 162.956 141.725 162.856 142.019 166.296C142.039 166.528 142.067 166.701 142.005 166.83ZM142.897 164.91C143.085 164.748 144.266 165.734 150.966 170.343L150.965 170.344L143.001 175.816C143.001 175.448 142.999 175.088 142.995 174.733C142.99 174.041 142.985 173.373 143.001 172.704C143.005 172.531 143.009 172.395 142.955 172.289C142.659 171.706 140.64 172 127.594 171.978C116.531 171.958 114.986 172.183 114.811 171.793C114.774 171.711 114.798 171.603 114.806 171.459C114.856 170.601 114.835 170.009 114.82 169.601C114.793 168.863 114.789 168.733 115.274 168.735C122.932 168.765 125.935 168.72 129.992 168.659C132.861 168.616 136.257 168.565 142.199 168.528C143.029 168.521 143.021 168.381 142.941 166.881C142.919 166.458 142.89 165.926 142.874 165.259C142.87 165.089 142.845 164.955 142.897 164.91Z" fill="white"/>
<path d="M101.008 122.745C100.437 123.056 100.851 123.034 92.1895 119.295C90.0882 118.388 89.5632 118.646 89.7257 117.531C90.527 112.002 90.702 110.5 91.542 105.625C91.927 103.394 92.4782 104.686 103.656 111.254C108.948 114.364 109.921 114.769 108.843 115.819C107.137 117.484 102.227 121.889 101.008 122.745ZM107.337 115.196L92.8632 106.299C91.1507 117.375 90.997 117.19 91.4882 117.426C100.513 121.761 100.354 121.441 100.826 121.006C101.904 120.009 101.759 120.176 107.337 115.196Z" fill="white"/>
<path d="M209.977 38.7028C217.617 39.2653 225.118 46.3078 229.406 52.684C231.011 55.0728 231.354 55.8515 230.573 56.9378C226.854 62.1115 225.397 69.759 204.582 86.5078C202.038 88.5553 195.946 91.7503 195.529 92.0065C193.696 93.1353 193.716 90.6815 191.068 87.1303C179.226 71.2478 171.898 71.749 171.173 70.8403C170.263 69.7003 171.147 69.9565 175.687 67.4165C202.166 52.5978 205.558 38.3765 209.978 38.7028H209.977ZM174.103 70.1403C180.121 72.164 185.603 77.1103 189.718 81.8903C195.827 88.9865 194.822 90.9078 195.918 90.2165C215.988 77.5628 229.771 56.9353 228.938 55.459C222.287 43.6478 210.034 38.7578 208.732 40.5703C204.211 46.8603 199.587 52.7228 193.636 57.7153C183.124 66.5328 174.389 69.7515 174.103 70.1403Z" fill="white"/>
<path d="M183.363 67.5726C189.122 68.4026 197.499 76.3263 198.9 81.9688C199.1 82.7751 198.122 83.0326 197.759 82.4613C196.823 80.9838 193.777 72.6826 183.363 68.6363C182.452 68.2826 182.688 67.5463 183.363 67.5726Z" fill="white"/>
<path d="M190.237 63.0081C197.698 63.6731 206.338 76.6855 204.503 77.4305C203.878 77.6843 203.718 77.0968 202.998 75.7968C200.222 70.7793 195.648 65.8155 190.184 64.1243C189.69 63.9718 189.204 63.8918 189.302 63.3981C189.384 62.9843 189.742 62.9656 190.235 63.0093L190.237 63.0081Z" fill="white"/>
</svg>
