<svg width="32" height="32" viewBox="0 0 32 32" fill="none" xmlns="http://www.w3.org/2000/svg">
<rect width="32" height="32" rx="16" fill="#2E3035"/>
<path d="M10.525 25C10.1125 25 9.75937 24.8531 9.46563 24.5594C9.17188 24.2656 9.025 23.9125 9.025 23.5V9.25H8V7.75H12.7V7H19.3V7.75H24V9.25H22.975V23.5C22.975 23.9 22.825 24.25 22.525 24.55C22.225 24.85 21.875 25 21.475 25H10.525ZM21.475 9.25H10.525V23.5H21.475V9.25ZM13.175 21.35H14.675V11.375H13.175V21.35ZM17.325 21.35H18.825V11.375H17.325V21.35Z" fill="#5E6F80"/>
</svg>
