<svg width="24" viewBox="0 0 24 24" fill="none" xmlns="http://www.w3.org/2000/svg">
<circle cx="12" cy="12" r="12" fill="#2E3035"/>
<path d="M17 7.66797L16.5869 14.3514C16.4813 16.0589 16.4285 16.9127 16.0005 17.5266C15.7889 17.83 15.5165 18.0862 15.2005 18.2786C14.5614 18.668 13.706 18.668 11.9951 18.668C10.2821 18.668 9.42553 18.668 8.78603 18.2779C8.46987 18.0851 8.19733 17.8285 7.98579 17.5245C7.55792 16.9097 7.5063 16.0547 7.40307 14.3448L7 7.66797" stroke="#5E6F80" stroke-width="1.5" stroke-linecap="round"/>
<path d="M18 7.66797H6" stroke="#5E6F80" stroke-width="1.5" stroke-linecap="round"/>
<path d="M14.7048 7.66536L14.2497 6.72652C13.9474 6.10287 13.7962 5.79104 13.5355 5.59657C13.4776 5.55343 13.4164 5.51506 13.3524 5.48183C13.0636 5.33203 12.7171 5.33203 12.024 5.33203C11.3136 5.33203 10.9583 5.33203 10.6648 5.48811C10.5997 5.5227 10.5377 5.56263 10.4792 5.60748C10.2154 5.80983 10.0681 6.13306 9.77342 6.77954L9.36963 7.66536" stroke="#5E6F80" stroke-width="1.5" stroke-linecap="round"/>
<path d="M10.3335 15V11" stroke="#5E6F80" stroke-width="1.5" stroke-linecap="round"/>
<path d="M13.6665 15V11" stroke="#5E6F80" stroke-width="1.5" stroke-linecap="round"/>
</svg>
