<svg viewBox="0 0 21 17" fill="none" xmlns="http://www.w3.org/2000/svg">
<path d="M2.41758 13.8057V1.55566C2.41758 1.15566 2.56758 0.805664 2.86758 0.505664C3.16758 0.205664 3.51758 0.0556641 3.91758 0.0556641H18.6676C18.8842 0.0556641 19.0634 0.126497 19.2051 0.268164C19.3467 0.409831 19.4176 0.588997 19.4176 0.805664C19.4176 1.02233 19.3467 1.2015 19.2051 1.34316C19.0634 1.48483 18.8842 1.55566 18.6676 1.55566H3.91758V13.8057H8.64258C8.95924 13.8057 9.22591 13.914 9.44258 14.1307C9.65924 14.3473 9.76758 14.614 9.76758 14.9307C9.76758 15.2473 9.65924 15.514 9.44258 15.7307C9.22591 15.9473 8.95924 16.0557 8.64258 16.0557H1.39258C1.07591 16.0557 0.809245 15.9473 0.592578 15.7307C0.375912 15.514 0.267578 15.2473 0.267578 14.9307C0.267578 14.614 0.375912 14.3473 0.592578 14.1307C0.809245 13.914 1.07591 13.8057 1.39258 13.8057H2.41758ZM12.2426 16.0557C11.9759 16.0557 11.7467 15.9557 11.5551 15.7557C11.3634 15.5557 11.2676 15.289 11.2676 14.9557V4.03066C11.2676 3.764 11.3634 3.53483 11.5551 3.34316C11.7467 3.1515 11.9759 3.05566 12.2426 3.05566H19.0426C19.3759 3.05566 19.6634 3.1515 19.9051 3.34316C20.1467 3.53483 20.2676 3.764 20.2676 4.03066V14.9557C20.2676 15.289 20.1467 15.5557 19.9051 15.7557C19.6634 15.9557 19.3759 16.0557 19.0426 16.0557H12.2426ZM12.7676 13.8057H18.7676V4.55566H12.7676V13.8057Z" />
</svg>
