<svg viewBox="0 0 25 25" fill="none" xmlns="http://www.w3.org/2000/svg">
<path d="M6.04981 4.82889C6.69765 4.33016 7.02158 4.0808 7.39546 3.9202C7.56499 3.84738 7.74125 3.78855 7.92217 3.74438C8.32118 3.64697 8.74428 3.64697 9.59047 3.64697H14.9447C15.7909 3.64697 16.214 3.64697 16.613 3.74438C16.7939 3.78855 16.9702 3.84738 17.1397 3.9202C17.5136 4.0808 17.8375 4.33016 18.4854 4.82889C20.632 6.48145 21.7054 7.30774 22.0733 8.37775C22.237 8.8537 22.2981 9.35425 22.2534 9.85158C22.1528 10.9697 21.3055 11.993 19.6109 14.0395L15.6174 18.8623C14.0802 20.7188 13.3116 21.647 12.2676 21.647C11.2236 21.647 10.455 20.7188 8.91776 18.8623L4.92429 14.0395C3.22966 11.993 2.38234 10.9697 2.28178 9.85158C2.23705 9.35425 2.29822 8.8537 2.46188 8.37775C2.82982 7.30774 3.90315 6.48145 6.04981 4.82889Z" stroke-width="1.5"/>
<path d="M10.2676 9.14697H14.2676" stroke-width="1.5" stroke-linecap="round" stroke-linejoin="round"/>
</svg>
