<svg viewBox="0 0 25 24" fill="none" xmlns="http://www.w3.org/2000/svg">
<path d="M17.0956 20.6989L14.6508 21.3462C12.3879 21.9453 11.2564 22.2448 10.3699 21.7542C9.48333 21.2636 9.18795 20.1744 8.59718 17.996L7.13512 12.6048C6.54436 10.4264 6.24898 9.33725 6.76846 8.4744C7.28794 7.61155 8.41941 7.312 10.6824 6.7129L14.6827 5.65384C16.9457 5.05474 18.0771 4.75519 18.9637 5.2458C19.8502 5.73642 20.1456 6.82561 20.7363 9.00398L22.2042 14.4166C22.4554 15.343 22.5811 15.8062 22.443 16.2417M17.0956 20.6989C17.8477 20.4998 17.8537 20.4966 18.4386 19.9948L21.1824 17.6404C21.9308 16.9983 22.305 16.6772 22.443 16.2417M17.0956 20.6989C17.0956 20.6989 17.6837 16.1058 19 15.5C20.4932 14.8128 22.443 16.2417 22.443 16.2417" stroke-width="1.5" stroke-linejoin="round"/>
<path d="M17.5 5.00118C17.4356 3.92779 17.2573 3.2521 16.7484 2.76762C15.9689 2.02553 14.718 2.02184 12.216 2.01444L7.79321 2.00137C5.29129 1.99398 4.04033 1.99028 3.26535 2.72777C2.49037 3.46526 2.49402 4.65592 2.50132 7.03725L2.51938 12.9307C2.52668 15.3121 2.53033 16.5027 3.30984 17.2448C4.08935 17.9869 5.34031 17.9906 7.84224 17.998L8.52306 18" stroke-width="1.5"/>
</svg>
