<svg viewBox="0 0 21 21" fill="none" xmlns="http://www.w3.org/2000/svg">
<path d="M10.7676 20.0557C9.38424 20.0557 8.08425 19.7932 6.86758 19.2682C5.65091 18.7432 4.59258 18.0307 3.69258 17.1307C2.79258 16.2307 2.08008 15.1723 1.55508 13.9557C1.03008 12.739 0.767578 11.439 0.767578 10.0557C0.767578 8.67233 1.03008 7.37233 1.55508 6.15566C2.08008 4.939 2.79258 3.88066 3.69258 2.98066C4.59258 2.08066 5.65091 1.36816 6.86758 0.843164C8.08425 0.318164 9.38424 0.0556641 10.7676 0.0556641C12.1509 0.0556641 13.4509 0.318164 14.6676 0.843164C15.8842 1.36816 16.9426 2.08066 17.8426 2.98066C18.7426 3.88066 19.4551 4.939 19.9801 6.15566C20.5051 7.37233 20.7676 8.67233 20.7676 10.0557C20.7676 11.439 20.5051 12.739 19.9801 13.9557C19.4551 15.1723 18.7426 16.2307 17.8426 17.1307C16.9426 18.0307 15.8842 18.7432 14.6676 19.2682C13.4509 19.7932 12.1509 20.0557 10.7676 20.0557ZM9.69258 18.5307V16.4807C9.10925 16.4807 8.61758 16.264 8.21758 15.8307C7.81758 15.3973 7.61758 14.889 7.61758 14.3057V13.2057L2.49258 8.08066C2.40924 8.414 2.35091 8.74316 2.31758 9.06816C2.28424 9.39316 2.26758 9.72233 2.26758 10.0557C2.26758 12.2223 2.97175 14.114 4.38008 15.7307C5.78841 17.3473 7.55925 18.2807 9.69258 18.5307ZM17.0426 15.8307C17.4092 15.4307 17.7301 15.0057 18.0051 14.5557C18.2801 14.1057 18.5134 13.6348 18.7051 13.1432C18.8967 12.6515 19.0384 12.1473 19.1301 11.6307C19.2217 11.114 19.2676 10.589 19.2676 10.0557C19.2676 8.289 18.7842 6.68483 17.8176 5.24316C16.8509 3.8015 15.5592 2.74733 13.9426 2.08066V2.53066C13.9426 3.114 13.7426 3.62233 13.3426 4.05566C12.9426 4.489 12.4509 4.70566 11.8676 4.70566H9.69258V6.88066C9.69258 7.164 9.58008 7.39733 9.35508 7.58066C9.13008 7.764 8.87591 7.85566 8.59258 7.85566H6.51758V10.0557H12.9676C13.2509 10.0557 13.4842 10.164 13.6676 10.3807C13.8509 10.5973 13.9426 10.8473 13.9426 11.1307V14.3057H15.0176C15.5009 14.3057 15.9259 14.4473 16.2926 14.7307C16.6592 15.014 16.9092 15.3807 17.0426 15.8307Z" />
</svg>
