<svg viewBox="0 0 12 9" fill="none" xmlns="http://www.w3.org/2000/svg">
<path d="M10.8125 4.97292L9.77708 3.9375L10.2 3.51458C10.2778 3.43681 10.3799 3.39792 10.5063 3.39792C10.6326 3.39792 10.7347 3.43681 10.8125 3.51458L11.2354 3.9375C11.3132 4.01528 11.3521 4.11736 11.3521 4.24375C11.3521 4.37014 11.3132 4.47222 11.2354 4.55L10.8125 4.97292ZM6 8.75V7.71458L9.15 4.56458L10.1854 5.6L7.03542 8.75H6ZM0.75 5.6875V4.8125H5.125V5.6875H0.75ZM0.75 3.28125V2.40625H7.60417V3.28125H0.75ZM0.75 0.875V0H7.60417V0.875H0.75Z" />
</svg>
