<svg width="24" viewBox="0 0 24 24" fill="none" xmlns="http://www.w3.org/2000/svg">
<circle cx="12" cy="12" r="12" fill="#2E3035"/>
<g clip-path="url(#clip0_1724_6404)">
<path d="M13.3826 6.589C13.8794 6.05075 14.1278 5.78163 14.3918 5.62465C15.0286 5.24587 15.8129 5.23409 16.4604 5.59358C16.7288 5.74256 16.9848 6.00411 17.4968 6.5272C18.0089 7.0503 18.265 7.31184 18.4108 7.58598C18.7627 8.24744 18.7512 9.04856 18.3804 9.69916C18.2267 9.9688 17.9632 10.2226 17.4364 10.73L11.1672 16.7682C10.1688 17.73 9.6695 18.2108 9.04554 18.4545C8.42158 18.6982 7.73563 18.6803 6.36374 18.6444L6.17708 18.6396C5.75944 18.6286 5.55061 18.6232 5.42922 18.4854C5.30783 18.3476 5.3244 18.1349 5.35755 17.7095L5.37555 17.4785C5.46884 16.281 5.51548 15.6824 5.7493 15.1442C5.98312 14.606 6.38646 14.169 7.19312 13.295L13.3826 6.589Z" stroke="#5E6F80" stroke-width="1.5" stroke-linejoin="round"/>
<path d="M12.6665 6.66797L17.3332 11.3346" stroke="#5E6F80" stroke-width="1.5" stroke-linejoin="round"/>
<path d="M13.3335 18.668H18.6668" stroke="#5E6F80" stroke-width="1.5" stroke-linecap="round" stroke-linejoin="round"/>
</g>
<defs>
<clipPath id="clip0_1724_6404">
<rect width="16" height="16" fill="white" transform="translate(4 4)"/>
</clipPath>
</defs>
</svg>
