<svg viewBox="0 0 10 11" fill="none" xmlns="http://www.w3.org/2000/svg">
<path d="M1.35449 10.25C1.2281 10.25 1.12359 10.2087 1.04095 10.1261C0.958312 10.0434 0.916992 9.93893 0.916992 9.81254V0.770874C0.916992 0.644485 0.958312 0.539971 1.04095 0.457332C1.12359 0.374694 1.2281 0.333374 1.35449 0.333374H5.56908C5.67602 0.333374 5.76838 0.364971 5.84616 0.428166C5.92394 0.49136 5.97255 0.57643 5.99199 0.683374L6.19616 1.58754H9.22949C9.35588 1.58754 9.46039 1.62886 9.54303 1.7115C9.62567 1.79414 9.66699 1.89865 9.66699 2.02504V6.54587C9.66699 6.67226 9.62567 6.77678 9.54303 6.85942C9.46039 6.94206 9.35588 6.98337 9.22949 6.98337H6.28366C6.18644 6.98337 6.09651 6.95421 6.01387 6.89587C5.93123 6.83754 5.88019 6.7549 5.86074 6.64796L5.65658 5.74379H1.79199V9.81254C1.79199 9.93893 1.75067 10.0434 1.66803 10.1261C1.58539 10.2087 1.48088 10.25 1.35449 10.25ZM6.67741 6.10837H8.79199V2.46254H5.45241L5.17533 1.20837H1.79199V4.86879H6.40033L6.67741 6.10837Z" />
</svg>
