<svg viewBox="0 0 20 20" fill="none" xmlns="http://www.w3.org/2000/svg">
<path d="M5.83268 5.41732H13.9577C15.7133 5.41732 16.591 5.41732 17.2216 5.83864C17.4946 6.02104 17.7289 6.25542 17.9113 6.52839C18.3327 7.15895 18.3327 8.03674 18.3327 9.79232C18.3327 10.0314 18.3331 10.0121 18.3327 10.4173M9.99935 5.41732L9.47152 4.36159C9.03418 3.48697 8.63452 2.60658 7.6654 2.24316C7.24093 2.08398 6.75603 2.08398 5.78624 2.08398C4.27252 2.08398 3.51565 2.08398 2.94773 2.40092C2.54291 2.62683 2.20887 2.96088 1.98295 3.3657C1.66602 3.93362 1.66602 4.69048 1.66602 6.20421V8.75065C1.66602 12.679 1.66602 14.6432 2.88641 15.8636C4.01727 16.9945 5.78679 17.0774 9.16602 17.0835" stroke-width="1.5" stroke-linecap="round"/>
<path d="M14.7554 17.4512C15.3834 18.0718 16.4017 18.0718 17.0297 17.4512C17.6577 16.8305 17.6577 15.8243 17.0297 15.2036L15.6082 13.7988C15.0531 13.2502 14.1931 13.1865 13.5672 13.6078M13.5792 11.7155C12.9512 11.0948 11.933 11.0948 11.305 11.7155C10.677 12.3362 10.677 13.3424 11.305 13.9631L12.7264 15.3678C13.2917 15.9266 14.1733 15.9823 14.8017 15.5351" stroke-width="1.5" stroke-linecap="round"/>
</svg>
