<svg width="25" height="25" viewBox="0 0 25 25" fill="none" xmlns="http://www.w3.org/2000/svg">
<path d="M14.8056 5.44721C15.816 3.84654 16.3212 3.0462 16.9832 2.8051C17.4388 2.63918 17.9382 2.63918 18.3938 2.8051C19.0558 3.0462 19.561 3.84654 20.5714 5.44721C21.7087 7.2489 22.2774 8.14974 22.1772 8.89305C22.1085 9.40288 21.8519 9.86865 21.4578 10.199C20.8832 10.6807 19.8183 10.6807 17.6885 10.6807C15.5587 10.6807 14.4938 10.6807 13.9192 10.199C13.5251 9.86865 13.2685 9.40288 13.1998 8.89305C13.0996 8.14974 13.6683 7.2489 14.8056 5.44721Z" stroke="white" stroke-width="1.5" stroke-linejoin="round"/>
<path d="M2.18848 6.68066C2.18848 5.01411 2.18848 4.18084 2.61289 3.59669C2.74995 3.40804 2.91586 3.24213 3.10451 3.10507C3.68866 2.68066 4.52193 2.68066 6.18848 2.68066C7.85503 2.68066 8.6883 2.68066 9.27245 3.10507C9.4611 3.24213 9.62701 3.40804 9.76407 3.59669C10.1885 4.18084 10.1885 5.01411 10.1885 6.68066C10.1885 8.34721 10.1885 9.18048 9.76407 9.76463C9.62701 9.95328 9.4611 10.1192 9.27245 10.2563C8.6883 10.6807 7.85503 10.6807 6.18848 10.6807C4.52193 10.6807 3.68866 10.6807 3.10451 10.2563C2.91586 10.1192 2.74995 9.95328 2.61289 9.76463C2.18848 9.18048 2.18848 8.34721 2.18848 6.68066Z" stroke="white" stroke-width="1.5" stroke-linejoin="round"/>
<path d="M17.6885 22.6807C19.8976 22.6807 21.6885 20.8898 21.6885 18.6807C21.6885 16.4715 19.8976 14.6807 17.6885 14.6807C15.4793 14.6807 13.6885 16.4715 13.6885 18.6807C13.6885 20.8898 15.4793 22.6807 17.6885 22.6807Z" stroke="white" stroke-width="1.5" stroke-linejoin="round"/>
<path d="M9.68842 15.1807L2.68848 22.1807M2.68854 15.1807L9.68848 22.1807" stroke="white" stroke-width="1.5" stroke-linecap="round" stroke-linejoin="round"/>
</svg>
