<svg viewBox="0 0 33 33" fill="none" xmlns="http://www.w3.org/2000/svg">
<path d="M20.3359 23.3472C19.2699 24.177 17.8695 24.6805 16.3359 24.6805C14.8023 24.6805 13.402 24.177 12.3359 23.3472" stroke-width="1.5" stroke-linecap="round"/>
<path d="M3.47047 18.2985C2.99978 15.2354 2.76443 13.704 3.34351 12.3463C3.92258 10.9887 5.20733 10.0597 7.77681 8.20191L9.69661 6.81383C12.893 4.50273 14.4912 3.34717 16.3353 3.34717C18.1794 3.34717 19.7776 4.50273 22.974 6.81383L24.8938 8.20191C27.4633 10.0597 28.748 10.9887 29.327 12.3463C29.9061 13.704 29.6708 15.2354 29.2001 18.2985L28.7988 20.9104C28.1314 25.2524 27.7978 27.4234 26.2406 28.7186C24.6834 30.0138 22.4069 30.0138 17.8537 30.0138H14.8169C10.2637 30.0138 7.98717 30.0138 6.42995 28.7186C4.87274 27.4234 4.53911 25.2524 3.87186 20.9104L3.47047 18.2985Z" stroke-width="1.5" stroke-linejoin="round"/>
</svg>
