<svg width="32" height="32" viewBox="0 0 32 32" fill="none" xmlns="http://www.w3.org/2000/svg">
<path d="M21.7442 5.8446C20.9562 5.8446 20.5621 5.8446 20.2032 5.71142C20.1533 5.69291 20.1042 5.67256 20.0558 5.65039C19.7078 5.49075 19.4293 5.21214 18.872 4.65491C17.5894 3.37238 16.9482 2.73111 16.1592 2.67198C16.0532 2.66403 15.9465 2.66403 15.8405 2.67198C15.0514 2.73111 14.4101 3.37238 13.1276 4.6549C12.5704 5.21214 12.2918 5.49075 11.9438 5.65039C11.8955 5.67256 11.8463 5.69291 11.7965 5.71142C11.4375 5.8446 11.0435 5.8446 10.2555 5.8446H10.1101C8.09954 5.8446 7.09428 5.8446 6.46969 6.4692C5.84509 7.09379 5.84509 8.09905 5.84509 10.1096V10.255C5.84509 11.043 5.84509 11.437 5.7119 11.796C5.6934 11.8458 5.67305 11.895 5.65088 11.9433C5.49124 12.2913 5.21262 12.5699 4.65538 13.1271C3.37286 14.4096 2.7316 15.0509 2.67246 15.84C2.66452 15.946 2.66452 16.0527 2.67246 16.1587C2.7316 16.9477 3.37286 17.5889 4.65538 18.8715C5.21262 19.4288 5.49124 19.7073 5.65088 20.0553C5.67305 20.1037 5.6934 20.1528 5.7119 20.2027C5.84509 20.5616 5.84509 20.9557 5.84509 21.7437V21.8891C5.84509 23.8996 5.84509 24.9049 6.46969 25.5295C7.09428 26.1541 8.09954 26.1541 10.1101 26.1541H10.2555C11.0435 26.1541 11.4375 26.1541 11.7965 26.2872C11.8463 26.3057 11.8955 26.3261 11.9438 26.3483C12.2918 26.508 12.5704 26.7865 13.1276 27.3437C14.4101 28.6263 15.0514 29.2676 15.8405 29.3267C15.9465 29.3347 16.0532 29.3347 16.1592 29.3267C16.9482 29.2676 17.5894 28.6263 18.872 27.3437C19.4293 26.7865 19.7078 26.508 20.0558 26.3483C20.1042 26.3261 20.1533 26.3057 20.2032 26.2872C20.5621 26.1541 20.9562 26.1541 21.7442 26.1541H21.8896C23.9001 26.1541 24.9054 26.1541 25.53 25.5295C26.1546 24.9049 26.1546 23.8996 26.1546 21.8891V21.7437C26.1546 20.9557 26.1546 20.5616 26.2877 20.2027C26.3062 20.1528 26.3266 20.1037 26.3488 20.0553C26.5085 19.7073 26.787 19.4288 27.3442 18.8715C28.6268 17.5889 29.2681 16.9477 29.3272 16.1587C29.3352 16.0527 29.3352 15.946 29.3272 15.84C29.2681 15.0509 28.6268 14.4096 27.3442 13.1271C26.787 12.5699 26.5085 12.2913 26.3488 11.9433C26.3266 11.895 26.3062 11.8458 26.2877 11.796C26.1546 11.437 26.1546 11.043 26.1546 10.255V10.1096C26.1546 8.09905 26.1546 7.09379 25.53 6.4692C24.9054 5.8446 23.9001 5.8446 21.8896 5.8446H21.7442Z" stroke="white" stroke-width="1.5"/>
<path d="M16.3231 21.3327V15.9993C16.3231 15.3708 16.3231 15.0565 16.1277 14.8612C15.9325 14.666 15.6183 14.666 14.9897 14.666" stroke="white" stroke-width="1.5" stroke-linecap="round" stroke-linejoin="round"/>
<path d="M15.9893 10.666H16.0013" stroke="white" stroke-width="2" stroke-linecap="round" stroke-linejoin="round"/>
</svg>
