<svg viewBox="0 0 12 6" fill="none" xmlns="http://www.w3.org/2000/svg">
<path d="M3.08366 5.91671C2.25727 5.91671 1.56456 5.63719 1.00553 5.07817C0.446506 4.51914 0.166992 3.82643 0.166992 3.00004C0.166992 2.17365 0.446506 1.48094 1.00553 0.921916C1.56456 0.362888 2.25727 0.083374 3.08366 0.083374H5.12533C5.25171 0.083374 5.35623 0.124694 5.43887 0.207332C5.52151 0.289971 5.56283 0.394485 5.56283 0.520874C5.56283 0.647263 5.52151 0.751777 5.43887 0.834416C5.35623 0.917055 5.25171 0.958374 5.12533 0.958374H3.08366C2.50033 0.958374 2.01421 1.15282 1.62533 1.54171C1.23644 1.9306 1.04199 2.41671 1.04199 3.00004C1.04199 3.58337 1.23644 4.06949 1.62533 4.45837C2.01421 4.84726 2.50033 5.04171 3.08366 5.04171H5.12533C5.25171 5.04171 5.35623 5.08303 5.43887 5.16567C5.52151 5.2483 5.56283 5.35282 5.56283 5.47921C5.56283 5.6056 5.52151 5.71011 5.43887 5.79275C5.35623 5.87539 5.25171 5.91671 5.12533 5.91671H3.08366ZM4.17741 3.43754C4.05102 3.43754 3.94651 3.39622 3.86387 3.31358C3.78123 3.23094 3.73991 3.12643 3.73991 3.00004C3.73991 2.87365 3.78123 2.76914 3.86387 2.6865C3.94651 2.60386 4.05102 2.56254 4.17741 2.56254H7.82324C7.94963 2.56254 8.05415 2.60386 8.13678 2.6865C8.21942 2.76914 8.26074 2.87365 8.26074 3.00004C8.26074 3.12643 8.21942 3.23094 8.13678 3.31358C8.05415 3.39622 7.94963 3.43754 7.82324 3.43754H4.17741ZM6.87533 5.91671C6.74894 5.91671 6.64442 5.87539 6.56178 5.79275C6.47915 5.71011 6.43783 5.6056 6.43783 5.47921C6.43783 5.35282 6.47915 5.2483 6.56178 5.16567C6.64442 5.08303 6.74894 5.04171 6.87533 5.04171H8.91699C9.50033 5.04171 9.98644 4.84726 10.3753 4.45837C10.7642 4.06949 10.9587 3.58337 10.9587 3.00004C10.9587 2.41671 10.7642 1.9306 10.3753 1.54171C9.98644 1.15282 9.50033 0.958374 8.91699 0.958374H6.87533C6.74894 0.958374 6.64442 0.917055 6.56178 0.834416C6.47915 0.751777 6.43783 0.647263 6.43783 0.520874C6.43783 0.394485 6.47915 0.289971 6.56178 0.207332C6.64442 0.124694 6.74894 0.083374 6.87533 0.083374H8.91699C9.74338 0.083374 10.4361 0.362888 10.9951 0.921916C11.5541 1.48094 11.8337 2.17365 11.8337 3.00004C11.8337 3.82643 11.5541 4.51914 10.9951 5.07817C10.4361 5.63719 9.74338 5.91671 8.91699 5.91671H6.87533Z" />
</svg>
