<svg viewBox="0 0 251 251" fill="none" xmlns="http://www.w3.org/2000/svg">
<path fill-rule="evenodd" clip-rule="evenodd" d="M205.286 28.8786C172.745 29.3911 38.6727 29.6699 5.13773 29.2436C3.14648 29.2186 2.99523 25.8249 5.05648 25.8249C39.6252 25.8674 159.126 25.2086 205.221 26.1999C207.44 26.2449 206.838 28.8536 205.286 28.8786Z" fill="white"/>
<path fill-rule="evenodd" clip-rule="evenodd" d="M165.355 126.344C163.11 127.314 160.724 127.918 158.288 128.136C158.522 130.998 158.491 133.876 158.196 136.733C158.164 136.887 158.078 137.025 157.954 137.122C157.83 137.219 157.676 137.27 157.518 137.264C157.361 137.258 157.211 137.197 157.094 137.091C156.977 136.985 156.902 136.842 156.881 136.686C156.647 134.732 157.193 132.616 156.8 128.232C153.876 128.311 152.506 127.404 149.937 127.056C143.549 126.183 137.41 124.005 131.901 120.656C131.737 120.53 131.629 120.345 131.601 120.141C131.573 119.937 131.626 119.73 131.75 119.564C137.402 112.662 141.748 104.787 144.576 96.3256C144.91 95.3693 146.016 94.0843 146.021 95.7306C146.035 99.9506 145.542 104.168 145.542 108.394C145.542 116.064 145.746 124.269 153.218 126.197C157.801 127.376 162.066 125.881 164.902 125.123C165.576 124.937 166.076 125.996 165.355 126.344Z" fill="white"/>
<path fill-rule="evenodd" clip-rule="evenodd" d="M154.538 109.933C153.883 111.201 156.115 111.051 157.454 111.115C157.623 111.129 157.782 111.203 157.901 111.322C158.021 111.442 158.095 111.601 158.109 111.77C158.124 111.939 158.077 112.107 157.979 112.246C157.881 112.384 157.737 112.483 157.573 112.525C156.687 112.644 155.788 112.593 154.921 112.375C153.374 112.054 152.193 111.484 153.035 109.75C153.58 108.58 154.199 107.445 154.888 106.354C154.972 106.222 155.102 106.125 155.253 106.081C155.403 106.038 155.565 106.05 155.707 106.117C155.849 106.184 155.962 106.3 156.025 106.444C156.087 106.588 156.096 106.749 156.048 106.899C155.622 107.947 155.117 108.961 154.538 109.933Z" fill="white"/>
<path fill-rule="evenodd" clip-rule="evenodd" d="M163.019 105.046C163.034 105.849 163.094 107.065 161.911 107.096C160.959 107.122 160.691 106.28 160.696 105.154C160.701 103.125 162.97 102.56 163.019 105.046Z" fill="white"/>
<path fill-rule="evenodd" clip-rule="evenodd" d="M151.867 104.995C151.847 105.763 151.521 106.486 150.635 106.45C149.895 106.42 149.628 105.42 149.65 104.761C149.681 103.789 149.987 103.293 150.602 103.158C151.546 102.95 151.893 104.033 151.867 104.995Z" fill="white"/>
<path fill-rule="evenodd" clip-rule="evenodd" d="M151.011 99.2702C150.516 99.213 150.014 99.2953 149.563 99.5077C149.112 99.7202 148.73 100.054 148.458 100.473C147.773 101.485 147.041 100.654 147.301 100.054C147.635 99.3244 148.194 98.7212 148.895 98.3329C149.597 97.9446 150.405 97.7916 151.201 97.8964C151.378 97.9267 151.537 98.0249 151.644 98.1703C151.75 98.3157 151.796 98.4968 151.772 98.6754C151.747 98.8539 151.654 99.0159 151.512 99.1269C151.37 99.2379 151.19 99.2893 151.011 99.2702Z" fill="white"/>
<path fill-rule="evenodd" clip-rule="evenodd" d="M161.193 99.0979C161.037 99.0969 160.887 99.0404 160.768 98.9385C160.65 98.8366 160.572 98.696 160.548 98.5417C160.524 98.3875 160.555 98.2297 160.637 98.0966C160.719 97.9635 160.845 97.8639 160.993 97.8154C161.947 97.6108 162.943 97.7584 163.797 98.2307C164.651 98.7031 165.305 99.4684 165.638 100.385C165.845 101.102 164.888 101.689 164.526 100.885C164.238 100.267 163.758 99.7588 163.157 99.4365C162.557 99.1142 161.867 98.9954 161.193 99.0979Z" fill="white"/>
<path fill-rule="evenodd" clip-rule="evenodd" d="M155.238 116.656C155.776 117.867 156.73 118.844 157.927 119.411C159.123 119.978 160.484 120.096 161.761 119.745C163.078 119.32 164.184 118.411 164.857 117.202C165.53 115.992 165.719 114.573 165.386 113.23C165.233 112.605 164.673 112.387 164.001 112.917C161.187 115.135 159.105 115.481 155.78 115.536C155.24 115.545 154.923 116.029 155.238 116.656Z" fill="white"/>
<path fill-rule="evenodd" clip-rule="evenodd" d="M64.3117 140.73C64.6092 141.294 63.7767 141.899 63.3117 141.48C60.6204 139.044 55.6929 135.605 54.3029 132.355C52.4279 127.98 53.4517 122.501 49.7417 118.961C49.6079 118.847 49.5234 118.685 49.5055 118.51C49.4876 118.335 49.5378 118.16 49.6457 118.021C49.7536 117.882 49.9108 117.79 50.0849 117.764C50.2589 117.737 50.4364 117.779 50.5804 117.88C54.6804 120.764 53.9029 126.41 55.8017 130.505C57.7267 134.651 62.2017 136.741 64.3117 140.73Z" fill="white"/>
<path fill-rule="evenodd" clip-rule="evenodd" d="M36.8908 134.345C33.0662 133.586 29.4889 131.893 26.4783 129.415C25.5121 128.564 26.6696 127.877 27.3746 128.354C30.3687 130.469 33.7954 131.893 37.4071 132.522C40.9322 133.044 44.5209 132.952 48.0146 132.25C48.8758 132.135 48.8571 133.395 48.2646 133.75C45.5696 135.369 39.9158 135.011 36.8908 134.345Z" fill="white"/>
<path fill-rule="evenodd" clip-rule="evenodd" d="M20.9955 132.397C20.4605 131.81 21.3605 131.032 21.948 131.457C25.9596 134.535 30.5656 136.748 35.4755 137.957C39.3105 138.832 38.2467 140.627 34.8042 139.917C29.5296 138.912 24.7014 136.282 20.9955 132.397Z" fill="white"/>
<path fill-rule="evenodd" clip-rule="evenodd" d="M35.8957 146.094C31.3394 145.83 25.0294 143.73 21.6094 140.733C21.4892 140.623 21.412 140.474 21.3919 140.313C21.3719 140.151 21.4101 139.988 21.4999 139.852C21.5896 139.716 21.7249 139.617 21.8814 139.572C22.0379 139.527 22.2052 139.54 22.3532 139.608C27.5519 142.155 30.3244 143.449 36.1344 144.17C39.5069 144.59 39.4082 146.298 35.8957 146.094Z" fill="white"/>
<path fill-rule="evenodd" clip-rule="evenodd" d="M56.0341 151.927C56.9504 152.552 55.9091 154.091 54.9754 153.538C50.0479 150.637 44.4367 152.413 39.0842 152.404C33.8652 152.493 28.7524 150.925 24.4804 147.926C23.8642 147.464 24.5429 146.542 25.1942 146.841C30.0855 149.311 35.5185 150.514 40.9954 150.341C46.0542 150.034 51.5366 148.864 56.0341 151.927Z" fill="white"/>
<path fill-rule="evenodd" clip-rule="evenodd" d="M245.67 225.836C195.638 226.445 53.1871 225.191 22.7596 224.836C20.7996 224.814 19.2446 222.601 22.7033 222.586C61.8283 222.385 187.405 222.432 245.597 222.969C247.888 222.984 247.895 225.809 245.67 225.836Z" fill="#38A1FF"/>
<path fill-rule="evenodd" clip-rule="evenodd" d="M149.263 135.396C138.263 137.146 117.193 148.908 105.719 164.081C116.594 162.435 148.669 162.154 157.886 163.235C154.418 159.012 150.578 155.109 146.411 151.573C148.011 149.739 149.516 148.313 150.833 147.058C148.199 145.433 143.869 142.84 141.958 141.948C144.123 139.48 146.575 137.281 149.263 135.396Z" fill="#38A1FF"/>
<path fill-rule="evenodd" clip-rule="evenodd" d="M173.313 147.621C174.724 149.027 175.927 150.627 176.886 152.371C173.03 154.581 165.551 158.72 161.037 163.516C165.347 164.081 168.162 166.173 169.662 172.516C170.307 175.238 171.197 179.604 172.08 184.505C180.246 182.72 188.548 181.623 196.897 181.224C195.432 177.472 193.474 173.933 191.073 170.699C190.558 170.018 191.513 169.153 192.082 169.814C194.981 173.141 197.224 176.987 198.693 181.149C202.433 180.928 206.185 180.981 209.917 181.308C210.767 181.404 210.777 182.675 209.897 182.654C197.292 182.243 184.686 183.431 172.38 186.189C173.636 193.354 174.818 201.36 175.19 206.966C194.565 206.778 225.997 216.351 230.868 204.803C241.778 178.939 208.643 138.118 185.067 134.544C187.057 137.298 188.451 140.438 189.158 143.761C186.576 144.658 176.701 147.009 173.313 147.621Z" fill="#38A1FF"/>
<path fill-rule="evenodd" clip-rule="evenodd" d="M158.81 154.959C154.847 145.07 154.955 139.807 153.825 134.959C153.799 134.792 153.71 134.641 153.576 134.538C153.441 134.434 153.273 134.386 153.104 134.404C152.936 134.421 152.781 134.503 152.671 134.632C152.561 134.76 152.505 134.926 152.514 135.095C152.474 140.947 155.455 150.693 157.876 156.297C157.953 156.432 158.06 156.548 158.19 156.634C158.32 156.721 158.468 156.775 158.623 156.793C158.778 156.812 158.935 156.793 159.081 156.739C159.227 156.686 159.359 156.598 159.465 156.484C167.306 145.595 171.224 141.662 180.215 134.678C180.355 134.579 180.451 134.429 180.483 134.261C180.515 134.093 180.481 133.919 180.387 133.775C180.293 133.631 180.148 133.53 179.981 133.491C179.813 133.453 179.638 133.481 179.491 133.569C171.147 139.138 164.094 146.432 158.81 154.959Z" fill="#38A1FF"/>
<path fill-rule="evenodd" clip-rule="evenodd" d="M95.0577 165.21C87.3452 160.508 74.2715 148.939 68.9115 141.62C63.525 147.114 58.733 153.162 54.6152 159.661C64.3727 174.051 79.8252 189.575 89.509 194.085C88.384 189.288 88.0977 176.026 88.384 171.794C88.6702 167.561 91.8602 165.869 95.0577 165.21Z" fill="#38A1FF"/>
<path fill-rule="evenodd" clip-rule="evenodd" d="M50.8643 164.992C53.2568 164.892 52.0268 163.214 51.0068 163.194C37.3818 162.927 22.7793 162.594 12.5068 162.754C13.3006 103.395 12.8256 65.9416 13.1506 32.4954C13.1593 31.6091 11.8306 31.7454 11.7906 32.5891C10.4931 59.7804 11.2906 133.005 10.2906 162.552C10.2556 163.564 10.3256 164.21 12.5156 164.308C18.6493 164.583 24.6268 164.594 30.7956 164.7C36.4643 164.799 45.3706 165.222 50.8643 164.992Z" fill="#38A1FF"/>
<path fill-rule="evenodd" clip-rule="evenodd" d="M200.137 106.075C200.738 93.888 200.551 81.5392 200.606 69.3255C200.638 62.1055 200.966 42.7205 200.884 33.2067C200.871 31.5592 199.172 32.498 199.154 33.3317C198.826 49.4855 197.974 89.8205 198.592 106.093C198.644 107.463 200.076 107.443 200.137 106.075Z" fill="#38A1FF"/>
<path fill-rule="evenodd" clip-rule="evenodd" d="M32.2591 68.8255C32.2591 64.863 32.2929 60.903 32.2591 56.9405C50.1066 56.838 67.9654 56.7367 85.8104 56.4142C85.8254 59.8817 85.8104 63.3492 85.8104 66.8167C68.7641 67.253 51.3329 67.8955 34.2354 68.2017C33.1341 68.2217 33.3129 69.8667 34.3779 69.8805C51.6416 70.0892 69.4354 68.988 86.7529 68.5392C86.982 68.5155 87.1931 68.4039 87.3417 68.228C87.4904 68.052 87.5652 67.8254 87.5504 67.5955C87.5504 63.5467 87.5366 59.4967 87.5641 55.448C87.5398 55.2171 87.427 55.0046 87.2494 54.855C87.0719 54.7054 86.8433 54.6303 86.6116 54.6455C68.1729 54.6567 49.7216 54.908 31.2829 55.1542C31.0471 55.1786 30.83 55.2934 30.6771 55.4745C30.5242 55.6556 30.4474 55.889 30.4629 56.1255C30.5654 60.4005 30.7829 64.6655 30.9304 68.938C30.9516 69.8067 32.2579 69.6842 32.2591 68.8255Z" fill="#38A1FF"/>
<path fill-rule="evenodd" clip-rule="evenodd" d="M31.2181 97.3968C49.8581 96.6693 69.0494 96.5843 87.5756 95.308C87.7113 95.3111 87.8459 95.284 87.9697 95.2287C88.0936 95.1733 88.2035 95.091 88.2916 94.9878C88.3797 94.8847 88.4437 94.7632 88.479 94.6322C88.5143 94.5012 88.52 94.364 88.4956 94.2305C88.1681 91.588 87.8394 88.9455 87.4956 86.3055C87.3519 85.2093 85.7069 85.5843 85.8269 86.6605C86.0769 88.9543 86.3544 91.2468 86.6269 93.5355C68.5294 94.2993 50.2719 94.8155 32.2519 95.393C32.2519 91.8093 32.2331 88.2205 32.3344 84.643C50.5531 84.4543 68.4594 84.1593 86.8781 84.3093C87.0558 84.3122 87.2277 84.246 87.3574 84.1246C87.4872 84.0033 87.5647 83.8362 87.5737 83.6588C87.5826 83.4813 87.5222 83.3073 87.4052 83.1735C87.2883 83.0397 87.1239 82.9566 86.9469 82.9418C68.4569 82.0905 49.8894 82.4655 31.3219 82.503C31.178 82.4953 31.0339 82.5161 30.8981 82.5642C30.7623 82.6124 30.6373 82.687 30.5304 82.7836C30.4235 82.8803 30.3368 82.9972 30.2753 83.1275C30.2137 83.2578 30.1786 83.3991 30.1719 83.543C30.3256 87.8093 30.2681 92.0905 30.2831 96.3618C30.2735 96.6221 30.3658 96.8759 30.5404 97.0692C30.715 97.2625 30.9582 97.38 31.2181 97.3968Z" fill="#38A1FF"/>
<path fill-rule="evenodd" clip-rule="evenodd" d="M86.0429 122.429C77.0929 122.547 65.7066 122.37 56.5254 122.804C55.7566 122.84 55.7916 124.407 56.5454 124.42C64.8116 124.561 77.3216 124.152 86.8779 124.354C87.9341 124.376 87.9829 123.354 87.8591 122.594C87.2421 118.863 87.2087 115.059 87.7604 111.319C87.7858 111.184 87.7808 111.045 87.7455 110.912C87.7102 110.779 87.6456 110.656 87.5566 110.552C87.4675 110.448 87.3561 110.364 87.2307 110.309C87.1052 110.253 86.9689 110.226 86.8316 110.23C68.6466 110.66 50.4566 111.332 32.2729 111.624C32.0284 111.64 31.7999 111.751 31.6354 111.933C31.4708 112.114 31.383 112.352 31.3904 112.597C31.3579 116.532 31.3654 120.472 31.3379 124.402C31.3549 124.661 31.4719 124.903 31.6641 125.077C31.8563 125.252 32.1086 125.344 32.3679 125.336C37.6179 125.144 41.7516 125.172 47.0029 124.849C47.8779 124.795 47.8041 123.216 46.9366 123.214C42.0141 123.2 38.2179 123.254 33.2966 123.356C33.2779 120.055 33.2741 116.754 33.2516 113.452C50.7791 112.827 68.3204 112.552 85.8516 112.062C85.4415 115.51 85.5058 118.998 86.0429 122.429Z" fill="#38A1FF"/>
<path fill-rule="evenodd" clip-rule="evenodd" d="M128.536 134.084C129.364 134.28 129.589 132.952 128.786 132.717C120.033 129.928 112.691 123.873 108.286 115.81C98.1225 97.6578 104.411 73.8691 120.924 61.8016C135.549 51.1128 166.966 51.3303 177.096 68.8016C177.709 69.8578 179.3 69.2803 178.79 68.1566C170.87 50.7003 138.725 48.2003 122.961 57.8253C104.4 69.1628 95.7913 93.6828 104.986 113.779C109.611 123.889 118.201 131.637 128.536 134.084Z" fill="#38A1FF"/>
<path fill-rule="evenodd" clip-rule="evenodd" d="M199.991 137.743C200.309 135.048 200.026 127.868 200.038 123.667C200.038 122.159 198.623 122.713 198.571 123.344C198.271 128.14 198.258 132.949 198.534 137.746C198.59 138.462 199.909 138.451 199.991 137.743Z" fill="#38A1FF"/>
<path fill-rule="evenodd" clip-rule="evenodd" d="M204.474 211.673C197.012 210.798 181.54 209.839 171.492 209.673C171.492 203.904 165.975 170.923 162.464 168.164C159.101 165.521 95.311 165.029 92.6773 170.039C89.2148 176.634 94.9373 217.491 98.0973 218.57C103.239 220.32 200.959 220.029 205.222 219.695C207.451 219.526 207.769 212.056 204.474 211.673ZM112.369 172.099C108.664 172.486 105.119 172.999 101.424 173.54C98.2248 174.009 97.9985 174.679 97.651 177.749C97.2106 181.394 96.9993 185.063 97.0185 188.735C97.0185 189.516 95.8823 189.721 95.7785 188.899C95.3002 184.685 95.3321 180.43 95.8735 176.224C96.231 173.464 97.2485 172.224 99.9985 171.663C104.065 170.841 108.215 170.516 112.36 170.693C112.528 170.717 112.682 170.801 112.794 170.93C112.905 171.058 112.967 171.222 112.968 171.392C112.969 171.562 112.909 171.727 112.799 171.857C112.689 171.986 112.536 172.072 112.369 172.099ZM128.701 200.01C126.057 200.51 123.194 199.08 122.162 195.048C121.266 191.548 122.912 188.906 125.82 188.163C132.782 186.383 135.326 198.744 128.701 200.01Z" fill="white"/>
<path fill-rule="evenodd" clip-rule="evenodd" d="M200.976 116.557C189.088 104.779 196.175 88.2648 188.572 80.2735C187.134 78.7236 185.193 77.7347 183.094 77.4829C180.995 77.231 178.874 77.7327 177.111 78.8985C171.255 69.3748 159.31 67.0698 149.14 70.2385C138.056 73.6923 134.085 87.2235 142.982 91.5785C147.645 93.861 164.013 94.0548 169.131 93.0635C169.54 97.3009 171.125 101.34 173.707 104.725C173.972 105.044 174.342 105.485 174.782 105.1C175.258 104.671 175.818 104.346 176.426 104.145C177.034 103.943 177.677 103.871 178.314 103.931C178.952 103.991 179.57 104.184 180.13 104.495C180.689 104.807 181.178 105.232 181.565 105.742C181.92 106.268 182.169 106.859 182.295 107.48C182.422 108.102 182.425 108.743 182.303 109.366C182.182 109.989 181.938 110.582 181.587 111.11C181.235 111.639 180.783 112.093 180.256 112.446C178.727 113.457 177.637 113.31 175.925 113.224C175.388 113.197 175.288 113.646 175.252 114.056C174.723 120.011 174.137 126.806 175.046 132.729C175.069 132.893 175.156 133.042 175.287 133.143C175.419 133.245 175.585 133.291 175.75 133.272C175.915 133.253 176.066 133.171 176.171 133.042C176.276 132.913 176.326 132.749 176.312 132.584C176.325 130.979 176.265 129.374 176.212 127.767C184.581 128.704 195.177 123.809 201.001 118.212C201.923 117.336 201.263 116.842 200.976 116.557ZM155.951 75.8123C153.91 75.7756 151.892 76.2341 150.067 77.1485C148.041 78.121 144.601 80.5385 144.832 83.0735C144.901 83.8335 143.808 84.2985 143.525 83.5148C142.156 79.7373 145.966 76.786 148.506 75.3998C150.768 74.1651 153.303 73.5142 155.881 73.506C159.178 73.5098 157.817 75.891 155.951 75.8123Z" fill="white"/>
</svg>
