<svg viewBox="0 0 20 21" fill="none" xmlns="http://www.w3.org/2000/svg">
<path d="M12.1666 17.3576L6.36222 18.4356C5.24891 18.6423 4.69225 18.7456 4.37157 18.425C4.05088 18.1043 4.15425 17.5476 4.36099 16.4342L5.43883 10.6296C5.61168 9.69881 5.69809 9.23339 6.0049 8.95222C6.3117 8.67097 6.8728 8.61613 7.99499 8.50637C9.07658 8.40059 10.1001 8.02982 11.167 6.96289L15.8337 11.63C14.7667 12.6969 14.3958 13.7198 14.2898 14.8014C14.1799 15.9237 14.1249 16.4849 13.8437 16.7916C13.5626 17.0984 13.0972 17.1848 12.1666 17.3576Z" stroke-width="1.5" stroke-linejoin="round"/>
<path d="M10.8333 13.805C10.3671 13.7293 9.94075 13.5265 9.60525 13.191M9.60525 13.191C9.26975 12.8555 9.06692 12.4291 8.99125 11.9629M9.60525 13.191L5 17.7962" stroke-width="1.5" stroke-linecap="round"/>
<path d="M11.25 6.96289C11.7777 6.18444 12.9089 4.59712 13.9677 4.47102C14.6906 4.38496 15.2893 4.98372 16.4868 6.18124L16.615 6.30939C17.8125 7.50692 18.4112 8.10568 18.3252 8.82847C18.1991 9.88722 16.6117 11.0186 15.8333 11.5462" stroke-width="1.5" stroke-linejoin="round"/>
<path d="M4.16699 6.96289V1.96289M1.66699 4.46289H6.66699" stroke-width="1.5" stroke-linecap="round"/>
</svg>
