<svg viewBox="0 0 213 180" fill="none" xmlns="http://www.w3.org/2000/svg">
<path d="M11.8188 101.816C9.82176 101.905 9.78434 101.858 8.92847 99.9326C6.78177 95.1102 5.03729 90.1421 3.52665 85.0849C2.47435 81.5678 1.84764 77.9615 1.02451 74.3975C0.94968 74.0688 1.21159 73.6649 0.991772 73.3034C1.12273 73.1155 1.09934 72.9465 0.926295 72.7962C0.87485 72.4112 0.823404 72.0308 0.767281 71.6505C0.893557 71.364 0.879526 71.1011 0.655035 70.8616C0.603589 70.3216 0.552144 69.7816 0.496021 69.2416C0.631651 68.9833 0.622297 68.7438 0.393129 68.5325C-0.186807 64.0294 0.0376846 59.498 0.0797767 54.9855C0.0984843 53.126 0.48199 51.2665 0.739219 49.4164C0.851465 48.604 1.553 48.9703 1.93183 49.0078C4.56492 49.2896 7.20269 49.252 9.83111 49.1769C23.7262 48.7778 37.6166 48.5852 51.5163 48.5899C53.3964 48.5899 53.3497 48.5946 53.0644 50.4776C52.4985 54.2435 52.3675 58.0424 52.5639 61.8459C52.7229 64.9169 52.8726 67.9925 53.3169 71.04C53.4011 71.6082 53.5882 72.1623 53.7285 72.7211C53.5929 72.8432 53.6256 72.9418 53.7799 73.0169C53.8501 73.4865 53.9202 73.9561 53.9904 74.4209C53.8407 74.5571 53.8828 74.651 54.0512 74.7262C54.112 75.0971 54.1728 75.4634 54.2336 75.8343C54.0886 75.9658 54.126 76.0597 54.2897 76.1302C54.5703 77.7032 55.0333 79.2669 55.2812 80.8071C55.7021 83.4038 56.5346 85.8972 56.9228 88.4564C57.2736 90.7854 58.3306 92.8562 58.7281 95.143C58.8965 96.1009 59.5886 96.965 60.0423 97.8712C60.2153 98.3314 60.3931 98.7963 60.5661 99.2612C60.8748 100.271 60.1125 100.149 59.5699 100.163C55.8799 100.261 52.1851 100.336 48.495 100.421C48.1069 100.43 47.7187 100.435 47.3305 100.44C46.9937 100.355 46.6477 100.271 46.3437 100.538C42.7424 100.548 39.1459 100.585 35.5447 100.914C32.921 101.154 30.2458 100.844 27.6127 101.031C23.5064 101.327 19.3813 101.135 15.2891 101.548C14.2134 101.656 13.1424 101.773 12.062 101.792C11.9685 101.647 11.8889 101.67 11.8141 101.811L11.8188 101.816ZM16.2525 64.2501C16.2525 64.3158 16.2525 64.3862 16.2525 64.452C13.7644 64.452 11.2809 64.4379 8.79284 64.4567C7.44589 64.4661 7.30091 64.7055 7.26817 66.0438C7.17463 70.1901 8.06792 74.1486 9.31198 78.0648C9.61597 79.0227 10.079 79.3796 11.0378 79.3655C14.1058 79.3185 17.1785 79.3655 20.2466 79.2857C22.0986 79.2387 23.96 79.4078 25.798 78.9382C26.7568 78.694 27.1169 78.3371 26.7989 77.337C26.5651 76.6138 26.3686 75.8484 26.2423 75.1206C25.6718 71.89 25.2228 68.6358 24.8159 65.3817C24.7083 64.5365 24.4277 64.2313 23.5952 64.2407C21.1492 64.2735 18.6985 64.2501 16.2525 64.2501ZM26.8784 57.2206C30.2972 57.3709 33.7207 57.4789 37.1302 57.0985C37.5417 57.0516 38.1123 57.1549 38.0983 56.5444C38.0843 55.9669 37.5371 56.0091 37.1115 55.995C34.8572 55.9293 32.6076 55.8448 30.3533 55.8072C23.4175 55.6898 16.477 55.4738 9.55985 56.2392C9.12958 56.2862 8.47013 56.1124 8.48884 56.798C8.50755 57.4366 9.13893 57.2065 9.51776 57.2065C15.3078 57.2206 21.0931 57.2159 26.8831 57.2159L26.8784 57.2206ZM28.8427 86.348C30.2224 86.1414 31.8266 86.5311 33.3886 86.0709C33.8002 85.9489 34.4316 86.1367 34.3427 85.3854C34.2679 84.7374 33.7067 84.9299 33.3232 84.9111C30.0587 84.7468 26.7989 84.8595 23.5344 85.0426C19.7508 85.2539 15.9485 85.1882 12.1883 85.7845C11.8796 85.8315 11.5195 85.7986 11.5101 86.24C11.5008 86.6579 11.8562 86.7096 12.1555 86.7659C12.3847 86.8082 12.6185 86.8223 12.8524 86.8223C15.2189 86.8598 17.5948 87.0054 19.9519 86.8927C22.8516 86.7565 25.7326 86.3292 28.8334 86.3433L28.8427 86.348ZM38.9588 67.4619C41.0681 67.5511 42.4946 67.4807 43.9164 67.2741C44.3887 67.2037 44.8096 67.0017 44.8377 66.5557C44.8704 65.9687 44.3139 66.1377 43.9584 66.1002C43.6872 66.0673 43.4112 66.1002 43.1447 66.0532C39.2582 65.4052 35.4745 66.3209 31.6582 66.7951C31.2279 66.8468 30.6106 67.0017 30.7135 67.5887C30.8117 68.1428 31.4197 67.8892 31.8125 67.9409C34.4456 68.2602 37.0086 67.3492 38.9542 67.4666L38.9588 67.4619ZM21.1679 92.6214C22.5149 92.8515 24.1705 91.9593 25.929 92.1002C26.219 92.1237 26.7989 91.9969 26.7615 91.4945C26.7287 91.0578 26.247 91.1047 25.915 91.0343C24.7645 90.7901 23.5952 90.8042 22.426 90.8606C21.2007 90.9169 19.966 91.1376 18.7593 91.0296C17.0943 90.8793 15.5603 91.3442 13.9795 91.6447C13.6708 91.7058 13.2827 91.8185 13.3762 92.1894C13.437 92.4336 13.7691 92.6872 14.031 92.7764C14.349 92.8844 14.7231 92.8046 15.0739 92.8374C16.9774 93.0112 18.8528 92.4665 21.1679 92.6308V92.6214ZM34.3474 73.6461C35.1238 73.4724 36.0638 73.9514 36.8589 73.3315C37.074 73.1672 37.4856 73.1484 37.378 72.6882C37.2892 72.3126 37.0132 72.2374 36.6999 72.1576C35.4745 71.843 34.2305 72.012 32.9911 71.9839C32.4767 71.9745 31.9856 72.0684 31.5132 72.2233C31.2232 72.3173 30.938 72.5614 30.9239 72.8808C30.9099 73.2329 31.3121 73.186 31.5319 73.3128C32.3971 73.8058 33.3466 73.5898 34.3427 73.6461H34.3474Z" fill="white"/>
<path d="M29.7965 0.595803C32.8225 0.445541 35.8625 0.539454 38.8838 0.393888C45.5624 0.0745808 52.241 -0.0146373 58.9196 -0.000550257C60.4676 -0.000550257 62.011 0.149712 63.5591 0.182582C64.2746 0.196669 64.588 0.746065 64.878 1.18746C66.2623 3.27704 66.7815 5.69063 67.3287 8.09482C68.0957 11.4522 67.3287 14.6923 66.2764 17.782C65.7292 19.3786 64.8172 20.9516 63.7134 22.4026C62.1092 24.511 60.5238 26.6475 58.9804 28.8169C57.2686 31.2258 55.4914 33.5971 54.3035 36.3347C54.1959 36.5789 54.0837 36.8231 54.0042 37.0766C53.3962 39.0113 53.3962 39.0207 51.4178 39.0301C43.5981 39.0676 35.7736 39.1193 27.9538 39.1193C20.6392 39.1193 13.3339 39.556 6.01919 39.3541C5.631 39.3447 5.23347 39.3963 4.85464 39.3306C4.14843 39.2085 3.60591 38.8939 3.7696 38.0205C4.3963 34.6865 5.07445 31.3714 6.6646 28.3286C8.00687 25.7647 9.60169 23.3464 11.3415 21.0549C12.8147 19.1203 14.4423 17.2937 15.7331 15.2276C17.3279 12.6731 18.3381 9.89797 18.2493 6.83168C18.2165 5.68593 17.964 4.56366 17.66 3.45548C17.3186 2.21112 17.5103 2.08903 18.7076 1.7979C21.3641 1.15459 24.072 1.0325 26.7706 0.783631C26.9343 0.891631 27.098 0.886936 27.257 0.774239C27.8042 0.736674 28.3514 0.694412 28.8986 0.656847C29.2119 0.825892 29.5112 0.807109 29.8012 0.595803H29.7965ZM50.9268 23.1445C51.1232 23.1445 51.3196 23.121 51.5114 23.1445C53.9247 23.4638 55.6598 22.8487 57.1517 20.5854C59.565 16.9227 60.7342 13.0394 60.8091 8.72874C60.8231 7.84126 60.4115 7.51256 59.5229 7.50317C50.1831 7.41864 40.8434 7.28717 31.4989 7.21203C29.6796 7.19795 27.8603 7.3623 26.041 7.47499C25.2319 7.52665 24.5958 7.77082 24.5116 8.80387C24.4321 9.71484 24.2544 10.654 23.9083 11.4992C22.7204 14.4246 21.7803 17.458 19.8722 20.0641C18.8713 21.4306 19.208 21.8156 20.9806 21.9142C28.0848 22.2993 35.203 22.1678 42.3072 22.6562C45.1742 22.8534 48.0552 23.0037 50.9314 23.1398L50.9268 23.1445ZM23.6277 30.3571C20.8683 30.3806 18.1043 30.2585 15.3543 30.6201C15.0175 30.6623 14.5639 30.5825 14.5218 31.0521C14.4797 31.5404 14.9427 31.6578 15.3028 31.7564C15.5554 31.8269 15.8454 31.794 16.1166 31.794C17.7488 31.794 19.3811 31.7423 21.0086 31.794C27.3225 32.0053 33.6316 32.2636 39.9454 32.4702C41.1474 32.5077 42.354 32.4044 43.556 32.3622C43.8834 32.3481 44.2061 32.2636 44.178 31.8409C44.1499 31.4042 43.8039 31.4089 43.4858 31.4089C41.5917 31.3949 39.7256 31.0615 37.8455 30.9253C33.1125 30.5872 28.3701 30.4557 23.6277 30.3571ZM22.0282 26.5536C20.714 26.7273 19.2642 26.4362 17.8704 26.8917C17.5477 26.9997 16.9397 26.7696 17.0005 27.3237C17.0473 27.7604 17.5711 27.798 18.0295 27.8496C20.7327 28.1313 23.4593 28.0046 26.1626 28.3098C28.2812 28.5493 30.4045 28.878 32.5466 28.6291C32.9114 28.5868 33.4398 28.662 33.4492 28.1313C33.4539 27.6806 33.0283 27.5773 32.612 27.5256C29.1277 27.0889 25.6435 26.6522 22.0189 26.5489L22.0282 26.5536Z" fill="white"/>
<path d="M116.531 95.2179C114.482 95.0254 112.392 95.664 110.367 94.9409C109.693 94.7014 109.249 94.4666 109.656 93.5322C111.597 89.09 113.711 84.7137 114.992 80.0039C116.035 76.1816 117.195 72.3922 118.196 68.5605C118.981 65.5364 120.211 62.7519 121.909 60.1364C124.308 56.4409 127.531 53.7925 131.553 52.0927C134.682 50.7685 137.895 50.421 141.295 50.7826C143.521 51.0174 145.565 51.4822 147.44 52.6984C148.235 53.2149 148.946 53.7409 149.367 54.68C149.929 55.9384 150.906 56.7884 152.215 57.3847C154.203 58.291 154.895 60.1411 155.148 62.1837C155.321 63.5924 155.658 65.0105 155.597 66.4098C155.354 71.9555 155.115 77.5011 154.872 83.0467C154.732 86.329 153.721 87.3902 150.036 87.409C148.114 87.4184 146.187 87.2916 144.265 87.1789C143.619 87.1413 143.142 87.3245 142.773 87.841C142.127 88.7473 141.276 89.4986 140.299 89.9071C138.994 90.4518 138.638 91.405 138.582 92.6353C138.568 92.9828 138.615 93.4523 138.171 93.4383C137.815 93.4289 137.857 92.9781 137.867 92.6635C137.876 92.4662 137.895 92.269 137.867 92.0765C137.581 90.3907 138.213 89.3953 139.742 88.4843C141.852 87.2305 143.184 85.1363 143.923 82.7743C144.26 81.7037 144.751 80.6566 144.681 79.4545C144.634 78.5764 145.35 78.4872 146.075 78.4966C148.184 78.52 149.451 77.7218 150.041 76.0689C150.532 74.693 149.905 73.6976 148.46 73.6224C147.604 73.5755 146.748 73.6083 145.892 73.613C145.383 73.613 145.111 73.4111 145.102 72.8476C145.088 71.9508 144.999 71.0586 144.966 70.1617C144.91 68.5652 145.21 66.9686 143.998 65.5317C143.255 64.6537 143.208 63.3436 143.184 61.9208C142.029 62.7754 141.604 63.8883 141.173 64.9354C140.766 65.9262 140.813 67.1752 139.251 67.302C139.985 67.5274 140.275 68.1097 140.682 68.5511C140.986 68.8845 140.968 69.2554 140.734 69.617C140.406 70.1147 140.042 69.6593 139.854 69.5278C138.582 68.6497 137.292 68.6168 135.945 69.2789C135.659 69.4198 135.439 69.4057 135.22 69.1615C135.005 68.9173 135.238 68.7483 135.271 68.5417C135.355 67.9594 136.024 67.889 136.23 67.3208C134.962 66.6165 133.587 66.8982 132.306 67.0109C131.352 67.0954 130.398 67.2316 129.439 67.2504C128.85 67.2598 128.569 67.4664 128.429 68.0909C127.545 71.9601 126.371 75.7496 126.128 79.7691C126.016 81.6145 126.245 83.3143 126.628 85.0705C127.274 88.0053 130.318 90.4612 133.003 90.2405C133.625 90.1888 134.518 90.2405 134.546 90.9261C134.579 91.8276 133.611 91.6069 132.998 91.6774C132.577 91.7243 132.142 91.6915 131.717 91.668C130.229 91.5788 130.136 91.6163 130.197 93.18C130.229 94.044 129.963 94.8563 129.944 95.7016C129.935 96.0303 129.771 96.2557 129.49 96.2744C129.041 96.3026 129.056 95.9129 129.046 95.6077C129.018 94.2788 128.985 92.9499 128.995 91.621C128.999 91.0294 128.77 90.8744 128.34 91.2219C125.842 93.2551 122.77 93.828 119.795 94.645C119.159 94.26 118.654 94.645 118.14 94.9456C117.845 95.0066 117.55 95.0724 117.26 95.1334C116.984 94.847 116.779 95.2085 116.531 95.2085V95.2179ZM116.306 89.1276C116.793 89.2544 116.905 88.8881 116.998 88.6205C117.504 87.1883 118.065 85.7702 118.444 84.3051C119.608 79.7785 120.581 75.2002 122.082 70.7627C123.046 67.9125 124.337 65.2359 125.828 62.6439C126.016 62.3199 126.497 62.0522 126.058 61.7001C125.716 61.4277 125.365 61.7142 125.071 62.0288C123.869 63.3248 123.018 64.8462 122.204 66.4005C120.441 69.7626 119.683 73.4487 118.682 77.0644C117.635 80.835 116.905 84.6667 116.086 88.4796C115.998 88.8881 115.909 89.076 116.311 89.1229L116.306 89.1276ZM132.937 56.1451C132.839 55.7882 132.409 55.9572 132.147 56.0371C131.053 56.3658 130.229 57.1218 129.462 57.9294C129.275 58.1219 129.098 58.4459 129.285 58.6619C129.537 58.9531 129.963 58.8733 130.239 58.6807C131.062 58.1219 131.852 57.5115 132.647 56.9058C132.825 56.7696 132.984 56.5818 132.937 56.1451Z" fill="white"/>
<path d="M153.66 178.103C159.305 178.765 164.646 177.755 169.823 175.421C173.588 173.726 177.091 171.632 180.398 169.176C180.795 168.88 181.207 168.603 181.562 169.185C181.936 169.796 181.258 169.815 181.006 170.017C178.059 172.378 175.038 174.628 171.624 176.281C171.25 176.464 170.875 176.637 170.459 176.835C170.749 177.506 171.352 177.323 171.727 177.215C172.798 176.91 173.878 177.098 174.94 176.99C178.064 176.68 181.235 176.943 184.321 176.21C184.78 176.102 185.187 176.398 185.659 176.403C188.297 176.412 190.935 176.21 193.558 176.041C195.686 175.905 197.805 175.957 199.928 175.863C203.838 175.689 207.753 175.539 211.663 175.403C212.154 175.384 212.972 175.111 213 175.853C213.024 176.534 212.257 176.595 211.649 176.567C208.356 176.403 205.101 177.008 201.813 177.088C199.928 177.135 198.029 177.163 196.135 177.271C192.436 177.483 188.741 177.755 185.042 177.962C183.489 178.046 181.932 178.027 180.379 178.074C179.888 178.088 179.364 177.957 178.91 178.267C178.896 177.976 178.681 178.056 178.531 178.079C178.363 178.103 178.307 178.225 178.391 178.384C174.13 178.337 169.865 178.276 165.614 178.685C164.655 178.779 163.809 179.201 162.957 179.615C161.826 180.169 160.642 179.488 159.473 179.788C157.537 180.281 155.582 179.746 153.65 179.741C151.237 179.737 149.217 178.765 147.061 178.074C146.729 177.966 146.387 177.84 146.05 177.835C142.318 177.788 138.586 177.769 134.854 177.732C134.442 177.732 134.19 177.868 133.876 178.173C132.871 179.15 131.725 179.821 130.224 179.816C104.693 179.798 79.1614 179.798 53.6349 179.816C51.839 179.816 50.2254 179.568 49.117 177.952C48.8598 177.577 48.4389 177.492 47.9852 177.501C46.7786 177.525 45.5672 177.455 44.3653 177.548C39.2488 177.943 34.1182 177.877 28.997 178.046C24.7597 178.187 20.5178 178.159 16.2852 177.962C15.8876 177.943 15.2984 178.121 15.2469 177.534C15.2001 177.027 15.7567 177.093 16.1168 176.99C17.3047 176.652 18.5441 176.83 19.7414 176.595C19.877 176.896 20.0641 176.778 20.2512 176.656C21.4906 176.656 22.7253 176.656 23.96 176.656C24.6054 176.731 25.2835 177.074 25.8635 176.454C32.8695 176.36 39.8755 176.267 46.8815 176.182C48.2284 176.163 48.1395 176.215 47.6251 174.97C46.2828 171.745 45.0528 168.472 43.7339 165.236C42.9949 163.419 42.1999 161.611 41.5358 159.785C40.4414 156.779 39.2347 153.821 38.0749 150.849C37.4107 149.149 36.5268 147.435 35.989 145.754C35.1144 143.021 33.4541 140.504 33.4307 137.504C33.4213 136.433 34.0621 135.578 34.3006 134.597C34.3474 134.395 34.6093 134.104 34.9179 134.127C36.0544 134.217 37.1208 133.752 38.2619 133.752C49.0048 133.742 59.7476 133.695 70.4904 133.63C76.402 133.592 82.309 133.418 88.2206 133.456C91.761 133.479 95.2967 133.348 98.8371 133.409C101.325 133.451 104.342 134.944 105.188 138.02C105.997 140.95 106.933 143.847 107.779 146.768C109.187 151.614 110.469 156.493 111.923 161.32C112.11 161.935 112.204 162.593 112.709 163.058C112.681 163.504 112.358 164.02 113.008 164.307C112.615 164.959 113.228 165.363 113.401 165.875C113.504 166.377 113.602 166.875 113.705 167.378C113.845 167.885 113.986 168.392 114.121 168.899C114.5 169.223 113.967 169.951 114.664 170.129C114.668 171.266 115.22 172.27 115.417 173.355C115.543 174.045 116.057 173.933 116.497 173.947C118.793 174.013 121.085 174.05 123.381 174.116C126.206 174.196 129.031 174.271 131.851 174.407C132.642 174.445 133.479 174.769 133.881 175.459C134.246 176.083 134.634 176.182 135.256 176.182C137.202 176.182 139.147 176.234 141.088 176.262C141.612 176.271 142.131 176.262 142.669 176.154C140.059 174.567 137.735 172.674 135.354 170.862C135.354 170.726 135.429 170.547 135.181 170.547C135.05 170.449 134.915 170.35 134.784 170.256C134.335 169.617 133.774 169.091 133.152 168.627C132.586 167.941 132.02 167.26 131.458 166.575C130.018 163.659 127.235 163.086 124.443 162.532C123.671 162.25 123.003 161.677 122.105 161.771C121.642 161.818 121.768 161.344 121.534 161.151C123.311 160.78 124.911 161.306 126.445 161.926C127.128 162.203 127.782 162.147 128.447 162.273C130.032 162.579 131.075 163.63 132.029 164.842C132.347 165.241 132.445 165.866 133.067 165.992C133.624 166.73 134.185 167.467 134.966 167.993C135.602 168.838 136.238 169.674 137.225 170.143C137.314 170.223 137.403 170.308 137.492 170.387C138.787 171.829 140.429 172.853 142.014 173.905C144.362 175.468 146.967 176.562 149.698 177.3C150.587 177.539 151.499 177.694 152.402 177.887C152.472 178.06 152.57 178.093 152.701 177.943C152.925 177.962 153.145 177.976 153.365 177.995C153.402 178.206 153.519 178.168 153.65 178.084L153.66 178.103ZM111.666 166.833C111.801 165.908 111.226 165.161 111.053 164.325C110.281 160.635 108.995 157.094 108.009 153.469C106.783 148.966 105.478 144.486 104.211 139.997C103.313 136.809 101.877 134.944 97.855 134.987C82.7158 135.142 67.5767 135.198 52.4376 135.282C47.8075 135.311 43.1727 135.315 38.5425 135.325C37.7288 135.325 36.929 135.447 36.176 135.714C34.8618 136.179 34.5578 137.522 35.2406 139.325C36.6811 143.124 38.1029 146.923 39.5294 150.727C41.1522 155.061 42.7705 159.4 44.3933 163.734C45.7263 167.302 47.1059 170.852 48.3921 174.44C49.739 178.187 50.7633 178.995 54.7433 178.948C64.9015 178.83 75.0551 178.666 85.2133 178.539C97.1955 178.389 109.178 178.253 121.16 178.112C121.244 178.112 121.333 178.107 121.417 178.103C124.597 178.051 127.773 177.99 130.953 177.962C131.603 177.957 132.029 177.487 132.581 177.281C132.852 177.177 132.805 176.717 132.688 176.539C132.366 176.027 131.851 175.83 131.229 175.825C128.063 175.797 124.901 175.867 121.735 175.623C119.724 175.468 117.699 175.534 115.679 175.562C114.692 175.576 114.205 175.149 114.018 174.214C113.766 172.951 113.326 171.745 112.802 170.571C112.597 169.275 112.484 167.95 111.661 166.842L111.666 166.833Z" fill="#38A1FF"/>
<path d="M124.449 112.424C124.884 109.794 125.337 107.165 126.179 104.624C126.249 104.408 126.521 104.108 126.282 103.906C125.964 103.643 125.721 103.967 125.492 104.169C124.107 105.413 122.718 106.658 121.339 107.902C121.283 107.954 121.25 108.038 121.184 108.076C120.59 108.465 120.01 109.329 119.304 108.907C118.551 108.456 118.982 107.54 119.108 106.784C119.454 104.718 119.627 102.624 120.109 100.577C120.282 99.8394 119.978 99.5717 119.197 99.614C117.63 99.6985 116.194 100.379 114.651 100.525C112.499 100.727 110.465 101.45 108.407 102.028C106.62 102.525 104.89 103.295 103.206 104.098C101.303 105.005 99.3947 105.902 97.6783 107.193C94.8815 109.297 92.3606 111.63 90.5834 114.682C90.4104 114.978 90.2513 115.26 89.9053 115.091C89.5966 114.941 89.7883 114.65 89.8491 114.382C90.2093 112.814 91.2195 111.635 92.1548 110.414C93.3521 108.85 94.8628 107.597 96.4202 106.432C97.9869 105.258 99.5958 104.056 101.35 103.23C103.856 102.051 106.359 100.779 109.151 100.332C110.53 100.112 111.728 99.2947 113.149 99.1303C115.142 98.9003 117.111 98.4964 119.103 98.2523C119.711 98.1771 120.216 98.0409 120.637 97.6136C121.947 96.2801 123.495 95.4771 125.361 95.1531C127.227 94.8291 127.526 94.9089 127.559 96.7355C127.573 97.5949 127.928 98.3884 127.83 99.2571C127.765 99.8065 128.12 99.8817 128.541 99.6093C130.239 98.5246 132.049 97.6277 133.793 96.6275C135.327 95.7494 136.894 94.8761 138.517 94.1435C139.953 93.4908 140.935 94.4487 141.87 95.2893C142.661 95.9983 143.568 96.6181 144.003 97.6747C144.148 98.0316 144.503 98.1912 144.948 98.2382C146.51 98.4119 148.062 98.6561 149.615 98.8721C150.148 99.1303 150.719 99.1726 151.299 99.1303C154.844 100.018 158.487 100.45 161.986 101.605C163.599 102.14 165.316 102.544 166.775 103.328C169.656 104.873 172.495 106.535 175.006 108.71C177.204 110.611 179.122 112.743 180.74 115.119C182.784 118.115 184.463 121.332 185.763 124.736C186.909 127.737 187.437 130.892 188.256 133.977C188.288 134.691 188.326 135.409 188.602 136.085C188.63 136.32 188.663 136.555 188.691 136.785C188.597 137.015 188.49 137.255 188.896 137.283C188.939 139.372 189.009 141.467 189.009 143.556C189.009 147.834 188.592 152.046 187.348 156.178C186.586 158.714 186.161 161.297 186.684 164.011C186.974 165.523 186.605 167.101 185.234 168.166C183.925 169.181 182.77 168.655 182.05 167.27C181.381 165.988 180.932 164.588 180.385 163.241C178.752 159.207 176.493 155.568 173.58 152.342C171.489 150.027 169.015 148.792 165.825 149.567C165.503 149.647 165.189 149.6 165.03 149.262C164.871 148.914 165.147 148.891 165.376 148.853C165.741 148.693 166.111 148.534 166.48 148.374C166.709 148.322 166.938 148.275 167.168 148.224C167.556 148.332 167.944 148.355 168.332 148.224C168.575 148.243 168.819 148.261 169.057 148.28C169.155 148.905 169.623 148.562 169.941 148.618C173.262 149.731 175.408 152.304 177.316 154.986C179.697 158.329 181.792 161.884 182.994 165.88C183.139 166.363 183.289 167.199 184.061 167.082C184.823 166.964 185.127 166.349 185.085 165.542C185.024 164.349 185.047 163.161 184.865 161.959C184.589 160.151 185.188 158.395 185.655 156.667C187.292 150.614 187.891 144.477 187.241 138.231C187.358 137.898 187.367 137.579 187.129 137.288C186.609 133.724 185.847 130.23 184.753 126.783C183.551 123.003 181.839 119.5 179.65 116.241C177.77 113.443 175.464 111.034 172.752 108.963C170.095 106.939 167.256 105.258 164.212 103.995C161.864 103.018 159.409 102.295 156.916 101.661C153.492 100.793 150.003 100.342 146.58 99.5201C145.953 99.3698 145.303 99.3276 144.686 99.1585C143.498 98.8345 142.923 99.661 142.343 100.398C139.878 103.516 137.427 106.639 134.78 109.602C133.873 110.616 133.835 110.607 132.956 109.503C131.488 107.667 130.005 105.845 128.476 104.061C128.279 103.835 128.167 103.305 127.793 103.418C127.517 103.497 127.419 103.911 127.353 104.267C127.077 105.784 126.61 107.282 126.483 108.813C126.306 110.879 125.744 112.865 125.445 114.903C124.954 118.284 124.524 121.674 124.023 125.055C123.85 125.13 123.906 125.224 124 125.328C123.958 125.717 123.916 126.107 123.874 126.492C123.616 126.76 123.658 127.074 123.729 127.398C123.63 127.802 123.743 128.258 123.429 128.61C123.35 128.906 123.322 129.202 123.443 129.493C123.406 129.835 123.476 130.206 123.181 130.474C123.181 130.606 123.181 130.742 123.177 130.873C123.125 131.977 123.069 133.08 123.018 134.179C122.751 134.55 122.793 134.949 122.91 135.358C122.578 138.48 122.485 141.622 122.209 144.74C121.956 147.637 122.246 150.553 121.764 153.427C121.708 153.774 121.75 154.22 121.301 154.206C120.862 154.197 120.857 153.755 120.857 153.398C120.857 149.304 120.759 145.204 120.871 141.11C120.96 137.917 121.226 134.728 121.549 131.549C121.83 128.784 122.442 126.046 122.653 123.276C122.877 120.322 123.523 117.453 124.028 114.56C124.266 114.344 124.28 114.077 124.178 113.79C124.215 113.556 124.257 113.316 124.294 113.086C124.505 112.898 124.533 112.663 124.454 112.405L124.449 112.424ZM139.518 95.402C139.321 95.3926 139.167 95.4536 138.985 95.5569C135.599 97.4822 132.203 99.3933 128.803 101.3C128.405 101.525 128.518 101.68 128.766 101.981C130.038 103.526 131.282 105.094 132.512 106.672C133.751 108.263 133.934 108.278 135.281 106.705C137.582 104.023 139.738 101.211 142.287 98.75C142.605 98.4448 142.895 98.1255 142.745 97.6324C142.591 97.1253 140.088 95.3973 139.513 95.3973L139.518 95.402ZM126.306 96.327C125.01 96.374 123.916 96.9515 122.915 97.6606C122.41 98.0175 122.138 98.5669 121.947 99.2665C121.418 101.192 121.208 103.155 120.871 105.103C120.824 105.362 120.777 105.751 120.913 105.878C121.18 106.122 121.362 105.747 121.568 105.592C123.121 104.422 124.458 103.014 125.899 101.722C126.507 101.178 126.586 100.619 126.399 99.9662C126.053 98.7829 126.245 97.6136 126.306 96.327Z" fill="#38A1FF"/>
<path d="M34.9034 123.044C32.9017 123.021 30.9046 122.993 28.9076 122.969C28.7813 122.885 28.655 122.814 28.6223 123.054C23.4356 123.016 19.0253 121.33 15.6065 117.222C14.8442 116.306 14.4653 115.076 13.3242 114.446C12.9173 114.221 13.0856 113.634 13.1839 113.254C13.2914 112.831 13.7357 112.784 14.1426 112.784C16.0461 112.784 17.9543 112.765 19.8578 112.765C24.7592 112.765 29.6652 112.916 34.562 112.728C37.5692 112.61 40.5858 112.39 43.5884 111.901C45.5386 111.587 47.5357 111.394 49.5421 111.31C51.8525 111.216 54.1441 110.774 56.4452 110.465C57.1841 110.366 57.8482 110.779 58.5919 110.676C59.546 110.54 59.4805 111.521 59.8079 112.005C61.3886 114.329 62.7496 116.785 65.3453 118.259C66.8372 119.105 67.8942 118.335 69.0026 117.724C70.4151 116.945 71.6591 115.893 72.8938 114.846C73.1183 114.846 73.2399 114.7 73.2165 114.512C73.1978 114.362 73.0341 114.315 72.8798 114.395C70.0082 114.395 67.1459 114.808 64.2696 114.634C63.7785 114.606 63.2547 114.658 63.1378 114.108C63.0115 113.489 63.6336 113.55 63.989 113.479C65.7522 113.146 67.5247 113.005 69.33 112.949C72.2765 112.859 75.2229 112.85 78.1694 112.775C81.7893 112.681 84.4738 114.395 86.6486 117.081C88.379 119.217 89.5483 121.683 90.7455 124.152C91.5172 125.744 92.0785 127.482 93.2617 128.858C93.5377 129.182 93.5751 129.576 93.3365 129.792C93.0232 130.074 92.7473 129.801 92.4994 129.487C91.7183 128.496 91.246 127.331 90.6473 126.237C89.2957 123.786 88.1078 121.246 86.4568 118.954C84.8714 116.747 82.8696 115.174 80.2693 114.395C79.9466 114.085 79.5584 114.127 79.1655 114.184C78.6791 114.207 78.1927 114.235 77.711 114.259C77.5286 114.184 77.3603 114.16 77.248 114.376C75.3492 114.883 73.7778 115.987 72.3279 117.25C71.3364 118.114 70.2327 118.781 69.1336 119.476C67.8755 120.269 66.4303 120.175 65.0974 119.955C64.3538 119.832 63.685 119.091 63.0489 118.546C61.1314 116.912 59.6909 114.883 58.4469 112.714C57.9652 111.873 57.2028 112.009 56.5153 112.075C54.6586 112.263 52.8159 112.625 50.9545 112.756C47.4796 113.01 44.0374 113.564 40.5718 113.874C36.8349 114.207 33.07 114.282 29.3192 114.334C25.1193 114.395 20.9148 114.296 16.7102 114.282C16.3875 114.282 15.9573 114.08 15.7702 114.498C15.6112 114.846 15.9994 115.057 16.1724 115.278C18.1086 117.715 20.3255 119.607 23.4263 120.635C26.368 121.612 29.2817 121.387 32.2188 121.495C34.3515 121.57 36.4935 121.528 38.6309 121.438C43.5416 121.232 48.4523 121.082 53.3584 120.88C55.7951 120.776 58.2364 120.851 60.6684 120.687C61.4307 120.635 62.1978 120.762 62.9601 120.471C63.3857 120.307 63.9609 120.335 64.0124 121.006C64.0545 121.589 63.6008 121.692 63.1378 121.664C59.8079 121.448 56.5247 122.133 53.1947 122.199C50.8469 122.246 48.443 122.166 46.0204 122.739C46.7406 123.951 47.8444 124.88 48.3261 126.219C48.747 127.402 49.3597 128.534 49.3176 129.834C49.3082 130.163 49.6122 130.661 49.0323 130.816C48.3869 130.989 48.298 130.445 48.1343 130.036C47.7461 129.092 47.3112 128.163 47.0025 127.195C46.5535 125.768 45.679 124.664 44.622 123.674C44.0093 123.101 43.3031 122.81 42.4285 122.838C40.1742 122.908 37.9153 122.918 35.661 122.946C35.3991 122.847 35.1372 122.81 34.9081 123.03L34.9034 123.044Z" fill="white"/>
<path d="M146.893 154.168C148.039 153.599 149.227 154.041 150.396 154.003C150.761 154.257 151.158 154.247 151.56 154.125C153.838 154.327 156.125 154.52 158.384 154.06C160.227 153.684 161.906 152.895 163.407 151.745C163.528 151.651 163.613 151.5 163.748 151.43C164.057 151.27 164.436 151.04 164.693 151.383C164.875 151.627 164.716 151.965 164.492 152.228C163.402 153.524 162.027 154.388 160.47 154.994C157.841 156.013 155.11 156.05 152.36 155.788C150.344 155.595 148.324 155.698 146.308 155.717C145.653 155.722 145.078 156.252 144.564 156.689C143.479 157.605 142.562 158.675 141.8 159.873C141.57 160.23 141.397 160.624 141.014 160.864C140.808 160.995 140.649 161.122 140.411 160.906C140.2 160.718 140.153 160.493 140.261 160.281C141.388 158.103 142.482 155.91 144.802 154.679C145.345 154.393 145.883 154.322 146.444 154.238C146.603 154.271 146.771 154.355 146.893 154.158V154.168Z" fill="#38A1FF"/>
<path d="M138.133 81.756C137.918 83.8503 137.46 85.7896 135.238 86.7428C132.82 87.7759 130.314 86.6865 129.476 84.1978C129.345 83.8033 129.252 83.3995 129.135 83.0004C128.733 81.648 128.906 81.2911 130.215 80.9859C132.128 80.5398 134.022 79.9716 136.01 79.92C136.047 79.92 136.089 79.9153 136.127 79.92C136.674 79.9529 137.132 79.0654 137.68 79.657C138.194 80.2158 138.152 81.0047 138.133 81.7607V81.756ZM133.438 85.5924C135.187 85.6159 136.393 84.1978 136.749 81.9767C136.903 81.0188 136.581 80.9577 135.865 81.1362C134.317 81.5306 132.769 81.925 131.225 82.3524C131.015 82.4134 130.692 82.4463 130.674 82.836C130.622 84.024 132.161 85.5736 133.438 85.5924Z" fill="white"/>
<path d="M72.8711 124.449C74.3069 124.449 75.7474 124.449 77.1832 124.449C77.5293 124.449 77.9923 124.431 78.025 124.867C78.0625 125.365 77.6182 125.44 77.2066 125.468C74.3069 125.666 71.4072 125.905 68.5029 126.065C64.6725 126.276 60.8374 126.426 57.0024 126.6C56.7311 126.614 56.4599 126.614 56.1886 126.591C55.9454 126.572 55.7256 126.459 55.6882 126.191C55.6414 125.863 55.9641 125.835 56.1465 125.769C57.269 125.36 58.4242 125.06 59.6121 124.952C64.0224 124.543 68.4514 124.553 72.8711 124.449Z" fill="#38A1FF"/>
<path d="M162.397 141.965C162.435 139.105 161.831 136.739 160.929 134.438C160.784 134.071 160.512 133.653 160.947 133.423C161.406 133.184 161.691 133.489 161.976 133.959C164.015 137.311 164.371 140.927 163.786 144.717C163.744 145.003 163.646 145.205 163.384 145.36C161.602 146.426 160.919 148.046 160.994 150.084C161.013 150.596 161.275 151.46 160.728 151.558C160.073 151.676 160.148 150.76 159.951 150.281C159.18 148.36 159.68 146.6 161.106 145.294C162.28 144.214 162.584 143.05 162.402 141.965H162.397Z" fill="#38A1FF"/>
<path d="M68.1199 128.877C69.1441 128.928 70.5098 128.74 71.852 129.041C72.1934 129.116 72.5676 129.196 72.4647 129.698C72.3852 130.083 72.1981 130.285 71.7585 130.304C68.204 130.468 64.6496 130.661 61.0952 130.821C60.6789 130.839 59.9727 131.107 59.9119 130.529C59.8511 129.971 60.5526 129.82 61.0577 129.656C63.2512 128.938 65.5289 128.952 68.1245 128.881L68.1199 128.877Z" fill="#38A1FF"/>
<path d="M130.659 78.2864C130.285 78.2066 129.84 78.277 129.373 78.155C128.465 77.9249 128.339 77.3332 128.563 76.6664C129.373 74.3045 129.887 71.8299 131.103 69.6088C131.197 69.4397 131.229 69.2097 131.365 69.1064C131.655 68.881 131.95 68.4959 132.356 68.6931C132.698 68.8575 132.553 69.2801 132.473 69.5384C132.076 70.8344 131.613 72.1163 131.192 73.4029C130.935 74.1918 130.691 74.9854 130.467 75.7836C130.299 76.3941 130.364 76.873 131.178 76.8918C131.435 76.8965 131.762 76.9529 131.931 77.1172C132.118 77.2956 132.623 77.305 132.431 77.7558C132.296 78.0704 132.118 78.3616 131.664 78.2911C131.36 78.2442 131.042 78.2817 130.659 78.2817V78.2864Z" fill="white"/>
<path d="M129.443 156.699C129.541 153.609 132.043 150.195 134.76 149.265C135.27 149.092 135.747 149.148 136.234 149.134C136.58 149.124 137.071 148.974 137.164 149.552C137.258 150.11 136.748 150.181 136.435 150.256C135.167 150.566 134.171 151.284 133.212 152.139C131.763 153.43 131.197 155.196 130.495 156.9C130.336 157.29 130.448 157.99 129.747 157.807C129.101 157.638 129.583 157.013 129.443 156.703V156.699Z" fill="white"/>
<path d="M130.065 147.721C130.996 147.675 131.8 147.97 132.478 148.698C132.937 149.187 132.516 149.299 132.226 149.374C131.941 149.449 131.608 149.388 131.3 149.36C129.102 149.125 127.75 149.835 126.651 151.779C126.183 152.605 125.776 153.46 125.5 154.366C125.374 154.77 125.36 155.277 124.776 155.188C124.27 155.108 124.313 154.648 124.317 154.258C124.336 151.182 127.259 147.538 130.06 147.721H130.065Z" fill="white"/>
<path d="M140.456 124.468C140.035 124.609 139.75 124.308 139.413 124.28C139.067 124.252 138.838 124.191 138.777 123.783C138.693 123.228 139.175 123.21 139.437 123.153C142.954 122.425 146.494 122.073 150.077 122.613C150.362 122.656 150.722 122.529 150.731 123.036C150.741 123.487 150.46 123.491 150.137 123.562C149.497 123.703 148.865 123.811 148.201 123.792C145.578 123.717 143.001 124.21 140.461 124.459L140.456 124.468Z" fill="#38A1FF"/>
<path d="M134.606 157.648C135.186 154.638 138.142 150.6 142.244 151.225C142.562 151.272 142.926 151.286 142.983 151.633C143.039 152.004 142.725 152.136 142.379 152.173C139.372 152.483 137.702 154.563 136.276 156.911C136.042 157.296 135.757 157.653 135.542 158.052C135.392 158.334 135.121 158.475 134.845 158.362C134.541 158.245 134.597 157.916 134.611 157.648H134.606Z" fill="white"/>
<path d="M171.807 143.237C173.453 143.711 175.034 144.307 176.208 145.646C176.442 145.913 176.634 146.27 176.39 146.566C176.133 146.885 175.801 146.88 175.394 146.603C173.453 145.265 171.358 144.387 168.931 144.612C168.669 144.636 168.295 144.683 168.145 144.537C167.752 144.157 166.836 144.669 166.826 143.894C166.817 143.058 167.724 143.255 168.229 143.016C168.533 142.875 168.912 142.903 169.254 142.852C169.427 142.983 169.604 142.978 169.782 142.852C170.142 143.03 170.61 142.791 170.914 143.157C171.194 143.326 171.498 143.265 171.798 143.232L171.807 143.237Z" fill="#38A1FF"/>
<path d="M121.062 171.072C120.889 169.349 120.585 167.635 120.599 165.898C120.599 165.588 120.58 165.268 120.636 164.968C120.706 164.597 120.716 164.127 121.118 163.968C121.581 163.784 121.754 164.278 122.025 164.522C122.1 166.01 122.175 167.503 122.245 168.992C122.259 169.438 122.268 169.889 122.282 170.34C122.666 170.964 122.643 171.593 122.287 172.223C122.161 172.373 122.194 172.528 122.273 172.688C121.614 173.35 121.529 172.673 121.324 172.279C121.436 172.115 121.37 172.011 121.207 171.941C121.16 171.654 121.108 171.363 121.062 171.077V171.072Z" fill="white"/>
<path d="M148.669 138.429C148.594 138.852 148.73 139.152 148.454 139.251C148.206 139.335 147.911 139.349 147.692 139.129C147.528 138.964 147.36 138.8 147.229 138.612C146.354 137.354 145.489 136.091 144.633 134.823C144.465 134.569 144.226 134.245 144.493 133.987C144.712 133.771 145.049 133.884 145.353 134.01C146.209 134.367 146.831 134.992 147.275 135.767C147.804 136.682 148.262 137.64 148.669 138.429Z" fill="#38A1FF"/>
<path d="M140.607 136.987C142.123 137.339 143.676 138.128 144.662 139.795C144.817 140.053 145.069 140.344 144.775 140.602C144.536 140.814 144.125 140.781 143.891 140.63C142.455 139.72 141.047 138.771 139.644 137.808C139.532 137.733 139.466 137.428 139.527 137.292C139.667 136.968 139.99 136.921 140.612 136.982L140.607 136.987Z" fill="white"/>
<path d="M129.696 121.763C129.757 122.778 129.317 123.393 128.405 123.524C127.764 123.618 126.843 122.543 126.927 121.82C127.021 121.003 127.563 120.289 128.33 120.303C129.079 120.317 129.92 120.721 129.696 121.763Z" fill="#38A1FF"/>
<path d="M138.857 72.7315C138.68 73.4123 138.6 74.2904 137.52 74.2857C136.425 74.2857 136.262 73.4217 136.262 72.6188C136.262 71.7735 136.514 70.9941 137.618 71.0222C138.689 71.0504 138.797 71.8205 138.857 72.7315Z" fill="white"/>
<path d="M127.021 134.118C128.106 134.108 128.536 134.54 128.527 135.63C128.522 136.419 127.68 137.287 126.918 137.137C126.146 136.987 125.697 136.419 125.711 135.569C125.725 134.7 125.968 134.038 127.025 134.118H127.021Z" fill="#38A1FF"/>
<path d="M188.602 136.091C188.326 135.415 188.289 134.696 188.256 133.982C189.06 134.574 188.635 135.368 188.602 136.091Z" fill="#38A1FF"/>
<path d="M151.303 99.1305C150.723 99.1681 150.152 99.1305 149.619 98.8723C150.218 98.7314 150.887 98.0881 151.303 99.1305Z" fill="#38A1FF"/>
<path d="M122.896 135.376C122.779 134.967 122.737 134.568 123.003 134.197C123.134 134.606 123.153 135.005 122.896 135.376Z" fill="#38A1FF"/>
<path d="M168.331 148.228C167.942 148.36 167.55 148.336 167.166 148.228C167.554 147.993 167.942 147.979 168.331 148.228Z" fill="#38A1FF"/>
<path d="M151.559 154.127C151.152 154.249 150.759 154.263 150.395 154.005C150.806 153.836 151.199 153.85 151.559 154.127Z" fill="#38A1FF"/>
<path d="M166.479 148.378C166.109 148.537 165.74 148.697 165.375 148.857C165.576 148.307 166.02 148.326 166.479 148.378Z" fill="#38A1FF"/>
<path d="M187.123 137.301C187.366 137.592 187.352 137.911 187.235 138.245C186.954 137.958 186.945 137.639 187.123 137.301Z" fill="#38A1FF"/>
<path d="M171.806 143.236C171.506 143.269 171.202 143.33 170.922 143.161C171.259 142.71 171.549 142.738 171.806 143.236Z" fill="#38A1FF"/>
<path d="M169.944 148.628C169.626 148.572 169.159 148.914 169.061 148.29C169.421 148.229 169.818 148.074 169.944 148.628Z" fill="#38A1FF"/>
<path d="M123.434 129.506C123.308 129.215 123.34 128.919 123.42 128.623C123.897 128.909 123.794 129.205 123.434 129.506Z" fill="#38A1FF"/>
<path d="M123.718 127.416C123.647 127.092 123.605 126.777 123.863 126.51C124.031 126.848 124.078 127.162 123.718 127.416Z" fill="#38A1FF"/>
<path d="M124.171 113.809C124.274 114.095 124.26 114.358 124.022 114.579C123.895 114.288 123.886 114.02 124.171 113.809Z" fill="#38A1FF"/>
<path d="M124.448 112.424C124.523 112.682 124.495 112.917 124.289 113.105C124.144 112.832 124.121 112.583 124.448 112.424Z" fill="#38A1FF"/>
<path d="M178.392 178.384C178.308 178.22 178.364 178.102 178.533 178.079C178.682 178.055 178.897 177.975 178.911 178.266C178.794 178.558 178.663 178.788 178.392 178.384Z" fill="#38A1FF"/>
<path d="M123.161 130.891C123.161 130.76 123.161 130.624 123.166 130.492C123.329 130.502 123.432 130.591 123.39 130.746C123.376 130.807 123.24 130.844 123.156 130.891H123.161Z" fill="#38A1FF"/>
<path d="M169.79 142.856C169.612 142.983 169.435 142.983 169.262 142.856C169.439 142.616 169.617 142.626 169.79 142.856Z" fill="#38A1FF"/>
<path d="M188.896 137.287C188.489 137.259 188.597 137.019 188.69 136.789C189.172 136.784 189.069 137.019 188.896 137.287Z" fill="#38A1FF"/>
<path d="M146.893 154.169C146.772 154.367 146.603 154.282 146.444 154.249C146.412 154.071 146.468 153.939 146.659 153.92C146.823 153.906 146.959 153.949 146.893 154.169Z" fill="#38A1FF"/>
<path d="M54.0551 74.7212C53.8867 74.6508 53.8493 74.5522 53.9943 74.416C54.1767 74.4865 54.1954 74.5898 54.0551 74.7212Z" fill="#38A1FF"/>
<path d="M123.985 125.347C123.892 125.248 123.835 125.149 124.009 125.074C124.051 125.107 124.13 125.135 124.13 125.168C124.13 125.253 124.139 125.379 123.985 125.347Z" fill="#38A1FF"/>
<path d="M53.7852 73.0126C53.6308 72.9375 53.6028 72.8389 53.7337 72.7168C53.9208 72.7872 53.9535 72.8811 53.7852 73.0126Z" fill="#38A1FF"/>
<path d="M54.2944 76.1298C54.126 76.0594 54.0933 75.9608 54.2383 75.834C54.4113 75.9044 54.4254 76.003 54.2944 76.1298Z" fill="#38A1FF"/>
<path d="M152.706 177.966C152.575 178.116 152.476 178.083 152.406 177.91C152.537 177.773 152.635 177.788 152.706 177.966Z" fill="#38A1FF"/>
<path d="M153.66 178.102C153.529 178.187 153.412 178.224 153.374 178.013C153.328 177.877 153.393 177.792 153.519 177.806C153.697 177.825 153.767 177.928 153.66 178.102Z" fill="#38A1FF"/>
<path d="M16.2528 64.2498C18.6988 64.2498 21.1495 64.2686 23.5955 64.2404C24.428 64.2311 24.7086 64.5363 24.8162 65.3815C25.2231 68.6356 25.672 71.8897 26.2426 75.1204C26.3736 75.8482 26.57 76.6136 26.7992 77.3367C27.1219 78.3369 26.7618 78.6938 25.7983 78.938C23.9556 79.4075 22.0942 79.2385 20.2468 79.2854C17.1788 79.3653 14.1061 79.323 11.038 79.3653C10.0839 79.3794 9.61624 79.0225 9.31224 78.0646C8.06819 74.1484 7.1749 70.1899 7.26844 66.0436C7.2965 64.7006 7.44148 64.4658 8.79311 64.4564C11.2812 64.4377 13.7647 64.4517 16.2528 64.4517C16.2528 64.386 16.2528 64.3156 16.2528 64.2498ZM25.6159 77.332C24.6151 73.6788 23.9883 70.1664 23.3008 66.5413C21.5751 68.1567 19.9849 69.6921 18.334 71.1666C17.6699 71.7629 17.8102 72.0682 18.4556 72.5565C20.6771 74.2376 23.067 75.651 25.6159 77.332ZM10.6919 77.1536C10.9304 77.008 11.0941 76.9564 11.183 76.8437C12.3382 75.3458 13.4466 73.8103 14.7936 72.4673C15.2145 72.0494 14.7562 71.7254 14.5036 71.5141C12.8199 70.1101 10.9679 68.9127 9.38707 67.3772C9.04566 67.0485 8.73231 67.0203 8.69489 67.7012C8.65748 68.4196 8.97551 69.0535 9.02695 69.7485C9.21403 72.2607 9.83605 74.6743 10.7013 77.1536H10.6919ZM10.2336 66.0107C10.2149 66.0952 10.2009 66.1798 10.1821 66.2643C11.6367 67.3772 13.0865 68.5041 14.5504 69.6076C16.3089 70.9271 16.3136 70.913 17.9505 69.3822C18.32 69.0394 18.7081 68.7154 19.087 68.382C19.9943 67.5838 20.9016 66.7855 21.7809 66.0107H10.2289H10.2336ZM23.9556 78.1303C23.8714 77.9519 23.8527 77.8016 23.7732 77.7593C21.3225 76.4915 18.9607 75.0828 16.8187 73.336C16.3837 72.9838 16.206 73.2562 15.9721 73.5144C14.9573 74.6414 13.933 75.7637 12.9322 76.9C12.7404 77.1207 12.3522 77.3086 12.4785 77.642C12.6188 78.0035 13.0257 77.8204 13.311 77.8251C15.7944 77.8861 18.2779 77.9988 20.7613 77.9425C21.8183 77.919 22.8378 78.4825 23.9509 78.1256L23.9556 78.1303Z" fill="#38A1FF"/>
<path d="M26.8829 57.2204C21.0929 57.2204 15.3076 57.2204 9.51759 57.211C9.14344 57.211 8.50738 57.4364 8.48867 56.8025C8.46996 56.1169 9.12941 56.2906 9.55968 56.2437C16.4768 55.4783 23.4173 55.6943 30.3532 55.8117C32.6074 55.8493 34.857 55.9338 37.1113 55.9995C37.5369 56.0136 38.0841 55.9666 38.0981 56.5489C38.1121 57.1593 37.5416 57.0607 37.13 57.103C33.7205 57.4834 30.2971 57.3707 26.8782 57.2251L26.8829 57.2204Z" fill="#38A1FF"/>
<path d="M28.8471 86.3478C25.7463 86.3337 22.8606 86.761 19.9656 86.8972C17.6038 87.0099 15.2326 86.8596 12.8661 86.8268C12.6323 86.8268 12.3984 86.8127 12.1693 86.7704C11.8653 86.7141 11.5098 86.6624 11.5238 86.2445C11.5332 85.8078 11.8933 85.8407 12.202 85.789C15.9622 85.1927 19.7645 85.2584 23.5481 85.0471C26.8079 84.864 30.0724 84.7513 33.3369 84.9156C33.7204 84.9344 34.2816 84.7419 34.3565 85.3899C34.4453 86.1412 33.8139 85.9534 33.4024 86.0755C31.8403 86.5356 30.2361 86.1459 28.8564 86.3525L28.8471 86.3478Z" fill="#38A1FF"/>
<path d="M38.964 67.4618C37.0184 67.3444 34.4508 68.2554 31.8224 67.9361C31.4248 67.8891 30.8215 68.138 30.7233 67.5839C30.6157 66.9969 31.2331 66.8467 31.668 66.7903C35.4797 66.3161 39.268 65.4004 43.1545 66.0484C43.4211 66.0907 43.697 66.0625 43.9683 66.0954C44.3237 66.1376 44.8803 65.9639 44.8475 66.5509C44.8242 66.9969 44.3986 67.1989 43.9262 67.2693C42.5044 67.4806 41.078 67.551 38.9687 67.4571L38.964 67.4618Z" fill="#38A1FF"/>
<path d="M21.1731 92.6219C18.858 92.4575 16.9826 93.0023 15.0791 92.8285C14.733 92.7956 14.3542 92.8755 14.0361 92.7675C13.7742 92.6782 13.4422 92.4247 13.3814 92.1805C13.2878 91.8095 13.676 91.6968 13.9847 91.6358C15.5655 91.3353 17.1042 90.8704 18.7645 91.0207C19.9711 91.1287 21.2058 90.9127 22.4312 90.8516C23.6004 90.7953 24.7649 90.7859 25.9201 91.0254C26.2475 91.0958 26.7339 91.0488 26.7667 91.4855C26.8041 91.9927 26.2288 92.1148 25.9342 92.0913C24.1757 91.9551 22.52 92.8426 21.1731 92.6125V92.6219Z" fill="#38A1FF"/>
<path d="M34.3528 73.6418C33.3566 73.5808 32.4025 73.8015 31.5419 73.3084C31.3221 73.1816 30.9199 73.2333 30.934 72.8764C30.948 72.5571 31.2333 72.3176 31.5232 72.219C31.9956 72.0641 32.4867 71.9654 33.0011 71.9795C34.2405 72.0077 35.4846 71.8387 36.7099 72.1533C37.0186 72.2331 37.2945 72.3082 37.3881 72.6839C37.5003 73.1441 37.0841 73.1582 36.8689 73.3272C36.0692 73.947 35.1338 73.4681 34.3574 73.6418H34.3528Z" fill="#38A1FF"/>
<path d="M50.9265 23.1494C48.0502 23.0132 45.1692 22.8629 42.3023 22.6657C35.198 22.1774 28.0798 22.3041 20.9756 21.9238C19.2031 21.8299 18.8663 21.4401 19.8672 20.0737C21.7754 17.4676 22.7154 14.4342 23.9033 11.5087C24.2448 10.6682 24.4272 9.72438 24.5067 8.81341C24.5955 7.78036 25.2269 7.53619 26.036 7.48453C27.8553 7.36714 29.6746 7.20749 31.4939 7.22157C40.8337 7.29671 50.1735 7.42819 59.5179 7.51271C60.4112 7.5221 60.8228 7.8461 60.8041 8.73828C60.7292 13.0442 59.56 16.9323 57.1467 20.5949C55.6548 22.8629 53.9197 23.4781 51.5064 23.1541C51.3146 23.1306 51.1182 23.1541 50.9218 23.1541L50.9265 23.1494ZM41.9 15.0258C41.9842 15.1479 42.0123 15.2371 42.0731 15.27C46.1186 17.3596 50.1735 19.4351 54.2143 21.5434C54.6306 21.7594 54.7849 21.581 55.0842 21.3791C55.9354 20.8062 56.2955 19.8765 56.7913 19.0641C58.3393 16.5378 59.1485 13.7486 59.3542 10.7997C59.4618 9.24542 59.3729 9.19846 57.9512 9.75255C55.1637 10.8373 52.2828 11.612 49.4345 12.4948C46.9371 13.2696 44.2946 13.6547 41.9 15.0258ZM23.7771 20.4353C33.1636 20.5667 42.4987 21.1396 51.8385 21.9426C51.2305 21.5669 50.7581 21.0833 50.122 20.8062C47.4048 19.6229 44.6968 18.3973 42.0918 16.9792C40.3707 16.0401 38.6169 15.5611 36.7274 16.3829C35.4693 16.9323 34.1364 17.2751 32.8596 17.7493C29.8898 18.8622 26.7095 19.1909 23.7771 20.4306V20.4353ZM29.0199 8.74767C29.4127 9.09985 29.5998 9.38159 29.8524 9.4802C32.7754 10.5743 35.46 12.1708 38.2567 13.5232C38.8507 13.8096 39.4587 13.8754 40.0574 13.7063C41.119 13.4058 42.1526 13.0114 43.2049 12.678C45.997 11.7858 48.8032 10.9312 51.6701 10.2832C52.9235 10.0014 54.1442 9.56473 55.3789 9.19846C46.6471 8.84159 37.9761 8.60211 29.0152 8.74767H29.0199ZM22.3038 19.3787C27.0883 17.538 32.1908 16.7585 36.8724 14.6642C36.386 14.0914 35.6798 13.9834 35.0811 13.6735C32.3451 12.2601 29.5998 10.8748 26.8732 9.44733C26.2839 9.14211 26.1108 9.13742 25.9238 9.89812C25.1147 13.1569 23.8987 16.2702 22.3085 19.3787H22.3038Z" fill="#38A1FF"/>
<path d="M23.6281 30.362C28.3705 30.456 33.1129 30.5874 37.8459 30.9255C39.726 31.0617 41.5921 31.3904 43.4862 31.4092C43.7996 31.4092 44.1504 31.4092 44.1784 31.8412C44.2018 32.2638 43.8838 32.3483 43.5564 32.3624C42.3544 32.4094 41.1478 32.5127 39.9458 32.4704C33.632 32.2638 27.3229 32.0055 21.0091 31.7942C19.3815 31.7379 17.7493 31.7942 16.117 31.7942C15.8458 31.7942 15.5605 31.8318 15.3033 31.7567C14.9431 31.6581 14.4801 31.5407 14.5222 31.0523C14.5643 30.5827 15.018 30.6673 15.3547 30.6203C18.1047 30.2587 20.8688 30.3808 23.6281 30.3574V30.362Z" fill="#38A1FF"/>
<path d="M22.0284 26.5527C25.6483 26.656 29.1373 27.0927 32.6216 27.5294C33.0378 27.5811 33.4634 27.6844 33.4588 28.1352C33.4494 28.6658 32.9209 28.5907 32.5561 28.6329C30.4094 28.8818 28.2861 28.5531 26.1721 28.3136C23.4642 28.0037 20.7423 28.1352 18.039 27.8534C17.576 27.8065 17.0569 27.7642 17.0101 27.3275C16.9493 26.7734 17.5573 26.9988 17.88 26.8955C19.2737 26.4353 20.7236 26.7312 22.0378 26.5574L22.0284 26.5527Z" fill="#38A1FF"/>
<path d="M116.306 89.1284C115.904 89.0815 115.993 88.8937 116.081 88.4851C116.9 84.6675 117.63 80.8359 118.677 77.0699C119.678 73.4542 120.436 69.7681 122.199 66.406C123.013 64.8517 123.864 63.335 125.066 62.0343C125.36 61.715 125.711 61.4286 126.053 61.7056C126.492 62.0578 126.011 62.3207 125.823 62.6494C124.332 65.2415 123.045 67.918 122.077 70.7683C120.576 75.2104 119.603 79.784 118.439 84.3107C118.06 85.7757 117.499 87.1985 116.993 88.626C116.9 88.8937 116.788 89.2599 116.301 89.1331L116.306 89.1284Z" fill="white"/>
<path d="M132.936 56.1464C132.983 56.5831 132.824 56.7709 132.646 56.9071C131.856 57.5128 131.061 58.1186 130.238 58.682C129.962 58.8699 129.536 58.9544 129.284 58.6633C129.101 58.4472 129.279 58.1279 129.461 57.9307C130.228 57.1231 131.051 56.3718 132.146 56.0384C132.408 55.9585 132.838 55.7942 132.936 56.1464Z" fill="white"/>
<path d="M112.806 170.56C113.326 171.734 113.765 172.945 114.022 174.204C114.21 175.143 114.696 175.566 115.683 175.552C117.703 175.523 119.733 175.458 121.739 175.613C124.906 175.857 128.067 175.786 131.233 175.815C131.855 175.819 132.375 176.016 132.693 176.528C132.805 176.711 132.856 177.172 132.585 177.27C132.033 177.477 131.612 177.946 130.958 177.951C127.777 177.979 124.597 178.04 121.421 178.092C121.562 177.909 121.459 177.81 121.29 177.81C121.122 177.81 121.024 177.918 121.159 178.097C109.177 178.238 97.195 178.374 85.2128 178.524C75.0546 178.651 64.901 178.815 54.7428 178.932C50.7627 178.979 49.7385 178.172 48.3916 174.425C47.1054 170.842 45.7304 167.287 44.3928 163.718C42.7699 159.384 41.1517 155.045 39.5288 150.711C38.1024 146.908 36.6806 143.104 35.2401 139.31C34.5573 137.512 34.8613 136.169 36.1755 135.699C36.9285 135.432 37.7282 135.309 38.542 135.309C43.1721 135.3 47.8069 135.291 52.4371 135.267C67.5762 135.183 82.7153 135.122 97.8544 134.971C101.877 134.929 103.308 136.793 104.21 139.982C105.478 144.471 106.783 148.955 108.008 153.454C108.995 157.079 110.281 160.619 111.053 164.31C111.226 165.146 111.801 165.893 111.665 166.818C110.693 167.085 110.604 167.893 110.739 168.64C110.94 169.729 111.562 170.518 112.806 170.541V170.56ZM71.5749 150.063C68.8951 150.077 66.6268 151.716 65.6774 154.28C65.4763 154.829 65.4716 155.562 64.7093 155.722C63.8581 155.9 63.1331 156.36 62.3521 156.694C58.3019 158.422 56.1038 163.728 57.9886 167.968C58.5451 169.217 58.33 170.119 57.6331 171.081C56.9643 172.002 56.5902 173.068 56.057 174.058C55.8699 174.411 55.926 174.706 56.1833 175.021C56.506 175.415 56.8053 175.195 57.1093 175.044C58.0119 174.598 58.9052 174.148 59.7985 173.687C61.0519 173.044 62.2492 172.842 63.685 173.354C66.117 174.218 68.6519 174.044 70.8687 172.715C74.5962 170.48 76.0554 166.865 75.1434 162.535C74.9844 161.793 75.1434 161.436 75.6626 160.957C77.5286 159.229 78.0244 157.079 77.3041 154.656C77.1405 154.111 76.8739 153.538 76.2752 153.36C75.6111 153.163 75.4848 153.839 75.1762 154.2C74.2174 155.337 73.0061 155.553 72.1455 154.736C71.2055 153.843 71.2616 152.533 72.2718 151.557C72.5711 151.27 73.0435 151.04 72.8003 150.514C72.5571 149.993 72.0426 150.049 71.5749 150.054V150.063ZM84.7404 159.934C84.4317 159.934 84.24 159.934 84.0436 159.934C82.5516 159.957 81.1018 161.009 80.9194 162.197C80.6902 163.695 81.504 164.831 83.024 165.526C83.9407 165.944 84.9181 165.864 85.8301 166.188C86.5317 166.437 86.8497 166.865 86.7562 167.592C86.6673 168.283 86.237 168.578 85.5729 168.654C84.3288 168.794 83.1737 168.597 82.1962 167.78C81.2982 167.034 81.0363 167.992 80.6622 168.386C80.1524 168.926 80.7417 169.222 81.1158 169.442C82.6124 170.325 84.2587 170.593 85.9471 170.372C87.7383 170.142 88.8093 168.926 88.959 167.184C89.0525 166.038 88.047 164.93 86.4007 164.399C85.6618 164.16 84.9041 163.986 84.1698 163.733C83.5197 163.502 82.7527 163.286 82.9492 162.333C83.1362 161.408 83.8658 161.305 84.6562 161.291C85.3437 161.281 85.9658 161.399 86.4943 161.878C86.8637 162.211 87.2847 162.437 87.7383 162.037C88.0189 161.789 88.4352 161.549 88.2995 161.094C88.1592 160.619 87.6962 160.309 87.2753 160.248C86.4007 160.122 85.5402 159.774 84.7451 159.938L84.7404 159.934ZM79.6894 143.968C76.2191 143.968 74.512 145.358 73.9789 148.598C73.8853 149.148 74.0256 149.429 74.5494 149.669C77.3509 150.941 80.1103 149.861 81.5508 146.884C82.8182 144.264 82.6311 143.973 79.694 143.968H79.6894ZM106.773 166.921C107.395 166.921 108.017 166.916 108.639 166.921C109.018 166.921 109.285 166.869 109.364 166.386C109.579 165.094 108.672 163.437 107.447 162.991C104.416 161.887 101.657 164.235 102.19 167.466C102.62 170.048 106.525 171.523 108.574 169.86C108.859 169.626 109.266 169.391 108.99 168.907C108.822 168.607 108.672 168.193 108.265 168.245C107.938 168.287 107.639 168.527 107.32 168.668C106.212 169.175 104.846 168.888 104.411 168.048C104.065 167.381 104.107 166.907 105.029 166.921C105.613 166.93 106.193 166.921 106.778 166.921H106.773ZM93.7247 170.438C93.823 170.438 94.0662 170.471 94.286 170.405C94.7443 170.269 95.4458 170.245 95.4412 169.649C95.4365 168.912 94.8285 168.799 94.1597 168.865C93.1729 168.959 92.7286 168.442 92.7753 167.456C92.7987 166.987 92.8034 166.517 92.7753 166.052C92.6958 164.911 92.6958 163.878 94.3327 164.118C94.8145 164.188 94.8846 163.812 94.8846 163.423C94.8846 163.075 94.7958 162.732 94.3889 162.798C92.9951 163.028 92.8829 162.225 92.9343 161.145C92.9811 160.15 92.4386 159.891 91.5453 160.38C91.0636 160.643 90.9467 161.061 90.956 161.549C90.97 162.169 90.9654 162.732 90.1235 162.807C89.6792 162.845 89.7868 163.263 89.7821 163.559C89.7821 163.859 89.7166 164.268 90.1656 164.273C91.0823 164.282 90.97 164.906 90.97 165.493C90.97 166.273 90.97 167.057 90.97 167.837C90.9841 169.738 91.6903 170.438 93.7201 170.433L93.7247 170.438ZM96.9845 166.578C96.9845 167.433 97.0032 168.292 96.9799 169.147C96.9612 169.795 96.9939 170.255 97.8731 170.255C98.6963 170.255 98.8693 169.907 98.8132 169.203C98.7758 168.701 98.8226 168.189 98.8038 167.686C98.7477 166.029 99.1078 164.667 101.016 164.296C101.657 164.174 101.39 163.615 101.4 163.239C101.409 162.714 100.993 162.699 100.656 162.831C100.268 162.981 99.7907 162.911 99.482 163.272C99.1172 163.695 98.8459 163.69 98.5092 163.174C98.2379 162.761 97.7188 162.939 97.326 163.019C96.8536 163.117 96.9939 163.573 96.9892 163.897C96.9705 164.794 96.9845 165.686 96.9845 166.583V166.578Z" fill="white"/>
<path d="M112.807 170.562C111.563 170.538 110.941 169.749 110.739 168.66C110.604 167.913 110.693 167.101 111.665 166.838C112.489 167.946 112.601 169.27 112.807 170.566V170.562Z" fill="white"/>
<path d="M121.159 178.107C121.024 177.928 121.122 177.82 121.29 177.82C121.454 177.82 121.562 177.919 121.421 178.102C121.333 178.102 121.248 178.107 121.159 178.111V178.107Z" fill="#38A1FF"/>
<path d="M139.513 95.4026C140.088 95.4026 142.59 97.1306 142.744 97.6377C142.894 98.1308 142.604 98.4501 142.286 98.7553C139.737 101.216 137.581 104.029 135.28 106.71C133.933 108.278 133.746 108.269 132.511 106.677C131.281 105.099 130.037 103.531 128.765 101.986C128.517 101.681 128.405 101.526 128.803 101.305C132.198 99.3986 135.593 97.4875 138.984 95.5622C139.162 95.4589 139.321 95.3979 139.517 95.4026H139.513Z" fill="white"/>
<path d="M126.304 96.332C126.239 97.6233 126.052 98.7926 126.398 99.9712C126.59 100.624 126.506 101.183 125.898 101.727C124.457 103.019 123.119 104.432 121.567 105.597C121.366 105.747 121.179 106.123 120.912 105.883C120.776 105.761 120.828 105.367 120.87 105.108C121.211 103.16 121.417 101.192 121.946 99.2715C122.137 98.5719 122.409 98.0225 122.914 97.6656C123.915 96.9566 125.004 96.379 126.304 96.332Z" fill="white"/>
<path d="M133.433 85.598C132.156 85.5792 130.618 84.0296 130.669 82.8416C130.688 82.4566 131.011 82.419 131.221 82.358C132.76 81.9307 134.308 81.5362 135.861 81.1418C136.576 80.9587 136.899 81.0244 136.745 81.9823C136.389 84.2034 135.187 85.6215 133.433 85.598Z" fill="#38A1FF"/>
<path d="M25.6156 77.3337C23.0667 75.6479 20.6768 74.2345 18.4552 72.5582C17.8098 72.0698 17.6742 71.7646 18.3336 71.1682C19.9799 69.6938 21.5747 68.1536 23.3005 66.543C23.988 70.168 24.6147 73.6851 25.6156 77.3337Z" fill="white"/>
<path d="M10.6963 77.1537C9.83573 74.6743 9.20903 72.2607 9.02195 69.7485C8.97051 69.0536 8.65715 68.4197 8.68989 67.7012C8.72263 67.0204 9.04066 67.0485 9.38207 67.3772C10.9675 68.9127 12.8149 70.1101 14.4986 71.5141C14.7512 71.7254 15.2095 72.0494 14.7886 72.4674C13.4416 73.8103 12.3332 75.3411 11.178 76.8437C11.0938 76.9564 10.9254 77.0081 10.6869 77.1537H10.6963Z" fill="white"/>
<path d="M10.2382 66.0117H21.7901C20.9109 66.7865 20.0035 67.5848 19.0962 68.383C18.7174 68.7164 18.3245 69.0404 17.9597 69.3832C16.3228 70.914 16.3181 70.9234 14.5596 69.6086C13.0911 68.5098 11.6459 67.3829 10.1914 66.2653C10.2101 66.1808 10.2241 66.0962 10.2429 66.0117H10.2382Z" fill="white"/>
<path d="M23.9601 78.1312C22.847 78.488 21.8227 77.9246 20.7704 77.948C18.287 78.0044 15.8036 77.8917 13.3201 77.8306C13.0349 77.826 12.628 78.0091 12.4877 77.6475C12.3614 77.3141 12.7496 77.1216 12.9413 76.9056C13.9422 75.7692 14.9617 74.6423 15.9813 73.52C16.2151 73.2617 16.3929 72.9894 16.8278 73.3416C18.9745 75.0884 21.3317 76.4971 23.7824 77.7649C23.8619 77.8025 23.8806 77.9574 23.9648 78.1359L23.9601 78.1312Z" fill="white"/>
<path d="M41.8965 15.0254C44.2911 13.6543 46.9382 13.2692 49.431 12.4944C52.2792 11.6116 55.1602 10.8415 57.9476 9.75215C59.3694 9.19806 59.4582 9.24501 59.3507 10.7993C59.1449 13.7482 58.3358 16.5374 56.7877 19.0637C56.292 19.8714 55.9319 20.8011 55.0807 21.3787C54.7813 21.5806 54.627 21.759 54.2108 21.543C50.1746 19.4347 46.1197 17.3592 42.0695 15.2696C42.0087 15.2367 41.9807 15.1475 41.8965 15.0254Z" fill="white"/>
<path d="M23.7734 20.4298C26.7059 19.1901 29.8861 18.8614 32.856 17.7485C34.1328 17.2696 35.4657 16.9315 36.7238 16.3821C38.6132 15.5556 40.3717 16.0393 42.0882 16.9784C44.6932 18.4012 47.4011 19.6221 50.1184 20.8054C50.7591 21.0825 51.2268 21.5614 51.8348 21.9418C42.4904 21.1341 33.1553 20.5659 23.7734 20.4345V20.4298Z" fill="white"/>
<path d="M29.0156 8.74837C37.9766 8.6028 46.6475 8.84228 55.3793 9.19915C54.1446 9.56542 52.9239 10.0021 51.6705 10.2839C48.8036 10.9319 46.0021 11.7865 43.2053 12.6787C42.153 13.0168 41.1194 13.4065 40.0578 13.707C39.4591 13.8761 38.8511 13.8103 38.2572 13.5239C35.4604 12.1715 32.7759 10.5703 29.8528 9.48089C29.5956 9.38698 29.4085 9.10054 29.0203 8.74837H29.0156Z" fill="white"/>
<path d="M22.2996 19.3738C23.8897 16.2652 25.1011 13.152 25.9148 9.89319C26.1019 9.13249 26.2796 9.13718 26.8643 9.4424C29.5909 10.8652 32.3409 12.2551 35.0722 13.6685C35.6709 13.9784 36.3817 14.0864 36.8635 14.6593C32.1866 16.7583 27.0794 17.5378 22.2949 19.3738H22.2996Z" fill="white"/>
<path d="M71.5718 150.069C72.0441 150.059 72.5586 150.003 72.7971 150.524C73.0403 151.05 72.5679 151.28 72.2686 151.567C71.2537 152.539 71.2023 153.854 72.1423 154.746C72.9982 155.563 74.2142 155.347 75.173 154.21C75.4816 153.844 75.6079 153.173 76.272 153.37C76.8707 153.548 77.1373 154.121 77.301 154.666C78.0165 157.089 77.5255 159.235 75.6594 160.968C75.1402 161.447 74.9859 161.803 75.1402 162.545C76.0569 166.875 74.593 170.49 70.8656 172.726C68.644 174.059 66.1138 174.233 63.6818 173.364C62.246 172.852 61.0487 173.054 59.7953 173.698C58.902 174.158 58.0041 174.609 57.1061 175.055C56.8021 175.205 56.5028 175.426 56.1801 175.031C55.9229 174.717 55.8667 174.421 56.0538 174.069C56.587 173.078 56.9611 172.012 57.6299 171.091C58.3268 170.134 58.5419 169.227 57.9854 167.978C56.1053 163.738 58.3034 158.432 62.3489 156.704C63.13 156.37 63.8549 155.91 64.7061 155.732C65.4684 155.572 65.4731 154.835 65.6742 154.29C66.6236 151.722 68.8919 150.088 71.5718 150.074V150.069ZM74.3452 164.579C74.3452 164.602 74.3452 164.41 74.3452 164.212C74.3171 162.442 74.13 162.339 72.437 162.808C71.1321 163.17 69.832 162.926 68.6627 162.301C66.8481 161.334 65.5199 159.925 65.1176 157.807C65.0101 157.234 64.8324 157.056 64.0981 157.197C59.8234 158.005 57.1622 163.625 58.9488 167.288C59.7252 168.88 59.6971 170.166 58.8085 171.566C58.7898 171.599 58.7851 171.641 58.7711 171.674C58.6542 172.017 58.1304 172.336 58.5139 172.693C58.86 173.012 59.1967 172.571 59.5334 172.411C60.7307 171.838 61.8391 171.12 63.303 171.951C68.0922 174.66 74.4948 170.265 74.3405 164.574L74.3452 164.579Z" fill="white"/>
<path d="M84.7405 159.935C85.5356 159.771 86.3961 160.123 87.2707 160.245C87.6963 160.306 88.1546 160.616 88.2949 161.091C88.4306 161.546 88.0143 161.786 87.7337 162.034C87.2847 162.434 86.8591 162.208 86.4896 161.875C85.9612 161.401 85.3391 161.278 84.6516 161.288C83.8612 161.302 83.1316 161.405 82.9446 162.33C82.7481 163.288 83.5151 163.504 84.1652 163.73C84.8948 163.988 85.6572 164.162 86.3961 164.396C88.0424 164.927 89.0526 166.04 88.9544 167.181C88.8094 168.928 87.7384 170.139 85.9424 170.369C84.2541 170.585 82.6031 170.322 81.1112 169.44C80.7371 169.219 80.1478 168.923 80.6576 168.383C81.0317 167.989 81.2936 167.031 82.1916 167.777C83.1691 168.594 84.3242 168.792 85.5683 168.651C86.2371 168.576 86.6627 168.28 86.7516 167.589C86.8451 166.862 86.5271 166.434 85.8255 166.185C84.9135 165.861 83.9361 165.941 83.0194 165.523C81.4994 164.828 80.6856 163.692 80.9148 162.194C81.0972 161.006 82.547 159.954 84.039 159.931C84.2354 159.931 84.4271 159.931 84.7358 159.931L84.7405 159.935Z" fill="white"/>
<path d="M79.6896 143.969C82.6314 143.969 82.8185 144.265 81.5464 146.885C80.1059 149.862 77.3465 150.942 74.545 149.669C74.0212 149.43 73.8856 149.148 73.9745 148.599C74.5123 145.359 76.2147 143.969 79.6849 143.969H79.6896Z" fill="white"/>
<path d="M106.774 166.921C106.189 166.921 105.609 166.931 105.025 166.921C104.103 166.907 104.061 167.377 104.407 168.048C104.842 168.889 106.208 169.175 107.316 168.668C107.634 168.523 107.934 168.283 108.261 168.245C108.668 168.194 108.818 168.612 108.986 168.908C109.257 169.391 108.855 169.626 108.57 169.861C106.526 171.518 102.616 170.049 102.186 167.466C101.653 164.235 104.407 161.888 107.443 162.991C108.668 163.437 109.575 165.09 109.36 166.386C109.281 166.87 109.014 166.926 108.635 166.921C108.013 166.921 107.391 166.921 106.769 166.921H106.774ZM105.848 165.902C106.306 165.456 107.372 166.372 107.471 165.231C107.541 164.404 106.867 163.935 106.021 163.897C105.23 163.86 104.173 164.658 104.272 165.297C104.431 166.306 105.296 165.569 105.848 165.902Z" fill="white"/>
<path d="M93.7217 170.434C91.6872 170.434 90.9857 169.739 90.9717 167.837C90.967 167.058 90.9717 166.274 90.9717 165.494C90.9717 164.907 91.0792 164.283 90.1672 164.273C89.7183 164.273 89.7791 163.86 89.7837 163.56C89.7837 163.269 89.6809 162.851 90.1252 162.808C90.967 162.733 90.9717 162.17 90.9576 161.55C90.9436 161.057 91.0652 160.644 91.5469 160.381C92.4356 159.888 92.9827 160.151 92.936 161.146C92.8845 162.226 92.9921 163.024 94.3905 162.799C94.7974 162.733 94.8862 163.071 94.8862 163.423C94.8862 163.813 94.8161 164.189 94.3344 164.118C92.6975 163.879 92.6975 164.912 92.777 166.053C92.8097 166.518 92.8003 166.992 92.777 167.457C92.7302 168.438 93.1745 168.96 94.1613 168.866C94.8301 168.8 95.4334 168.917 95.4428 169.65C95.4475 170.246 94.7506 170.265 94.2876 170.406C94.0725 170.472 93.8246 170.434 93.7264 170.439L93.7217 170.434Z" fill="white"/>
<path d="M96.9801 166.575C96.9801 165.678 96.9707 164.782 96.9847 163.889C96.9894 163.565 96.8491 163.11 97.3215 163.011C97.7143 162.931 98.2381 162.753 98.5047 163.166C98.8415 163.683 99.108 163.687 99.4775 163.265C99.7909 162.903 100.263 162.974 100.651 162.823C100.988 162.692 101.404 162.706 101.395 163.232C101.39 163.612 101.652 164.166 101.012 164.288C99.1034 164.659 98.7432 166.021 98.7994 167.679C98.8181 168.186 98.7713 168.693 98.8087 169.195C98.8649 169.905 98.6871 170.247 97.8687 170.247C96.9894 170.247 96.9567 169.787 96.9754 169.139C97.0034 168.285 96.9801 167.425 96.9801 166.571V166.575Z" fill="white"/>
<path d="M74.3438 164.579C74.4981 170.27 68.0954 174.665 63.3063 171.956C61.8377 171.124 60.734 171.848 59.5367 172.416C59.2 172.575 58.8632 173.017 58.5171 172.697C58.1336 172.341 58.6574 172.017 58.7744 171.678C58.7884 171.641 58.7931 171.599 58.8118 171.571C59.6957 170.171 59.7285 168.885 58.9521 167.293C57.1655 163.63 59.8267 158.005 64.1014 157.202C64.8356 157.066 65.0133 157.244 65.1209 157.812C65.5231 159.93 66.8514 161.339 68.666 162.306C69.8306 162.926 71.1354 163.175 72.4403 162.813C74.1333 162.343 74.3204 162.447 74.3484 164.217C74.3484 164.414 74.3484 164.607 74.3484 164.583L74.3438 164.579ZM66.4679 166.02C66.4679 166.02 66.4679 166.025 66.4679 166.03C65.7289 166.03 64.9946 166.03 64.2557 166.03C63.7366 166.03 63.5962 166.311 63.643 166.786C63.7599 167.941 65.0648 169.199 66.22 169.246C67.5061 169.298 68.8905 168.251 69.1103 167.049C69.2272 166.424 69.1477 165.964 68.3293 166.015C67.7119 166.058 67.0899 166.025 66.4679 166.025V166.02ZM63.0257 162.569C62.3756 162.545 62.0155 162.653 62.0061 163.165C61.9921 163.71 62.2961 164.048 62.8292 164.086C63.311 164.123 63.6851 163.851 63.7132 163.372C63.7459 162.808 63.325 162.592 63.0257 162.569Z" fill="white"/>
<path d="M105.848 165.903C105.296 165.569 104.431 166.307 104.272 165.297C104.174 164.658 105.231 163.86 106.021 163.898C106.868 163.935 107.546 164.41 107.471 165.231C107.373 166.372 106.306 165.457 105.848 165.903Z" fill="white"/>
<path d="M66.4679 166.021C67.0899 166.021 67.7119 166.054 68.3293 166.012C69.1477 165.96 69.2272 166.42 69.1103 167.045C68.8858 168.247 67.5015 169.299 66.22 169.242C65.0648 169.195 63.7599 167.937 63.643 166.782C63.5963 166.312 63.7412 166.026 64.2557 166.026C64.9946 166.026 65.7289 166.026 66.4679 166.026C66.4679 166.026 66.4679 166.021 66.4679 166.016V166.021ZM67.8195 167.317C67.6044 166.697 67.0525 166.866 66.6596 166.913C66.1124 166.979 65.2285 166.481 65.0882 167.284C64.99 167.838 65.7897 168.172 66.3837 168.162C66.9496 168.153 67.5295 167.984 67.8148 167.317H67.8195Z" fill="white"/>
<path d="M63.0259 162.568C63.3205 162.592 63.7415 162.808 63.7134 163.371C63.6853 163.85 63.3112 164.123 62.8295 164.085C62.2963 164.043 61.9923 163.71 62.0063 163.165C62.0157 162.653 62.3805 162.55 63.0259 162.568Z" fill="white"/>
<path d="M67.8208 167.317C67.5355 167.984 66.9509 168.153 66.3897 168.162C65.7957 168.176 64.996 167.838 65.0942 167.284C65.2345 166.481 66.1137 166.979 66.6656 166.913C67.0585 166.866 67.6104 166.697 67.8255 167.317H67.8208Z" fill="white"/>
</svg>
