<svg viewBox="0 0 13 12" fill="none" xmlns="http://www.w3.org/2000/svg">
<path d="M3.06673 9.644L1.47715 11.2336C1.34104 11.3697 1.18305 11.4013 1.00319 11.3284C0.823329 11.2555 0.733398 11.1218 0.733398 10.9273V1.18567C0.733398 0.962058 0.820898 0.760322 0.995898 0.580461C1.1709 0.4006 1.37507 0.310669 1.6084 0.310669H11.5251C11.7487 0.310669 11.9504 0.4006 12.1303 0.580461C12.3101 0.760322 12.4001 0.962058 12.4001 1.18567V5.269H11.5251V1.18567H1.6084V8.769H8.98757V9.644H3.06673ZM10.7376 9.644H10.3001C10.1737 9.644 10.0692 9.60268 9.98652 9.52004C9.90388 9.4374 9.86257 9.33289 9.86257 9.2065V6.5815C9.86257 6.45511 9.90388 6.3506 9.98652 6.26796C10.0692 6.18532 10.1737 6.144 10.3001 6.144H11.3646C11.5202 6.144 11.6393 6.2072 11.7219 6.33359C11.8046 6.45997 11.8216 6.59122 11.773 6.72734L11.1313 8.62317H11.9188C12.0355 8.62317 12.1254 8.67178 12.1886 8.769C12.2518 8.86622 12.2591 8.96831 12.2105 9.07525L11.1605 11.5544C11.1119 11.6614 11.0292 11.7051 10.9126 11.6857C10.7959 11.6662 10.7376 11.5982 10.7376 11.4815V9.644Z" />
</svg>
