<svg viewBox="0 0 21 21" fill="none" xmlns="http://www.w3.org/2000/svg">
<path d="M6.06758 9.5231C6.36758 8.9231 6.68841 8.33143 7.03008 7.7481C7.37174 7.16477 7.73425 6.60643 8.11758 6.0731L6.14258 5.6731L3.41758 8.3981L6.06758 9.5231ZM18.9426 1.7231C17.2426 1.80643 15.7092 2.16893 14.3426 2.8106C12.9759 3.45227 11.6426 4.4231 10.3426 5.7231C9.82591 6.23977 9.29258 6.91477 8.74258 7.7481C8.19258 8.58143 7.70091 9.4731 7.26758 10.4231L10.5926 13.7481C11.5426 13.3148 12.4342 12.8231 13.2676 12.2731C14.1009 11.7231 14.7759 11.1898 15.2926 10.6731C16.5926 9.3731 17.5634 8.04393 18.2051 6.6856C18.8467 5.32727 19.2092 3.7981 19.2926 2.0981C19.2926 2.0481 19.2842 1.9981 19.2676 1.9481C19.2509 1.8981 19.2259 1.85643 19.1926 1.8231C19.1592 1.78977 19.1217 1.76477 19.0801 1.7481C19.0384 1.73143 18.9926 1.7231 18.9426 1.7231ZM13.0176 8.0231C12.6842 7.68977 12.5176 7.27727 12.5176 6.7856C12.5176 6.29393 12.6842 5.88143 13.0176 5.5481C13.3509 5.21477 13.7634 5.0481 14.2551 5.0481C14.7467 5.0481 15.1592 5.21477 15.4926 5.5481C15.8259 5.88143 15.9926 6.29393 15.9926 6.7856C15.9926 7.27727 15.8259 7.68977 15.4926 8.0231C15.1592 8.35643 14.7467 8.5231 14.2551 8.5231C13.7634 8.5231 13.3509 8.35643 13.0176 8.0231ZM11.4926 14.9731L12.6176 17.5981L15.3426 14.8731L14.9676 12.8981C14.4342 13.2814 13.8717 13.6481 13.2801 13.9981C12.6884 14.3481 12.0926 14.6731 11.4926 14.9731ZM20.8176 0.998101C20.8676 3.08143 20.5301 5.00227 19.8051 6.7606C19.0801 8.51893 17.9342 10.1814 16.3676 11.7481C16.3509 11.7648 16.3342 11.7773 16.3176 11.7856C16.3009 11.7939 16.2842 11.8064 16.2676 11.8231L16.8176 14.5731C16.8676 14.8231 16.8592 15.0648 16.7926 15.2981C16.7259 15.5314 16.6009 15.7398 16.4176 15.9231L12.8926 19.4481C12.7092 19.6314 12.4884 19.6981 12.2301 19.6481C11.9717 19.5981 11.7926 19.4481 11.6926 19.1981L9.99258 15.2731L5.76758 11.0231L1.81758 9.3481C1.56758 9.2481 1.42174 9.06477 1.38008 8.7981C1.33841 8.53143 1.40924 8.30643 1.59258 8.1231L5.09258 4.6231C5.27591 4.43977 5.48424 4.3106 5.71758 4.2356C5.95091 4.1606 6.19258 4.1481 6.44258 4.1981L9.19258 4.7481C9.20924 4.73143 9.22591 4.71893 9.24258 4.7106C9.25925 4.70227 9.27591 4.68977 9.29258 4.6731C10.8592 3.10643 12.5176 1.9606 14.2676 1.2356C16.0176 0.5106 17.9342 0.1731 20.0176 0.2231C20.1176 0.2231 20.2134 0.243934 20.3051 0.2856C20.3967 0.327267 20.4842 0.389767 20.5676 0.4731C20.6509 0.556434 20.7134 0.639767 20.7551 0.7231C20.7967 0.806434 20.8176 0.898101 20.8176 0.998101ZM2.49258 14.0481C3.07591 13.4648 3.78841 13.1689 4.63008 13.1606C5.47174 13.1523 6.18424 13.4398 6.76758 14.0231C7.35091 14.6064 7.63841 15.3189 7.63008 16.1606C7.62174 17.0023 7.32591 17.7148 6.74258 18.2981C6.30924 18.7314 5.63841 19.0898 4.73008 19.3731C3.82174 19.6564 2.45924 19.9231 0.642578 20.1731C0.892578 18.3564 1.15508 16.9898 1.43008 16.0731C1.70508 15.1564 2.05924 14.4814 2.49258 14.0481ZM3.54258 15.1231C3.30924 15.3731 3.10091 15.7648 2.91758 16.2981C2.73424 16.8314 2.57591 17.5148 2.44258 18.3481C3.27591 18.2148 3.95924 18.0564 4.49258 17.8731C5.02591 17.6898 5.41758 17.4814 5.66758 17.2481C5.98424 16.9648 6.14674 16.6106 6.15508 16.1856C6.16341 15.7606 6.01758 15.3898 5.71758 15.0731C5.40091 14.7731 5.03008 14.6273 4.60508 14.6356C4.18008 14.6439 3.82591 14.8064 3.54258 15.1231Z" />
</svg>
