<svg width="25" height="25" viewBox="0 0 25 25" fill="none" xmlns="http://www.w3.org/2000/svg">
<path d="M14.6484 14.6807L17.1484 17.1807" stroke="white" stroke-width="1.5" stroke-linejoin="round"/>
<path d="M17.0817 19.2058C16.504 18.6281 16.504 17.6915 17.0817 17.1139C17.6593 16.5362 18.5959 16.5362 19.1736 17.1139L22.2151 20.1554C22.7928 20.7331 22.7928 21.6697 22.2151 22.2473C21.6375 22.825 20.7009 22.825 20.1232 22.2473L17.0817 19.2058Z" stroke="white" stroke-width="1.5" stroke-linecap="round"/>
<path d="M16.6484 9.68066C16.6484 5.81467 13.5144 2.68066 9.64844 2.68066C5.78245 2.68066 2.64844 5.81467 2.64844 9.68066C2.64844 13.5467 5.78245 16.6807 9.64844 16.6807C13.5144 16.6807 16.6484 13.5467 16.6484 9.68066Z" stroke="white" stroke-width="1.5" stroke-linejoin="round"/>
</svg>
