<svg viewBox="0 0 25 25" fill="none" xmlns="http://www.w3.org/2000/svg">
<path d="M13.9172 22.8853H10.6172C10.4339 22.8853 10.2714 22.8269 10.1297 22.7103C9.98802 22.5936 9.90052 22.4436 9.86719 22.2603L9.46719 19.7353C9.15052 19.6186 8.81719 19.4603 8.46719 19.2603C8.11719 19.0603 7.80885 18.8519 7.54219 18.6353L5.21719 19.7103C5.03385 19.7936 4.85052 19.8061 4.66719 19.7478C4.48385 19.6894 4.34219 19.5686 4.24219 19.3853L2.59219 16.4603C2.49219 16.2936 2.46719 16.1186 2.51719 15.9353C2.56719 15.7519 2.66719 15.6019 2.81719 15.4853L4.96719 13.9103C4.93385 13.7603 4.91302 13.5894 4.90469 13.3978C4.89635 13.2061 4.89219 13.0353 4.89219 12.8853C4.89219 12.7353 4.89635 12.5644 4.90469 12.3728C4.91302 12.1811 4.93385 12.0103 4.96719 11.8603L2.81719 10.2853C2.66719 10.1686 2.56719 10.0186 2.51719 9.83525C2.46719 9.65192 2.49219 9.47692 2.59219 9.31025L4.24219 6.38525C4.34219 6.20192 4.48385 6.08109 4.66719 6.02275C4.85052 5.96442 5.03385 5.97692 5.21719 6.06025L7.54219 7.13525C7.80885 6.91859 8.11719 6.71025 8.46719 6.51025C8.81719 6.31025 9.15052 6.16025 9.46719 6.06025L9.86719 3.51025C9.90052 3.32692 9.98802 3.17692 10.1297 3.06025C10.2714 2.94359 10.4339 2.88525 10.6172 2.88525H13.9172C14.1005 2.88525 14.263 2.94359 14.4047 3.06025C14.5464 3.17692 14.6339 3.32692 14.6672 3.51025L15.0672 6.03525C15.3839 6.15192 15.7214 6.30609 16.0797 6.49775C16.438 6.68942 16.7422 6.90192 16.9922 7.13525L19.3172 6.06025C19.5005 5.97692 19.6839 5.96442 19.8672 6.02275C20.0505 6.08109 20.1922 6.20192 20.2922 6.38525L21.9422 9.28525C22.0422 9.45192 22.0714 9.63109 22.0297 9.82275C21.988 10.0144 21.8839 10.1686 21.7172 10.2853L19.5672 11.8103C19.6005 11.9769 19.6214 12.1561 19.6297 12.3478C19.638 12.5394 19.6422 12.7186 19.6422 12.8853C19.6422 13.0519 19.638 13.2269 19.6297 13.4103C19.6214 13.5936 19.6005 13.7686 19.5672 13.9353L21.7172 15.4853C21.8672 15.6019 21.9672 15.7519 22.0172 15.9353C22.0672 16.1186 22.0422 16.2936 21.9422 16.4603L20.2922 19.3853C20.1922 19.5686 20.0505 19.6894 19.8672 19.7478C19.6839 19.8061 19.5005 19.7936 19.3172 19.7103L16.9922 18.6353C16.7255 18.8519 16.4214 19.0644 16.0797 19.2728C15.738 19.4811 15.4005 19.6353 15.0672 19.7353L14.6672 22.2603C14.6339 22.4436 14.5464 22.5936 14.4047 22.7103C14.263 22.8269 14.1005 22.8853 13.9172 22.8853ZM12.2672 16.1353C13.1672 16.1353 13.9339 15.8186 14.5672 15.1853C15.2005 14.5519 15.5172 13.7853 15.5172 12.8853C15.5172 11.9853 15.2005 11.2186 14.5672 10.5853C13.9339 9.95192 13.1672 9.63525 12.2672 9.63525C11.3672 9.63525 10.6005 9.95192 9.96719 10.5853C9.33385 11.2186 9.01719 11.9853 9.01719 12.8853C9.01719 13.7853 9.33385 14.5519 9.96719 15.1853C10.6005 15.8186 11.3672 16.1353 12.2672 16.1353ZM12.2672 14.6353C11.7839 14.6353 11.3714 14.4644 11.0297 14.1228C10.688 13.7811 10.5172 13.3686 10.5172 12.8853C10.5172 12.4019 10.688 11.9894 11.0297 11.6478C11.3714 11.3061 11.7839 11.1353 12.2672 11.1353C12.7505 11.1353 13.163 11.3061 13.5047 11.6478C13.8464 11.9894 14.0172 12.4019 14.0172 12.8853C14.0172 13.3686 13.8464 13.7811 13.5047 14.1228C13.163 14.4644 12.7505 14.6353 12.2672 14.6353ZM11.1672 21.3853H13.3672L13.7172 18.5853C14.2672 18.4519 14.788 18.2436 15.2797 17.9603C15.7714 17.6769 16.2172 17.3353 16.6172 16.9353L19.2672 18.0853L20.2672 16.2853L17.9172 14.5603C17.9839 14.2769 18.038 13.9978 18.0797 13.7228C18.1214 13.4478 18.1422 13.1686 18.1422 12.8853C18.1422 12.6019 18.1255 12.3228 18.0922 12.0478C18.0589 11.7728 18.0005 11.4936 17.9172 11.2103L20.2672 9.48525L19.2672 7.68525L16.6172 8.83525C16.2339 8.40192 15.8005 8.03942 15.3172 7.74775C14.8339 7.45609 14.3005 7.26859 13.7172 7.18525L13.3672 4.38525H11.1672L10.8172 7.18525C10.2505 7.30192 9.72135 7.50192 9.22969 7.78525C8.73802 8.06859 8.30052 8.41859 7.91719 8.83525L5.26719 7.68525L4.26719 9.48525L6.61719 11.2103C6.55052 11.4936 6.49635 11.7728 6.45469 12.0478C6.41302 12.3228 6.39219 12.6019 6.39219 12.8853C6.39219 13.1686 6.41302 13.4478 6.45469 13.7228C6.49635 13.9978 6.55052 14.2769 6.61719 14.5603L4.26719 16.2853L5.26719 18.0853L7.91719 16.9353C8.31719 17.3353 8.76302 17.6769 9.25469 17.9603C9.74635 18.2436 10.2672 18.4519 10.8172 18.5853L11.1672 21.3853Z" />
</svg>
