<svg viewBox="0 0 10 11" fill="none" xmlns="http://www.w3.org/2000/svg">
<path d="M8.33333 7.63265C7.9375 7.63265 7.57222 7.77296 7.28611 8.00727L4.40833 5.90408C4.45652 5.63689 4.45652 5.36311 4.40833 5.09592L7.28611 2.99273C7.57222 3.22704 7.9375 3.36735 8.33333 3.36735C9.25278 3.36735 10 2.6125 10 1.68367C10 0.754847 9.25278 0 8.33333 0C7.41389 0 6.66667 0.754847 6.66667 1.68367C6.66667 1.84643 6.68889 2.00217 6.73194 2.15089L3.99861 4.15025C3.59306 3.60727 2.94861 3.2551 2.22222 3.2551C0.994444 3.2551 0 4.25969 0 5.5C0 6.74031 0.994444 7.7449 2.22222 7.7449C2.94861 7.7449 3.59306 7.39273 3.99861 6.84974L6.73194 8.84911C6.68889 8.99783 6.66667 9.15497 6.66667 9.31633C6.66667 10.2452 7.41389 11 8.33333 11C9.25278 11 10 10.2452 10 9.31633C10 8.3875 9.25278 7.63265 8.33333 7.63265ZM8.33333 0.954082C8.73194 0.954082 9.05556 1.28099 9.05556 1.68367C9.05556 2.08635 8.73194 2.41327 8.33333 2.41327C7.93472 2.41327 7.61111 2.08635 7.61111 1.68367C7.61111 1.28099 7.93472 0.954082 8.33333 0.954082ZM2.22222 6.73469C1.54861 6.73469 1 6.18048 1 5.5C1 4.81952 1.54861 4.26531 2.22222 4.26531C2.89583 4.26531 3.44444 4.81952 3.44444 5.5C3.44444 6.18048 2.89583 6.73469 2.22222 6.73469ZM8.33333 10.0459C7.93472 10.0459 7.61111 9.719 7.61111 9.31633C7.61111 8.91365 7.93472 8.58673 8.33333 8.58673C8.73194 8.58673 9.05556 8.91365 9.05556 9.31633C9.05556 9.719 8.73194 10.0459 8.33333 10.0459Z" />
</svg>
