<svg viewBox="0 0 251 250" fill="none" xmlns="http://www.w3.org/2000/svg">
<path d="M72.1762 88.3313C71.5473 88.1952 70.9069 88.1186 70.2637 88.1025C70.8974 88.1975 71.5299 88.265 72.1762 88.3313Z" fill="#38A1FF"/>
<path d="M156.422 53.57C156.224 48.9362 155.842 46.1625 157.81 42.445C150.56 42.9562 143.344 43.8762 136.111 44.5587C135.504 44.6162 135.149 44.6062 134.751 45.0312C133.946 45.8135 132.983 46.4142 131.927 46.7928C130.87 47.1715 129.745 47.3192 128.626 47.2262C126.821 47.16 123.376 46.8512 122.457 44.8687C121.99 43.8687 123.676 45.4425 90.5098 41.085C92.9748 45.2187 92.5535 48.0612 92.341 53.0312C92.216 55.9062 92.4323 55.1562 92.3148 58.0312C92.2335 59.9975 92.6973 60.9937 95.2635 60.9675C102.586 60.8912 106.1 58.8312 109.389 61.17C111.984 63.0125 111.697 66.3925 109.739 67.295C110.581 67.1998 111.434 67.2813 112.244 67.5342C113.053 67.7871 113.801 68.2058 114.44 68.7637C115.088 69.3743 115.544 70.1607 115.752 71.0266C115.96 71.8925 115.911 72.8003 115.611 73.6387C114.817 75.5387 112.729 76.3062 110.87 76.8887C111.467 76.9311 112.047 77.1111 112.564 77.4147C113.08 77.7182 113.52 78.1372 113.847 78.6387C114.055 79.2327 114.069 79.8773 113.888 80.4799C113.706 81.0825 113.339 81.612 112.837 81.9925C111.843 82.6761 110.698 83.1076 109.5 83.25C111.116 83.3987 111.841 85.7675 111.125 87.3175C110.283 88.7723 108.93 89.8621 107.33 90.375C105.575 91.1284 103.765 91.7452 101.915 92.22C102.768 94.5374 103.413 96.9265 103.841 99.3587C103.931 100.735 104.143 102.101 104.474 103.44C104.8 104.516 117.404 101.512 119.694 101.565C124.151 101.671 128.879 101.726 133.337 101.66C138.671 101.579 149.069 104.352 149.095 104.232C149.62 100.676 150.132 97.12 150.685 93.565C147.418 93.0962 144.225 92.2089 141.185 90.925C139.573 90.4123 138.204 89.3274 137.337 87.875C136.607 86.3137 137.351 83.9562 138.98 83.8075C137.771 83.6568 136.614 83.2229 135.605 82.5412C135.096 82.1666 134.722 81.638 134.538 81.0338C134.353 80.4297 134.368 79.7822 134.581 79.1875C134.918 78.6825 135.366 78.2619 135.892 77.9584C136.417 77.6549 137.005 77.4766 137.611 77.4375C135.726 76.8575 133.611 76.09 132.804 74.1875C132.498 73.3475 132.449 72.4358 132.663 71.568C132.876 70.7002 133.342 69.9152 134.002 69.3125C134.653 68.7527 135.412 68.3334 136.233 68.0808C137.053 67.8283 137.917 67.748 138.77 67.845C136.705 66.8637 136.575 63.5062 139.134 61.72C142.49 59.3737 146.045 61.4425 153.477 61.5187C156.129 61.5462 156.55 60.485 156.467 58.5825C156.337 55.7112 156.545 56.4387 156.422 53.57Z" fill="#38A1FF"/>
<path d="M136.274 234.209C135.96 230.162 135.998 229.937 135.708 229.373C134.931 227.863 133.229 228.444 132.179 229.249C131.648 229.735 130.955 230.006 130.235 230.009C129.515 230.011 128.821 229.745 128.286 229.262C128.197 229.181 128.09 229.121 127.974 229.089C127.857 229.057 127.735 229.053 127.616 229.077C127.498 229.102 127.387 229.154 127.293 229.23C127.199 229.305 127.124 229.402 127.074 229.512C123.671 228.875 120.169 229.008 116.824 229.902C115.45 228.573 114.407 226.94 113.78 225.135C113.61 224.699 113.484 224.248 113.405 223.787C114.345 225.163 115.161 226.619 115.843 228.139C116.085 228.639 116.891 228.287 116.731 227.764C116.145 226.144 115.8 224.446 115.709 222.726C115.709 222.282 115.8 220.815 116.449 221.635C117.751 223.282 117.469 225.622 117.93 227.549C117.956 227.631 118.007 227.702 118.076 227.753C118.145 227.804 118.229 227.832 118.315 227.832C118.4 227.832 118.484 227.804 118.553 227.753C118.622 227.702 118.673 227.631 118.699 227.549C119.017 226.001 118.881 224.395 118.308 222.924C117.999 221.966 117.338 220.31 116.126 220.23C114.519 220.122 114.605 222.75 114.846 224.297C114.417 223.627 113.94 222.987 113.419 222.385C113.37 222.337 113.311 222.301 113.247 222.279C113.182 222.258 113.113 222.251 113.045 222.261C112.978 222.27 112.913 222.294 112.856 222.332C112.8 222.369 112.752 222.42 112.718 222.479C112.161 223.776 112.894 225.429 113.459 226.614C114.096 227.949 115.004 229.137 116.125 230.102C110.896 231.665 105.978 234.126 101.593 237.375C100.433 237.996 99.5491 239.029 99.1152 240.271C98.9671 240.846 99.0232 241.454 99.274 241.992C99.5248 242.53 99.9547 242.964 100.49 243.22C101.576 243.751 102.281 243.72 109.42 243.72C113.786 243.72 117.038 243.736 119.305 243.046C122.844 241.97 123.529 241.686 128.949 242.44C130.361 242.777 131.846 242.63 133.165 242.022C134.316 241.363 135.226 240.353 135.764 239.141C136.343 237.565 136.519 235.869 136.274 234.209ZM132.866 240.377C131.616 241.332 130.185 241.092 128.731 240.89C120.326 239.716 120.393 241.831 116.044 242.089C114.819 242.16 105.648 242.349 102.373 242.115C101.241 242.035 100.058 241.455 100.824 240.162C101.695 239.119 102.773 238.268 103.989 237.662C118.489 228.037 125.968 231.412 127.739 230.766C128.422 231.253 129.231 231.534 130.069 231.574C131.217 231.594 132.331 231.186 133.194 230.43C134.65 229.33 134.434 230.43 134.635 232.814C134.875 235.695 135.341 238.492 132.866 240.375V240.377Z" fill="white"/>
<path d="M174.699 238.708C173.615 237.676 172.407 236.785 171.102 236.054C167.259 233.422 163.022 231.417 158.55 230.115C159.676 229.154 160.585 227.965 161.217 226.626C161.781 225.441 162.514 223.789 161.957 222.491C161.923 222.432 161.876 222.382 161.819 222.344C161.762 222.307 161.698 222.282 161.63 222.273C161.563 222.264 161.494 222.271 161.43 222.292C161.365 222.314 161.306 222.35 161.257 222.398C159.415 224.496 159.831 225.033 159.951 223.179C160.011 222.236 160.017 220.145 158.55 220.243C157.379 220.32 156.72 221.899 156.409 222.829C155.811 224.33 155.665 225.974 155.991 227.556C156.017 227.638 156.068 227.709 156.137 227.76C156.206 227.81 156.289 227.837 156.375 227.837C156.461 227.837 156.544 227.81 156.613 227.76C156.682 227.709 156.733 227.638 156.759 227.556C157.249 225.541 156.961 222.883 158.496 221.346C159.039 221.835 158.981 221.618 158.981 222.734C158.893 224.458 158.553 226.16 157.971 227.785C157.812 228.298 158.617 228.66 158.86 228.16C159.542 226.641 160.358 225.185 161.297 223.81C161.067 224.869 160.695 225.893 160.194 226.854C159.565 227.979 158.786 229.012 157.876 229.925C150.321 228.414 149.492 229.476 147.641 229.521C147.592 229.411 147.517 229.314 147.422 229.239C147.328 229.163 147.217 229.111 147.099 229.086C146.981 229.062 146.858 229.066 146.742 229.098C146.625 229.13 146.518 229.19 146.429 229.271C145.971 229.699 145.384 229.963 144.76 230.021C144.136 230.08 143.51 229.93 142.98 229.595C141.97 228.936 140.881 227.874 139.614 228.679C138.489 229.395 138.667 231.198 138.576 232.355C138.362 233.935 138.308 235.533 138.415 237.124C138.527 238.478 139.092 239.754 140.017 240.748C140.943 241.743 142.176 242.397 143.519 242.605C146.077 242.825 149.334 241.341 153.269 242.376C154.712 242.865 156.189 243.251 157.686 243.534C159.619 243.766 171.109 243.811 172.65 243.643C173.207 243.639 173.755 243.495 174.242 243.225C174.73 242.954 175.141 242.565 175.439 242.094C175.65 241.517 175.693 240.893 175.562 240.293C175.431 239.693 175.131 239.143 174.699 238.708ZM173.742 241.698C172.907 242.398 171.197 242.148 170.214 242.169C168.665 242.204 167.116 242.203 165.567 242.196C159.399 242.169 157.845 242.125 156.462 241.765C153.93 241.105 152.687 240.14 148.031 240.62C145.112 240.919 142.38 242.13 140.516 238.923C139.474 237.129 139.851 234.873 140.071 232.068C140.109 231.596 139.99 230.045 140.542 229.943C141.121 229.831 141.865 230.76 142.334 231.02C143.049 231.411 143.86 231.591 144.673 231.538C145.486 231.486 146.268 231.203 146.926 230.724C148.856 231.349 157.094 227.893 172.396 238.818C173.125 239.336 174.9 240.728 173.742 241.698Z" fill="white"/>
<path d="M122.886 29.1791C122.937 28.9091 123.115 28.5441 123.425 28.5191C123.761 28.4903 123.88 28.8166 124.017 29.0441C124.073 29.1373 124.158 29.2098 124.259 29.2505C124.36 29.2913 124.471 29.298 124.576 29.2697C124.681 29.2415 124.774 29.1797 124.841 29.0939C124.907 29.0081 124.944 28.9028 124.946 28.7941C124.925 28.6044 124.864 28.4213 124.768 28.2565C124.671 28.0917 124.542 27.9489 124.387 27.8373C124.232 27.7257 124.055 27.6477 123.869 27.6084C123.682 27.5691 123.489 27.5693 123.302 27.6091C123.132 27.6429 122.971 27.7117 122.829 27.8111C122.687 27.9106 122.567 28.0385 122.477 28.1868C122.387 28.335 122.329 28.5003 122.307 28.6722C122.284 28.8442 122.297 29.0189 122.346 29.1853C122.437 29.4091 122.828 29.4741 122.886 29.1791Z" fill="white"/>
<path d="M127.25 29.447C127.261 29.3846 127.286 29.3254 127.323 29.2737C127.36 29.222 127.408 29.1792 127.463 29.1482C127.518 29.1172 127.58 29.0989 127.643 29.0946C127.707 29.0903 127.77 29.1001 127.829 29.1233C128.112 29.2583 128.139 29.5683 128.287 29.797C128.347 29.8949 128.437 29.9706 128.544 30.0129C128.651 30.0551 128.768 30.0616 128.879 30.0313C128.99 30.001 129.088 29.9356 129.158 29.8449C129.229 29.7542 129.268 29.6431 129.27 29.5283C129.25 29.1348 129.082 28.7635 128.8 28.4888C128.517 28.2141 128.142 28.0563 127.748 28.047C127.567 28.0442 127.388 28.0841 127.226 28.1635C127.063 28.2428 126.922 28.3594 126.813 28.5038C126.704 28.6481 126.631 28.8162 126.599 28.9942C126.567 29.1722 126.578 29.3552 126.63 29.5283C126.651 29.6009 126.698 29.6636 126.761 29.7051C126.824 29.7465 126.9 29.7639 126.975 29.754C127.05 29.7442 127.119 29.7078 127.17 29.6515C127.22 29.5952 127.249 29.5226 127.25 29.447Z" fill="white"/>
<path d="M125.216 29.8928C124.867 30.5556 124.569 31.2443 124.326 31.9528C123.983 32.6365 123.786 33.3839 123.747 34.1478C123.803 34.9565 124.977 36.0228 125.592 35.0778C125.619 35.0312 125.634 34.9791 125.637 34.9256C125.64 34.8721 125.631 34.8186 125.61 34.7692C125.59 34.7198 125.558 34.6759 125.517 34.6407C125.477 34.6056 125.429 34.5802 125.377 34.5665C125.296 34.539 125.188 34.5403 125.107 34.5115C124.02 34.1265 125.206 32.8865 125.741 30.1215C125.801 29.8103 125.391 29.5828 125.216 29.8928Z" fill="white"/>
<path d="M122.509 36.6002C122.47 36.8592 122.486 37.1235 122.554 37.3762C122.623 37.6289 122.744 37.8646 122.908 38.0684C123.073 38.2722 123.278 38.4395 123.51 38.5599C123.743 38.6803 123.998 38.7511 124.259 38.7677C124.501 38.7614 124.738 38.6906 124.943 38.5627C125.149 38.4349 125.317 38.2546 125.43 38.0402C126.009 36.9677 125.352 36.2327 124.892 36.6265C124.55 36.9177 124.73 37.8365 124.142 37.7715C123.508 37.7015 123.367 36.849 122.997 36.4652C122.96 36.4294 122.915 36.4039 122.865 36.3911C122.815 36.3783 122.763 36.3788 122.714 36.3924C122.665 36.4061 122.62 36.4325 122.584 36.469C122.548 36.5054 122.522 36.5507 122.509 36.6002Z" fill="white"/>
<path d="M70.0484 88.5074C72.4146 89.1412 72.5571 88.7687 77.9009 90.3387C82.9009 91.8087 88.1171 93.7012 93.7121 94.0887C95.8471 94.2349 99.6059 94.1824 101.471 93.0387C101.553 92.9925 101.618 92.92 101.654 92.8326C101.691 92.7452 101.697 92.6482 101.671 92.5571C101.646 92.466 101.59 92.3862 101.514 92.3304C101.437 92.2747 101.344 92.2463 101.25 92.2499C98.5209 92.3199 95.5409 93.9887 85.4509 91.2399C77.9321 89.1912 73.5384 87.5937 70.1371 87.8049C70.054 87.8111 69.9756 87.8459 69.9152 87.9033C69.8547 87.9607 69.816 88.0372 69.8056 88.1199C69.7951 88.2026 69.8136 88.2863 69.8579 88.357C69.9021 88.4276 69.9694 88.4807 70.0484 88.5074Z" fill="white"/>
<path d="M151.357 93.6925C157.107 95.4738 166.715 90.4738 173.732 89.2613C175.806 88.9025 176.215 89.1363 176.682 88.6288C176.762 88.548 176.807 88.4391 176.807 88.3256C176.807 88.2122 176.762 88.1032 176.682 88.0225C175.967 87.4325 174.73 87.8238 173.895 87.955C170.641 88.5642 167.443 89.438 164.331 90.5675C157.206 92.8975 156.844 92.6238 151.415 93.0188C151.337 93.0292 151.264 93.0659 151.21 93.123C151.156 93.1801 151.122 93.254 151.116 93.3325C151.109 93.4111 151.129 93.4896 151.173 93.5551C151.217 93.6205 151.282 93.669 151.357 93.6925Z" fill="white"/>
<path d="M85.4565 45.4886C86.399 45.4311 87.6403 45.5286 87.854 44.3973C88.0698 43.1774 88.0332 41.9263 87.7465 40.7211C87.599 40.0598 86.564 40.3298 86.7228 41.0036C86.9154 41.8063 87.0103 42.6293 87.0053 43.4548C87.0053 43.8586 87.0478 44.3061 86.6553 44.5048C86.2336 44.6398 85.8012 44.7389 85.3628 44.8011C85.281 44.8235 85.2101 44.8749 85.1634 44.9457C85.1167 45.0165 85.0972 45.1018 85.1087 45.1859C85.1201 45.2699 85.1617 45.3469 85.2257 45.4026C85.2897 45.4583 85.3717 45.4888 85.4565 45.4886Z" fill="white"/>
<path d="M161.097 39.6559C159.825 41.0121 159.774 43.3609 160.113 45.0709C160.135 45.1455 160.173 45.2143 160.225 45.2722C160.277 45.33 160.342 45.3755 160.414 45.4052C160.486 45.4349 160.563 45.4482 160.641 45.444C160.719 45.4398 160.794 45.4182 160.863 45.3809C161.52 45.0259 162.103 45.2559 162.789 45.1384C162.856 45.1188 162.918 45.082 162.967 45.0317C163.015 44.9814 163.05 44.9192 163.068 44.8513C163.086 44.7833 163.085 44.712 163.067 44.6442C163.049 44.5764 163.013 44.5145 162.964 44.4646C162.575 44.2031 162.116 44.0657 161.647 44.0706C161.179 44.0755 160.722 44.2225 160.339 44.4921C160.589 44.5996 160.839 44.6934 161.089 44.8009C160.806 43.1719 160.988 41.4961 161.614 39.9659C161.63 39.9004 161.624 39.8317 161.598 39.7697C161.572 39.7078 161.527 39.6557 161.469 39.6211C161.411 39.5866 161.344 39.5713 161.277 39.5775C161.21 39.5838 161.147 39.6112 161.097 39.6559Z" fill="white"/>
<path d="M146.697 64.5459C146.299 65.1499 146.043 65.8362 145.947 66.5534C145.872 67.1784 145.804 67.9746 146.337 68.4121C146.42 68.4784 146.587 68.5059 146.647 68.3709C146.974 67.5734 146.351 66.6134 147.254 64.8421C147.293 64.7684 147.301 64.682 147.277 64.6021C147.253 64.5222 147.197 64.4552 147.124 64.4159C147.05 64.3766 146.964 64.3682 146.884 64.3926C146.804 64.417 146.737 64.4721 146.697 64.5459Z" fill="white"/>
<path d="M146.322 73.0453C145.707 73.2722 145.191 73.7046 144.859 74.2693C144.527 74.8339 144.402 75.4959 144.503 76.1428C144.669 76.8928 145.86 78.5778 146.739 77.6916C146.786 77.6426 146.817 77.58 146.827 77.5127C146.836 77.4454 146.824 77.3768 146.793 77.3166C146.67 77.1298 146.49 76.9877 146.28 76.9116C145.259 76.3528 144.94 74.9628 146.712 73.5041C146.97 73.2903 146.603 72.9216 146.322 73.0453Z" fill="white"/>
<path d="M145.375 83.0522C145.247 84.0311 145.431 85.0253 145.901 85.8934C146.878 87.3197 148.217 86.6759 147.776 86.2309C146.937 85.3922 146.297 85.8209 146.026 83.0522C146.026 82.9658 145.991 82.883 145.93 82.8219C145.869 82.7609 145.787 82.7266 145.7 82.7266C145.614 82.7266 145.531 82.7609 145.47 82.8219C145.409 82.883 145.375 82.9658 145.375 83.0522Z" fill="white"/>
<path d="M95.5001 66.1903C95.9865 66.6011 96.3434 67.1441 96.5275 67.7535C96.7116 68.363 96.7151 69.0127 96.5376 69.6241C96.4046 69.9059 96.3759 70.2256 96.4563 70.5266C96.4851 70.6078 96.5813 70.7153 96.6863 70.7016C98.1951 70.5091 98.0388 66.5253 95.8238 65.6516C95.4901 65.5178 95.3013 65.9616 95.5001 66.1903Z" fill="white"/>
<path d="M96.7301 73.5158C97.1645 73.6665 97.53 73.9687 97.7596 74.367C97.9892 74.7654 98.0675 75.2331 97.9801 75.6845C97.9139 76.4345 97.3214 77.327 97.6439 78.0595C97.9814 78.827 98.6314 79.3095 98.7876 80.1845C98.9826 81.2745 98.2876 81.6645 97.5089 82.177C97.4771 82.1969 97.4509 82.2246 97.4328 82.2574C97.4146 82.2902 97.4051 82.327 97.4051 82.3645C97.4051 82.402 97.4146 82.4389 97.4328 82.4717C97.4509 82.5045 97.4771 82.5321 97.5089 82.552C98.3489 83.1508 99.2676 82.1995 99.5689 81.4608C99.7299 80.9466 99.7638 80.401 99.6675 79.8709C99.5713 79.3407 99.3479 78.8418 99.0164 78.417C98.8151 78.107 98.5326 77.852 98.5326 77.4345C98.6013 77.0692 98.6957 76.7091 98.8151 76.357C98.9431 75.757 98.9384 75.1363 98.8014 74.5383C98.6854 74.0814 98.4321 73.6712 98.0755 73.3629C97.719 73.0547 97.2764 72.8632 96.8076 72.8145C96.4064 72.7845 96.3401 73.4058 96.7301 73.5158Z" fill="white"/>
<path d="M98.1851 86.5397C98.3251 86.8247 98.4067 87.1349 98.4252 87.4519C98.4436 87.769 98.3985 88.0865 98.2926 88.3859C98.1051 88.9522 97.6151 89.2997 97.3901 89.8134C97.0988 90.4772 98.6276 90.4884 99.1676 88.6284C99.2837 88.2194 99.3113 87.7903 99.2485 87.3698C99.1858 86.9493 99.0342 86.547 98.8038 86.1897C98.7541 86.1142 98.6777 86.0604 98.5899 86.0392C98.5021 86.018 98.4095 86.031 98.3309 86.0755C98.2522 86.1199 98.1934 86.1926 98.1664 86.2788C98.1393 86.365 98.146 86.4582 98.1851 86.5397Z" fill="white"/>
<path d="M84.9174 39.3202C85.4943 38.9409 86.1728 38.7456 86.8631 38.7601C87.5535 38.7746 88.2231 38.9982 88.7836 39.4015C89.1474 39.6965 89.8786 41.1277 90.3999 40.3165C90.4426 40.2428 90.4651 40.1591 90.4651 40.074C90.4651 39.9888 90.4426 39.9052 90.3999 39.8315C90.1328 39.3281 89.7526 38.8936 89.289 38.5621C88.8255 38.2306 88.2914 38.0113 87.7287 37.9212C87.166 37.8312 86.5901 37.873 86.0463 38.0433C85.5026 38.2136 85.0057 38.5078 84.5949 38.9027C84.5498 38.9486 84.5229 39.0093 84.519 39.0735C84.5152 39.1377 84.5348 39.2012 84.5741 39.2521C84.6134 39.303 84.6699 39.338 84.733 39.3505C84.7961 39.363 84.8616 39.3523 84.9174 39.3202Z" fill="white"/>
<path d="M157.58 41.7855C158.281 40.2056 159.53 38.9329 161.096 38.203C162.518 37.6555 163.018 37.8955 163.534 38.9967C163.909 39.7942 163.765 40.7067 164.159 41.4755C164.178 41.5083 164.204 41.5363 164.236 41.5574C164.267 41.5785 164.303 41.5922 164.341 41.5973C164.378 41.6025 164.417 41.5991 164.453 41.5873C164.489 41.5755 164.522 41.5556 164.549 41.5292C165.324 40.7142 164.819 39.2667 164.36 38.3917C164.148 37.859 163.745 37.425 163.229 37.1755C162.712 36.926 162.122 36.8792 161.573 37.0442C159.485 37.5192 157.248 39.4192 157.128 41.678C157.11 41.9067 157.461 41.9892 157.58 41.7855Z" fill="white"/>
<path d="M212.707 58.3376C208.028 47.0451 195.486 43.6913 183.332 42.4451C177.053 41.8912 170.744 41.7696 164.448 42.0813C164.528 42.6397 164.528 43.2067 164.448 43.7651C163.672 49.0951 166.512 56.2863 171.358 61.6238C172.23 62.6222 173.332 63.393 174.569 63.8694C175.805 64.3458 177.14 64.5133 178.456 64.3576L178.537 65.0851C176.388 72.6264 176.458 80.6276 178.74 88.1301C185.42 87.2332 191.96 85.4909 198.201 82.9451C213.125 76.6613 216.202 66.7751 212.707 58.3376ZM194.821 58.1088C194.362 58.5348 193.763 58.7788 193.137 58.7951C189.671 59.5112 186.303 60.637 183.103 62.1488C181.969 62.8243 180.773 63.3926 179.533 63.8463C179.468 63.8651 179.398 63.8615 179.335 63.8361C179.272 63.8106 179.219 63.7648 179.185 63.7059C179.151 63.6469 179.137 63.5783 179.147 63.5108C179.156 63.4434 179.188 63.3811 179.237 63.3338C180.5 61.9763 185.125 60.0388 186.75 59.4151C188.804 58.6204 190.922 57.9986 193.08 57.5563C193.348 57.4526 193.634 57.4051 193.922 57.4168C194.209 57.4284 194.491 57.4988 194.75 57.6238C194.79 57.6477 194.825 57.6804 194.851 57.7194C194.877 57.7584 194.894 57.8028 194.901 57.8493C194.908 57.8958 194.904 57.9432 194.89 57.9881C194.876 58.033 194.853 58.0743 194.821 58.1088Z" fill="#38A1FF"/>
<path d="M84.7304 40.3161C75.9504 39.1836 67.0066 38.2361 58.4129 40.3036C31.5129 46.7711 28.1254 78.4587 59.0004 86.1099C62.6741 86.9944 66.398 87.6556 70.1516 88.0899C72.5533 80.4386 72.6797 72.2542 70.5154 64.5324L70.5966 63.8061C71.8968 63.9604 73.215 63.7915 74.4343 63.3144C75.6536 62.8374 76.7364 62.0668 77.5866 61.0711C82.3541 55.7249 85.1541 48.5574 84.4016 43.2124C84.2606 42.2348 84.3739 41.2373 84.7304 40.3161ZM69.5779 63.5899C68.3059 62.9387 67.1067 62.1543 66.0004 61.2499C58.2354 55.9236 55.8454 56.9837 54.4841 56.0649C54.3943 56.0081 54.3227 55.9267 54.2778 55.8304C54.2329 55.7341 54.2166 55.6269 54.2308 55.5216C54.245 55.4163 54.2892 55.3173 54.358 55.2363C54.4268 55.1553 54.5175 55.0958 54.6191 55.0649C55.3251 54.8944 56.0652 54.9317 56.7504 55.1724C58.9231 55.6845 61.0082 56.5152 62.9379 57.6374C64.7291 58.6636 68.7829 61.4299 69.9379 63.1049C70.1004 63.3361 69.8466 63.6987 69.5779 63.5899Z" fill="#38A1FF"/>
<path d="M126.684 106.5C127.237 106.59 127.802 106.586 128.354 106.486C129.905 106.162 129.729 104.141 128.664 103.294C128.017 102.781 125.171 103.02 125.821 104.331C125.873 104.435 125.892 104.553 125.877 104.668C125.862 104.783 125.814 104.891 125.737 104.979C125.661 105.067 125.561 105.13 125.449 105.161C125.336 105.192 125.218 105.189 125.107 105.152C125.534 105.835 125.942 106.394 126.684 106.5Z" fill="white"/>
<path d="M149.89 107.672C149.851 107.601 149.789 107.544 149.715 107.511C150.271 106.348 150.534 105.067 150.483 103.78C150.532 103.459 150.507 103.131 150.41 102.821C150.313 102.511 150.146 102.228 149.923 101.992C149.699 101.757 149.425 101.576 149.12 101.463C148.816 101.351 148.489 101.309 148.166 101.342C135.121 101.293 138.601 101.756 132.166 101.248C130.389 101.107 128.208 101.273 126.429 101.123C118.794 100.498 111.115 100.465 103.465 100.597C103.308 100.603 103.155 100.649 103.021 100.73C102.887 100.811 102.775 100.925 102.697 101.061C102.619 101.197 102.577 101.351 102.574 101.508C102.572 101.665 102.61 101.82 102.684 101.958C102.174 104.083 102.203 107.795 104.166 108.746C102.125 114.731 101.916 123.073 102.469 129.447C103.803 144.73 109.194 158.512 111.763 175.941C114.728 196.066 118.2 204.052 125.81 224.306C125.855 224.434 125.934 224.548 126.038 224.636C126.143 224.724 126.268 224.783 126.403 224.806C127.76 226.318 131.316 225.476 133.298 224.941C134.211 224.817 135.083 224.48 135.844 223.958C139.054 225.94 143.516 225.726 145.46 224.47C145.593 224.461 145.72 224.414 145.828 224.336C145.935 224.257 146.018 224.15 146.066 224.026C146.146 223.944 146.206 223.846 146.241 223.737C146.276 223.629 146.285 223.514 146.269 223.401C146.86 221.482 148.339 214.35 148.679 212.651C153.881 186.68 148.996 182.867 150.645 166.575C151.904 154.145 154.43 149.582 154.43 132.001C154.429 123.673 154.585 114.935 149.89 107.672ZM126.159 102.083C126.903 101.871 127.688 101.838 128.448 101.988C130.495 102.337 131.356 105.718 129.755 107.026C128.89 107.596 127.837 107.808 126.819 107.618C126.328 107.586 125.853 107.432 125.437 107.17C125.021 106.908 124.677 106.547 124.435 106.118C122.793 103.722 124.093 102.083 126.159 102.083ZM128.718 224.256C128.246 224.206 127.778 224.125 127.316 224.013C125.308 217.992 116.923 199.981 113.74 179.028C112.711 171.176 111.182 163.398 109.161 155.741C106.173 143.592 103.263 132.666 103.76 120.103C103.909 116.36 104.442 112.641 105.35 109.006C107.505 109.153 109.673 109.195 111.85 109.207C111.214 112.906 110.048 118.798 107.136 121.127C106.65 121.516 106.06 121.752 105.546 122.097C104.969 122.49 105.103 123.632 105.938 123.552C110.638 123.095 113.04 113.943 113.063 109.207C114.18 109.221 122.261 109.423 125.198 109.503C125.11 111.536 125.753 113.491 125.723 122.582C125.541 124.628 125.583 126.687 125.848 128.723C126.209 130.202 127.07 131.51 128.285 132.427C130.293 144.212 129.865 156.24 130.4 168.132C130.943 180.173 133.178 192.092 133.309 204.147C133.378 210.437 132.515 216.897 134.293 223.043C132.514 223.751 130.63 224.161 128.718 224.256ZM152.57 141.707C151.748 153.082 148.346 163.67 148.731 175.5C148.981 183.078 150.124 188.483 149.216 198.545C148.201 209.795 145.388 219.538 144.841 223.218C143.586 223.941 142.134 224.247 140.694 224.093C139.016 224.066 137.361 223.695 135.831 223.003C135.818 223.003 135.818 223.003 135.805 222.99C134.121 217.427 134.769 211.582 134.805 205.871C134.764 199.843 134.382 193.822 133.66 187.837C131.345 166.143 132.075 171.508 131.425 151.97C131.392 145.558 130.664 139.168 129.256 132.912C129.371 132.898 129.48 132.856 129.575 132.791C129.67 132.726 129.748 132.638 129.802 132.537C129.856 132.435 129.885 132.322 129.886 132.207C129.887 132.091 129.861 131.977 129.809 131.875C129.413 131.137 128.626 130.661 128.125 129.99C126.363 127.63 127.831 125.49 126.966 115.115C126.919 113.243 126.689 111.38 126.28 109.552C131.28 109.662 137.323 109.738 142.388 109.377C142.65 111.764 143.383 114.076 144.543 116.178C144.959 117.025 145.566 117.764 146.316 118.337C147.067 118.91 147.939 119.3 148.866 119.478C149.431 119.67 149.945 120.027 150.51 120.178C150.581 120.196 150.655 120.198 150.726 120.184C150.798 120.17 150.865 120.139 150.923 120.095C150.981 120.051 151.029 119.995 151.062 119.93C151.096 119.865 151.114 119.794 151.116 119.721C151.116 118.548 149.781 118.133 148.853 117.862C147.684 117.572 146.672 116.844 146.025 115.828C144.811 113.814 143.941 111.611 143.453 109.31C143.843 109.282 144.248 109.245 144.638 109.215C146.053 109.106 148.126 109.215 149.216 108.151C152.936 116.866 152.806 121.3 152.853 130.172C152.875 134.017 152.848 137.875 152.57 141.707Z" fill="white"/>
<path d="M152.18 38.9696C149.499 35.4608 147.805 33.0796 148.664 28.7333C149.753 24.7979 150.315 20.7353 150.335 16.6521C150.29 14.866 149.741 13.1291 148.75 11.6421C146.5 8.20081 145.039 6.80081 140.602 6.29456C138.89 6.11924 137.171 6.55878 135.753 7.53456C132.537 9.60206 131.022 11.7758 131.942 15.9921C131.538 16.0661 131.174 16.2843 130.919 16.6062C130.664 16.9281 130.534 17.3318 130.554 17.7421C130.554 18.1921 130.853 18.0646 130.179 18.0521C128.144 18.0108 125.529 18.1833 123.889 19.5196C123.31 20.0062 122.838 20.6071 122.502 21.2846C121.199 22.8935 120.481 24.8979 120.468 26.9683C120.453 27.0934 120.482 27.22 120.55 27.3258C120.619 27.4315 120.723 27.5099 120.843 27.5471C120.871 27.5744 120.905 27.5947 120.942 27.6064C120.98 27.6181 121.019 27.6209 121.058 27.6146C120.178 29.7902 119.757 32.1237 119.819 34.4696C119.738 36.6783 119.58 39.3021 121.233 41.0283C121.624 41.4273 122.09 41.7436 122.606 41.9584C123.121 42.1731 123.675 42.2819 124.233 42.2783C124.29 42.8109 124.312 43.3466 124.3 43.8821C124.119 44.5298 124.042 45.2025 124.072 45.8746C124.091 45.9437 124.128 46.0065 124.18 46.0566C124.231 46.1068 124.295 46.1426 124.364 46.1603C124.434 46.178 124.507 46.1771 124.576 46.1577C124.645 46.1383 124.708 46.101 124.758 46.0496C125.233 45.4274 125.45 44.6463 125.364 43.8683C125.392 43.3022 125.338 42.735 125.203 42.1846C126.557 41.9596 127.834 41.4025 128.92 40.5631C130.006 39.7237 130.867 38.6282 131.425 37.3746C131.643 36.7296 130.71 36.4046 130.36 36.9308C129.943 37.6527 129.446 38.3256 128.879 38.9371C126.829 40.9221 123.17 42.1633 121.593 39.6246C120.555 37.9546 120.867 35.4758 120.96 33.5908C121.178 29.1658 122.357 27.2633 121.917 26.8971C123.061 25.6716 124.002 24.271 124.704 22.7483C127.42 28.2396 130.76 29.2796 132.758 30.7621C133.258 31.1371 133.108 31.4633 134.469 31.6508C134.658 31.6771 134.94 31.6783 135.209 31.7046C135.23 31.7344 135.249 31.7662 135.264 31.7996C135.499 32.3797 135.573 33.0122 135.479 33.6308C135.429 34.3046 135.229 35.3646 134.334 35.3408C133.723 35.2221 133.147 34.9656 132.65 34.5908C132.59 34.5576 132.521 34.5449 132.453 34.5546C132.385 34.5643 132.321 34.5958 132.273 34.6444C132.224 34.6931 132.193 34.7562 132.183 34.8243C132.173 34.8924 132.186 34.9618 132.219 35.0221C132.411 35.3212 132.652 35.5854 132.933 35.8033C132.288 36.2333 132.133 38.2171 132.044 38.8608C131.722 41.2221 131.419 44.6108 133.203 46.1871C133.618 46.5546 134.403 46.0521 134.024 45.5546C133.119 44.2996 132.708 42.7559 132.867 41.2171C132.958 38.2346 133.54 37.1321 133.492 36.1396C135.724 37.1896 137.098 34.6996 136.617 32.0146C136.727 31.9678 136.817 31.8813 136.867 31.7721C137.824 29.9984 138.223 27.9769 138.012 25.9725C137.8 23.9681 136.988 22.0743 135.682 20.5396C135.612 20.4608 135.533 20.3908 135.465 20.3108C136.252 20.8143 136.957 21.4367 137.553 22.1558C140.69 25.7933 138.028 30.8371 140.153 35.3683C141.145 37.4642 142.894 39.107 145.047 39.9666C147.201 40.8262 149.6 40.8388 151.763 40.0021C152.125 39.8746 152.489 39.3746 152.18 38.9696ZM130.9 27.5621C129.364 27.1408 126.848 24.6396 126.752 22.6596C126.754 22.609 126.77 22.56 126.798 22.5183C126.827 22.4766 126.867 22.4439 126.914 22.4241C126.96 22.4043 127.011 22.3982 127.061 22.4064C127.111 22.4147 127.158 22.437 127.195 22.4708C127.504 22.8417 127.766 23.2484 127.977 23.6821C129.053 25.4321 130.518 25.7821 131.372 26.7533C131.443 26.8301 131.488 26.9279 131.5 27.0323C131.512 27.1367 131.49 27.2421 131.437 27.3328C131.384 27.4236 131.303 27.4949 131.206 27.5362C131.11 27.5775 131.003 27.5865 130.9 27.5621ZM143.332 10.1608C142.329 9.86015 141.308 9.6259 140.274 9.45956C138.876 9.36709 137.493 9.79026 136.386 10.649C135.279 11.5077 134.525 12.7425 134.267 14.1196C134.2 14.4171 133.789 14.3221 133.767 14.0521C133.534 11.0971 136.415 8.13331 140.379 8.31456C141.596 8.28202 142.787 8.66714 143.754 9.40581C144.113 9.74206 143.735 10.2271 143.332 10.1608Z" fill="white"/>
</svg>
