<svg width="20" height="20" viewBox="0 0 20 20" fill="none" xmlns="http://www.w3.org/2000/svg">
<path d="M1.22392 10.3369C0.980472 10.5816 0.981489 10.9773 1.22619 11.2208C1.47089 11.4642 1.86662 11.4632 2.11007 11.2186L1.22392 10.3369ZM12.8867 11.3067L12.5358 11.8239C12.7985 12.0021 13.153 11.9551 13.3602 11.7146C13.5673 11.4742 13.5614 11.1166 13.3463 10.8832L12.8867 11.3067ZM6.3548 11.8561C6.14089 12.1271 6.18708 12.5201 6.45798 12.734C6.72888 12.9479 7.1219 12.9017 7.33582 12.6308L6.3548 11.8561ZM2.12667 16.5041C1.8928 16.2501 1.4974 16.234 1.24353 16.4678C0.989655 16.7017 0.973447 17.0971 1.20732 17.351L2.12667 16.5041ZM8.65 16.7948L8.87758 16.2127C8.59225 16.1012 8.26821 16.2128 8.11216 16.4764L8.65 16.7948ZM9.35733 2.33837L11.3462 2.89319L11.6821 1.68915L9.69316 1.13434L9.35733 2.33837ZM11.8871 3.25469C14.0422 5.91327 15.423 7.94729 16.5966 10.5257L17.7342 10.008C16.5009 7.29805 15.0505 5.17206 12.8582 2.46755L11.8871 3.25469ZM11.6397 9.76305C11.7112 10.4092 11.9202 11.1801 12.427 11.7301L13.3463 10.8832C13.1019 10.6179 12.9412 10.1594 12.8821 9.62547L11.6397 9.76305ZM10.9502 7.09406C11.1139 7.30719 11.2276 7.45535 11.3072 7.56606C11.3959 7.68922 11.4049 7.71602 11.3977 7.69797L12.5594 7.23641C12.5027 7.09382 12.4065 6.95348 12.3217 6.83578C12.2281 6.70562 12.1002 6.53918 11.9417 6.33285L10.9502 7.09406ZM12.8821 9.62547C12.8047 8.92647 12.746 8.39622 12.7004 8.02556C12.6777 7.84067 12.6574 7.68891 12.639 7.57278C12.6249 7.484 12.6022 7.34413 12.5594 7.23641L11.3977 7.69797C11.3797 7.65253 11.3852 7.64697 11.4044 7.76843C11.4193 7.86255 11.4375 7.99696 11.4597 8.17806C11.5042 8.53939 11.5618 9.06039 11.6397 9.76305L12.8821 9.62547ZM6.74314 2.53237C6.44296 2.8582 6.15922 3.1627 5.97466 3.45359C5.76752 3.78007 5.64809 4.14384 5.72392 4.57874L6.95535 4.364C6.94635 4.3124 6.9425 4.2614 7.03015 4.12325C7.14037 3.94951 7.33065 3.7395 7.66246 3.37933L6.74314 2.53237ZM16.5966 10.5257C17.0918 11.6139 17.43 12.3616 17.5972 12.9842C17.7552 13.572 17.7449 13.995 17.5683 14.4376L18.7293 14.9009C19.0293 14.1491 19.0141 13.4401 18.8045 12.6599C18.6042 11.9146 18.2124 11.0584 17.7342 10.008L16.5966 10.5257ZM14.8094 17.4645C15.8063 17.1362 16.6379 16.8651 17.2713 16.5123C17.9453 16.1368 18.4295 15.6522 18.7293 14.9009L17.5683 14.4376C17.3914 14.8809 17.1277 15.1615 16.663 15.4203C16.1579 15.7017 15.4604 15.9341 14.4185 16.2771L14.8094 17.4645ZM9.16941 6.23135C9.54741 6.16895 9.79741 6.12807 9.9805 6.11112C10.1787 6.09277 10.1912 6.11582 10.1466 6.09743L10.6225 4.94157C10.3659 4.83595 10.0884 4.84579 9.86525 4.86645C9.627 4.8885 9.3245 4.93884 8.96583 4.99805L9.16941 6.23135ZM8.05534 16.5637C7.32226 17.3198 6.21524 17.7181 5.07513 17.7076C3.93515 17.697 2.84006 17.2784 2.12667 16.5041L1.20732 17.351C2.19787 18.4262 3.64774 18.9443 5.06352 18.9575C6.47917 18.9706 7.9387 18.4797 8.95275 17.4338L8.05534 16.5637ZM14.4185 16.2771C12.4754 16.9169 10.8284 16.9755 8.87758 16.2127L8.42241 17.3769C10.6862 18.2621 12.6366 18.1799 14.8094 17.4645L14.4185 16.2771ZM9.15916 17.1616L9.18775 17.1132L8.11216 16.4764L8.08356 16.5247L9.15916 17.1616ZM8.95275 17.4338C9.03758 17.3464 9.10516 17.2527 9.15916 17.1616L8.08356 16.5247C8.07115 16.5457 8.06117 16.5577 8.05534 16.5637L8.95275 17.4338ZM13.2376 10.7895C12.3576 10.1925 10.6027 9.5138 8.79308 10.0946L9.17508 11.2848C10.4971 10.8605 11.8507 11.3591 12.5358 11.8239L13.2376 10.7895ZM8.79308 10.0946C7.93134 10.3712 7.09001 10.9251 6.3548 11.8561L7.33582 12.6308C7.92607 11.8833 8.56333 11.4812 9.17508 11.2848L8.79308 10.0946ZM9.41291 10.2351C8.33026 9.21397 6.78736 8.74114 5.2973 8.75714C3.80733 8.77305 2.27646 9.27897 1.22392 10.3369L2.11007 11.2186C2.87975 10.4449 4.06758 10.0204 5.31069 10.0071C6.5537 9.99372 7.75822 10.3927 8.55525 11.1444L9.41291 10.2351ZM10.1466 6.09743C10.2113 6.1241 10.3182 6.20916 10.4767 6.41917C10.5507 6.51695 10.6221 6.62257 10.7012 6.7401C10.7762 6.85127 10.8623 6.97945 10.9502 7.09406L11.9417 6.33285C11.8818 6.2548 11.8183 6.16088 11.7378 6.04142C11.6616 5.92831 11.5717 5.79476 11.4742 5.66571C11.2901 5.42205 11.0141 5.1028 10.6225 4.94157L10.1466 6.09743ZM11.3462 2.89319C11.4789 2.93019 11.5534 2.9515 11.608 2.97061C11.6325 2.97916 11.6459 2.98491 11.6529 2.9882C11.6562 2.98977 11.6581 2.99076 11.6588 2.99117C11.6587 2.99112 11.6592 2.99139 11.6588 2.99117C11.6588 2.9912 11.6595 2.9916 11.6596 2.9916C11.6597 2.99172 11.6602 2.99211 11.6607 2.99251C11.6617 2.99329 11.6638 2.99495 11.6671 2.9979C11.674 3.00408 11.6857 3.01541 11.7046 3.03598C11.7461 3.08138 11.7978 3.1446 11.8871 3.25469L12.8582 2.46755C12.7106 2.28551 12.5576 2.08755 12.3515 1.95058C12.1422 1.81152 11.9016 1.75038 11.6821 1.68915L11.3462 2.89319ZM9.69316 1.13434C8.93591 0.923087 8.334 1.08988 7.83925 1.43995C7.41265 1.74179 7.03361 2.21708 6.74314 2.53237L7.66246 3.37933C8.05656 2.95155 8.27809 2.6607 8.56125 2.46035C8.77625 2.30825 8.99325 2.23682 9.35733 2.33837L9.69316 1.13434ZM5.72392 4.57874C5.87728 5.45816 6.66461 5.88632 7.28024 6.0778C7.92849 6.27942 8.66383 6.31483 9.16941 6.23135L8.96583 4.99805C8.65716 5.049 8.11861 5.02949 7.65147 4.8842C7.15172 4.72876 6.9822 4.51804 6.95535 4.364L5.72392 4.57874Z" fill="white"/>
</svg>
