<svg viewBox="0 0 33 33" fill="none" xmlns="http://www.w3.org/2000/svg">
<path d="M26.2026 26.7304L29.6693 30.1971M27.9359 20.6638C27.9359 16.3559 24.4438 12.8638 20.1359 12.8638C15.8281 12.8638 12.3359 16.3559 12.3359 20.6638C12.3359 24.9716 15.8281 28.4638 20.1359 28.4638C24.4438 28.4638 27.9359 24.9716 27.9359 20.6638Z" stroke-width="1.5" stroke-linecap="round" stroke-linejoin="round"/>
<path d="M25.7693 26.2971L29.6693 30.1971M17.5359 20.6638H20.1359M20.1359 20.6638H22.7359M20.1359 20.6638V18.0638M20.1359 20.6638V23.2638M27.9359 20.6638C27.9359 16.3559 24.4438 12.8638 20.1359 12.8638C15.8281 12.8638 12.3359 16.3559 12.3359 20.6638C12.3359 24.9716 15.8281 28.4638 20.1359 28.4638C24.4438 28.4638 27.9359 24.9716 27.9359 20.6638Z" stroke-width="1.5" stroke-linecap="round" stroke-linejoin="round"/>
<path d="M3.00195 8.86373C3.17595 7.08306 3.57022 5.88546 4.46362 4.99206C5.35702 4.09866 6.55462 3.7044 8.33529 3.5304M8.33529 30.1971C6.55462 30.0231 5.35702 29.6288 4.46362 28.7353C3.57022 27.842 3.17595 26.6444 3.00195 24.8637M29.6686 8.86373C29.4946 7.08306 29.1004 5.88546 28.2069 4.99206C27.3136 4.09866 26.116 3.7044 24.3353 3.5304M3.00195 14.1971V19.5304M19.002 3.5304H13.6686" stroke-width="1.5" stroke-linecap="round"/>
</svg>
