<svg viewBox="0 0 25 20" fill="none" xmlns="http://www.w3.org/2000/svg">
<path fill-rule="evenodd" clip-rule="evenodd" d="M8.65761 0.964016C7.17045 1.29444 6.03804 1.65847 4.63728 2.25641C4.40567 2.35527 4.36896 2.39553 4.04599 2.906C2.49743 5.35344 1.49581 7.8711 1.04248 10.4555C0.806743 11.7993 0.762165 12.3824 0.768071 14.0439C0.771118 14.8947 0.791415 15.7062 0.813259 15.8472L0.852915 16.1035L1.46229 16.5178C2.98545 17.5532 4.57057 18.3522 6.22854 18.9201C6.56965 19.0369 6.87471 19.1226 6.90645 19.1104C7.02115 19.0664 8.18886 17.2014 8.18886 17.0623C8.18886 17.0453 8.06759 16.9836 7.91932 16.9251C7.5522 16.7804 6.35253 16.1844 6.27317 16.1074C6.19207 16.0287 6.21265 15.9973 6.46296 15.8175L6.66664 15.6712L7.13478 15.8711C9.60758 16.9266 12.4374 17.2687 15.056 16.8285C16.2624 16.6258 17.3569 16.2935 18.6445 15.7393C18.8092 15.6683 18.8135 15.6695 19.0195 15.8325C19.1341 15.9232 19.2279 16.0219 19.2279 16.0518C19.2279 16.1175 18.2503 16.6302 17.7279 16.8385C17.5217 16.9207 17.3337 17.005 17.3103 17.0258C17.2175 17.108 18.433 19.1233 18.5782 19.1281C18.6075 19.1291 18.8818 19.0437 19.1876 18.9384C20.914 18.3439 22.4759 17.5598 24.0092 16.518L24.6186 16.1039L24.6497 15.8474C24.6668 15.7063 24.6958 15.1057 24.7142 14.5127C24.8422 10.3788 23.773 6.60772 21.4226 2.90399L21.076 2.3578L20.4332 2.09066C19.2474 1.59786 17.7019 1.12981 16.5596 0.917563L16.1412 0.839844L16.0574 0.949719C16.0113 1.01009 15.8624 1.29922 15.7266 1.59214L15.4796 2.12474L15.2444 2.09591C15.115 2.08006 14.8088 2.04181 14.5639 2.01097C13.9829 1.9378 11.5417 1.93742 10.931 2.01041C10.6732 2.04125 10.3568 2.07856 10.2279 2.09333L9.99354 2.12024L9.68886 1.49614C9.33364 0.7685 9.39504 0.800188 8.65761 0.964016ZM9.61582 8.69427C10.2257 8.99568 10.6721 9.5811 10.8423 10.3026C10.9355 10.6977 10.9064 11.3478 10.7787 11.7282C10.2369 13.3412 8.46907 13.8304 7.32195 12.6846C6.57139 11.9349 6.38857 10.7184 6.87701 9.7237C7.14303 9.18196 7.58079 8.78919 8.13523 8.59476C8.39576 8.5034 8.51422 8.48873 8.85968 8.50508C9.21767 8.52205 9.31836 8.54727 9.61582 8.69427ZM17.5931 8.69849C18.3951 9.09487 18.8776 9.91471 18.8757 10.878C18.8743 11.5807 18.6542 12.1643 18.2116 12.6386C16.9916 13.946 15.0218 13.2625 14.6292 11.3955C14.4231 10.4151 14.8514 9.32469 15.6418 8.81746C16.0271 8.57024 16.3509 8.48535 16.8284 8.50644C17.1902 8.52243 17.285 8.54624 17.5931 8.69849Z" />
</svg>
