<svg viewBox="0 0 20 22" fill="none" xmlns="http://www.w3.org/2000/svg">
<path fill-rule="evenodd" clip-rule="evenodd" d="M3.43793 0.56231C3.32355 0.653664 3.15157 1.19132 3.04923 1.77793C2.93985 2.40465 2.97407 3.24642 3.13235 3.82252L3.25048 4.25252L3.07246 4.44955C2.631 4.93819 2.18366 5.79179 1.98866 6.51752C1.84288 7.06022 1.79043 8.3947 1.88355 9.19236C2.05485 10.6596 2.56126 11.8847 3.36647 12.7798C3.92366 13.3991 4.91788 14.0026 5.92449 14.3323C6.46334 14.5088 7.72746 14.7727 8.03407 14.7727C8.11808 14.7727 8.18683 14.7854 8.18683 14.801C8.18683 14.8166 8.0947 14.9513 7.98209 15.1005C7.71444 15.4551 7.5309 15.8577 7.42928 16.3131L7.34709 16.6815L7.10293 16.7678C6.40673 17.0138 5.56282 17.082 5.01657 16.9366C4.35116 16.7595 3.77949 16.3306 3.36251 15.6957C3.22668 15.4889 3.02204 15.2061 2.90777 15.0672C2.62293 14.7212 2.04163 14.3244 1.63564 14.199C1.07058 14.0245 0.481156 14.0843 0.435583 14.3208C0.413917 14.4334 0.742094 14.7605 1.20189 15.0845C1.6573 15.4055 2.04392 15.9208 2.43579 16.7292C2.8335 17.5498 3.10876 17.9339 3.5247 18.2486C4.41095 18.9191 5.52631 19.1103 7.08006 18.8579L7.30142 18.8219V20.1191C7.30142 21.5796 7.30084 21.582 6.91689 21.7564C6.70376 21.8532 6.7172 21.8538 9.15491 21.8549C10.5038 21.8555 12.3148 21.8405 13.1794 21.8216C14.6394 21.7896 14.7399 21.7815 14.5875 21.7077C14.2858 21.5616 14.2806 21.516 14.2802 19.0062C14.2799 16.9149 14.2713 16.6902 14.1769 16.2963C14.0552 15.7888 13.8295 15.319 13.5686 15.0302C13.4652 14.9157 13.3897 14.8143 13.4009 14.805C13.412 14.7955 13.6907 14.748 14.0202 14.6993C15.762 14.4418 17.0438 13.8999 17.9653 13.0312C18.4961 12.5308 18.7826 12.1393 19.0941 11.4886C19.5758 10.4824 19.7652 9.52319 19.767 8.08001C19.7682 7.1733 19.7568 7.04684 19.6304 6.5696C19.4592 5.92319 19.0141 5.02455 18.6331 4.55621L18.351 4.2095L18.4574 3.87913C18.533 3.64429 18.5714 3.35127 18.5902 2.86564C18.6195 2.10861 18.5699 1.7083 18.3604 1.01221C18.2369 0.601685 18.2101 0.555904 18.0764 0.526529C17.4983 0.399602 16.0646 0.899185 14.8466 1.652L14.3334 1.96913L13.9882 1.88252C12.0466 1.39559 9.84548 1.38783 7.73303 1.86054L7.25319 1.96788L7.02991 1.81627C6.34022 1.34793 5.20355 0.813612 4.51496 0.634081C4.04433 0.511372 3.5436 0.477987 3.43793 0.56231Z" />
</svg>
