<svg viewBox="0 0 25 22" fill="none" xmlns="http://www.w3.org/2000/svg">
<path fill-rule="evenodd" clip-rule="evenodd" d="M13.4374 0.645486C13.3621 0.720767 13.2841 0.868981 13.2641 0.974913C13.244 1.08085 12.9506 2.4822 12.6121 4.089L11.9965 7.01047L11.1963 7.07636C9.82653 7.18917 8.47525 7.51997 7.25476 8.04127C6.65452 8.29765 5.77905 8.75856 5.38774 9.02428C5.1458 9.18853 5.05751 9.19312 4.9034 9.04943C4.73737 8.89457 4.26242 8.66535 3.93941 8.58416C3.78409 8.54509 3.45054 8.5259 3.165 8.53953C2.75336 8.55924 2.59409 8.59591 2.27715 8.74424C1.23925 9.22995 0.617868 10.3758 0.798737 11.4707C0.894472 12.0505 1.15137 12.5358 1.56582 12.9195C1.75488 13.0945 1.99785 13.2798 2.10585 13.3313C2.2783 13.4135 2.29886 13.446 2.27497 13.5983C2.22238 13.9329 2.35151 15.1096 2.4952 15.6054C3.14185 17.8369 5.23386 19.7038 8.17275 20.6718C9.7689 21.1976 11.2075 21.3974 13.0339 21.3469C16.295 21.2567 19.1211 20.1828 20.9734 18.3299C21.8907 17.4123 22.454 16.478 22.7124 15.4456C22.8218 15.0086 22.9364 13.7904 22.8888 13.5707C22.8628 13.4506 22.8911 13.409 23.0609 13.3175C23.3531 13.1602 23.741 12.7232 23.942 12.325C24.303 11.61 24.3087 10.8553 23.959 10.1078C23.3691 8.84748 21.8462 8.28859 20.5852 8.86976C20.358 8.97449 20.1285 9.10838 20.0752 9.16722C19.9343 9.32294 19.8408 9.30134 19.3945 9.01007C17.9538 8.06957 15.8564 7.38339 13.8539 7.19742L13.0837 7.12586L13.6508 4.40514C13.9628 2.90874 14.2225 1.68012 14.2281 1.67485C14.2337 1.66963 15.0832 1.83692 16.116 2.04661L17.9936 2.42794L18.0555 2.65677C18.1966 3.17824 18.5301 3.58529 19.0221 3.83646C19.4043 4.03154 20.0281 4.02713 20.4544 3.82638C20.902 3.61566 21.11 3.41926 21.3105 3.01805C21.6337 2.37128 21.5281 1.61876 21.0375 1.07317C20.6705 0.664965 20.3198 0.509934 19.7618 0.509246C19.3904 0.508731 19.2755 0.53434 18.9751 0.684444C18.7785 0.782699 18.5338 0.964773 18.4205 1.09717L18.2178 1.33407L16.0848 0.919512C14.9116 0.691548 13.8669 0.505809 13.763 0.50684C13.6422 0.507986 13.525 0.557944 13.4374 0.645486ZM8.91428 11.2609C9.29824 11.3915 9.80075 11.894 9.93132 12.278C9.98414 12.4333 10.0273 12.7321 10.0273 12.942C10.0273 13.612 9.62813 14.2205 8.99901 14.5096C8.61659 14.6853 7.91608 14.6782 7.5638 14.4951C6.23784 13.806 6.20106 12.0238 7.49894 11.352C7.80207 11.1951 7.92244 11.1649 8.24608 11.1649C8.45829 11.1649 8.75896 11.2081 8.91428 11.2609ZM17.2728 11.4193C17.6304 11.5943 17.9535 11.9295 18.1254 12.3038C18.3152 12.7171 18.2987 13.3835 18.0879 13.8126C17.8203 14.3576 17.364 14.6784 16.6897 14.7958C16.5886 14.8134 16.4904 14.8029 16.4715 14.7724C16.4527 14.7419 16.355 14.7168 16.2544 14.7164C15.996 14.7156 15.5377 14.4847 15.276 14.2233C14.5058 13.4541 14.6248 12.1628 15.5233 11.5401C16.0255 11.1921 16.7116 11.1447 17.2728 11.4193ZM8.9172 17.1854C9.26467 17.4244 9.97835 17.7756 10.4104 17.9201C11.1024 18.1516 11.7547 18.2273 12.7773 18.1949C14.1076 18.1527 14.9064 17.9224 15.9014 17.2941C16.5014 16.9152 16.8186 16.9152 16.9506 17.2939C17.0075 17.457 16.9349 17.8625 16.8619 17.7895C16.8471 17.7745 16.6543 17.8792 16.4336 18.0219C15.6094 18.5551 14.5964 18.938 13.6691 19.067C12.6578 19.2077 11.2304 19.1128 10.2565 18.8403C9.47688 18.6221 8.15373 17.9151 8.05794 17.6656C7.98804 17.4834 8.02379 17.2721 8.14668 17.1412C8.32537 16.9511 8.59946 16.9668 8.9172 17.1854Z" />
</svg>
