<svg viewBox="0 0 26 22" fill="none" xmlns="http://www.w3.org/2000/svg">
<path fill-rule="evenodd" clip-rule="evenodd" d="M12.8426 5.00454C6.43463 7.47741 1.13834 9.53566 1.07302 9.57842C0.914771 9.68213 0.76777 9.93093 0.767579 10.0955C0.767291 10.2977 0.884461 10.5355 1.0373 10.6429C1.11272 10.6958 2.43491 11.2078 3.97555 11.7807C5.51618 12.3535 6.80007 12.8467 6.82865 12.8766C6.85719 12.9065 7.36064 14.4824 7.94739 16.3786C8.53415 18.2747 9.04774 19.8987 9.08868 19.9874C9.12967 20.0761 9.22956 20.1891 9.31067 20.2386C9.47687 20.34 9.81713 20.358 9.97447 20.2738C10.0311 20.2435 10.7677 19.6551 11.6113 18.9663C13.4535 17.4621 13.3918 17.5082 13.6413 17.4521C14.0353 17.3636 14.1122 17.4087 16.4283 19.0897C20.4925 22.0393 20.1964 21.8372 20.4534 21.8372C20.7196 21.8372 20.9076 21.7199 21.0349 21.4742C21.1619 21.2294 25.2982 1.24548 25.262 1.05222C25.2068 0.757984 24.8983 0.502767 24.6027 0.506885C24.5426 0.507699 19.2505 2.53162 12.8426 5.00454ZM19.9589 4.96805C19.9905 4.99965 20.0163 5.06056 20.0163 5.10341C20.0163 5.14627 18.2555 6.81729 16.1033 8.81674C10.8686 13.6801 10.6614 13.8768 10.5219 14.1148C10.3374 14.4296 10.2666 14.747 10.1021 15.9955C10.0159 16.6498 9.92156 17.1911 9.88292 17.2524C9.81272 17.3639 9.61415 17.3969 9.48937 17.3178C9.45384 17.2953 9.14332 16.299 8.79933 15.1039C8.13476 12.7953 8.0966 12.5932 8.2559 12.2258C8.29847 12.1276 8.40324 11.9812 8.48871 11.9006C8.68048 11.7197 19.7241 4.91207 19.8272 4.91121C19.8681 4.91088 19.9273 4.93645 19.9589 4.96805Z" />
</svg>
