<svg viewBox="0 0 26 22" fill="none" xmlns="http://www.w3.org/2000/svg">
<path fill-rule="evenodd" clip-rule="evenodd" d="M16.8915 0.167881C16.4096 0.280121 16.1163 0.387937 15.6984 0.60652C14.3366 1.3188 13.3612 2.58549 12.9722 4.14679C12.8336 4.70286 12.786 5.76469 12.8746 6.32018L12.9248 6.63472L12.3537 6.59472C10.3177 6.45204 8.08276 5.68879 6.18414 4.48768C5.13562 3.8243 4.37559 3.18798 3.3475 2.1125C2.25009 0.964585 2.34609 0.991315 2.06269 1.7545C1.58 3.0542 1.54121 4.23929 1.94258 5.42271C2.25493 6.34377 2.91707 7.35143 3.58392 7.92051L3.93151 8.21717H3.73982C3.38385 8.21717 2.60778 8.01756 2.13066 7.80327L1.65648 7.59027V7.90641C1.65648 9.03541 2.22544 10.4049 3.08539 11.3459C3.72232 12.0428 4.35148 12.4595 5.23578 12.7702L5.72526 12.9422L5.1984 13.0245C4.89419 13.072 4.40881 13.0936 4.04996 13.0755C3.32034 13.0386 3.34004 12.9815 3.77885 13.8622C4.25713 14.822 5.04262 15.6453 5.93941 16.1268C6.59371 16.478 6.93659 16.5946 7.61886 16.6978L8.16139 16.7798L7.92228 16.9773C7.79079 17.0859 7.49741 17.2934 7.27036 17.4385C5.49955 18.5705 3.51961 19.114 1.45059 19.0361C0.54139 19.0019 0.54139 19.0033 1.44172 19.5099C4.52078 21.2423 7.84519 21.7984 11.2931 21.1578C16.512 20.1881 20.6634 16.2951 22.3674 10.7726C22.8261 9.2863 23.0711 7.71623 23.0711 6.2639V5.41213L23.4229 5.1356C24.0834 4.61639 25.1016 3.47341 25.547 2.75139L25.6565 2.57389L25.37 2.70254C24.749 2.98138 22.9366 3.48239 22.8556 3.39752C22.8423 3.38361 23.0277 3.21541 23.2675 3.02381C23.9459 2.48184 24.5965 1.54752 24.8783 0.710812L24.9583 0.473127L24.2135 0.846833C23.5148 1.19746 22.682 1.51482 22.0171 1.68392L21.7278 1.75751L21.4052 1.45201C20.7625 0.843435 19.9886 0.417231 19.1385 0.203713C18.5569 0.0576276 17.4413 0.0398719 16.8915 0.167881Z" />
</svg>
